G04 Layer: BottomSolderMaskLayer*
G04 EasyEDA v6.4.5, 2020-09-10T17:23:05--4:00*
G04 1c95f6ef93c34f1eadd188c2f50e5772,ebf70693e8d24e819ce4a1bff5f43d4f,10*
G04 Gerber Generator version 0.2*
G04 Scale: 100 percent, Rotated: No, Reflected: No *
G04 Dimensions in millimeters *
G04 leading zeros omitted , absolute positions ,3 integer and 3 decimal *
%FSLAX33Y33*%
%MOMM*%
G90*
G71D02*

%ADD38C,1.778000*%
%ADD47C,1.503197*%
%ADD62C,1.903197*%
%ADD63C,1.803197*%
%ADD66C,2.003196*%
%ADD67C,1.981200*%

%LPD*%
G54D47*
G01X99172Y58949D02*
G01X100072Y58949D01*
G01X99172Y51710D02*
G01X100072Y51710D01*
G01X96922Y52919D03*
G01X96922Y57760D03*
G54D38*
G01X101232Y17120D03*
G01X99436Y15324D03*
G36*
G01X97641Y12271D02*
G01X96383Y13529D01*
G01X97641Y14786D01*
G01X98898Y13529D01*
G01X97641Y12271D01*
G37*
G01X89512Y101448D03*
G01X91308Y99652D03*
G36*
G01X93104Y96599D02*
G01X91847Y97857D01*
G01X93104Y99114D01*
G01X94361Y97857D01*
G01X93104Y96599D01*
G37*
G01X17412Y5146D03*
G01X15616Y6942D03*
G36*
G01X13821Y7481D02*
G01X12563Y8738D01*
G01X13821Y9996D01*
G01X15078Y8738D01*
G01X13821Y7481D01*
G37*
G01X5565Y89474D03*
G01X7361Y91270D03*
G36*
G01X9157Y91809D02*
G01X7900Y93066D01*
G01X9157Y94324D01*
G01X10414Y93066D01*
G01X9157Y91809D01*
G37*
G36*
G01X17331Y56409D02*
G01X17331Y58314D01*
G01X19236Y58314D01*
G01X19236Y56409D01*
G01X17331Y56409D01*
G37*
G54D62*
G01X20823Y57361D03*
G01X18283Y54821D03*
G01X20823Y54821D03*
G01X18283Y52281D03*
G01X20823Y52281D03*
G01X18283Y49741D03*
G01X20823Y49741D03*
G54D63*
G01X50668Y7069D03*
G01X50668Y9609D03*
G01X53208Y7069D03*
G01X53208Y9609D03*
G01X55748Y7069D03*
G36*
G01X54847Y8708D02*
G01X54847Y10511D01*
G01X56650Y10511D01*
G01X56650Y8708D01*
G01X54847Y8708D01*
G37*
G36*
G01X100988Y88304D02*
G01X99571Y89719D01*
G01X100988Y91136D01*
G01X102403Y89719D01*
G01X100988Y88304D01*
G37*
G54D66*
G01X99192Y91515D03*
G01X97395Y93311D03*
G01X95599Y95108D03*
G36*
G01X17295Y99660D02*
G01X15878Y101077D01*
G01X17295Y102492D01*
G01X18710Y101077D01*
G01X17295Y99660D01*
G37*
G01X15499Y99281D03*
G01X13702Y97484D03*
G01X11906Y95688D03*
G36*
G01X5428Y16094D02*
G01X4014Y17511D01*
G01X5428Y18926D01*
G01X6846Y17511D01*
G01X5428Y16094D01*
G37*
G01X7225Y15714D03*
G01X9022Y13918D03*
G01X10818Y12122D03*
G36*
G01X89629Y4230D02*
G01X88215Y5645D01*
G01X89629Y7062D01*
G01X91047Y5645D01*
G01X89629Y4230D01*
G37*
G01X91426Y7441D03*
G01X93223Y9237D03*
G01X95019Y11034D03*
G36*
G01X6663Y58060D02*
G01X6663Y59965D01*
G01X8568Y59965D01*
G01X8568Y58060D01*
G01X6663Y58060D01*
G37*
G54D62*
G01X7615Y56472D03*
G01X7615Y53932D03*
G01X7615Y51392D03*
G01X7615Y48852D03*
G54D67*
G01X63252Y32850D03*
G01X70851Y32850D03*
M00*
M02*
