G04 Layer: TopLayer*
G04 EasyEDA v6.4.5, 2020-09-10T17:23:05--4:00*
G04 1c95f6ef93c34f1eadd188c2f50e5772,ebf70693e8d24e819ce4a1bff5f43d4f,10*
G04 Gerber Generator version 0.2*
G04 Scale: 100 percent, Rotated: No, Reflected: No *
G04 Dimensions in millimeters *
G04 leading zeros omitted , absolute positions ,3 integer and 3 decimal *
%FSLAX33Y33*%
%MOMM*%
G90*
G71D02*

%ADD10C,0.254000*%
%ADD11C,0.159995*%
%ADD12C,0.250012*%
%ADD13C,0.450012*%
%ADD14C,0.280010*%
%ADD15C,0.610006*%
%ADD16C,0.609600*%
%ADD19R,0.999998X1.099998*%
%ADD21R,1.199896X1.599997*%
%ADD22R,0.800100X0.299720*%
%ADD23R,0.299720X0.800100*%
%ADD24R,1.999996X5.499989*%
%ADD25R,1.099998X0.999998*%
%ADD26R,0.699999X1.250010*%
%ADD27R,1.092200X0.990600*%
%ADD28R,1.199896X1.699997*%
%ADD29C,1.299997*%
%ADD30C,1.574800*%
%ADD32R,1.699997X1.699997*%
%ADD33C,1.699997*%
%ADD34C,1.599997*%
%ADD35R,1.599997X1.599997*%
%ADD37C,1.799996*%
%ADD38C,1.778000*%

%LPD*%
G54D10*
G01X34858Y53170D02*
G01X36444Y53170D01*
G01X37587Y52027D01*
G01X5429Y17511D02*
G01X2027Y20912D01*
G01X2027Y24087D01*
G01X6472Y28532D01*
G01X6472Y40089D01*
G01X10409Y44026D01*
G01X10409Y57234D01*
G01X27554Y102319D02*
G01X25522Y104351D01*
G01X20569Y104351D01*
G01X17294Y101077D01*
G01X10409Y61044D02*
G01X10409Y66251D01*
G01X17140Y72982D01*
G54D11*
G01X98509Y47201D02*
G01X98509Y47938D01*
G01X98509Y47938D02*
G01X96066Y47938D01*
G01X96020Y47892D01*
G01X96020Y45604D01*
G01X98105Y43518D01*
G01X97874Y68283D02*
G01X97874Y64517D01*
G01X97704Y64346D01*
G01X96962Y64346D02*
G01X97704Y64346D01*
G01X84847Y65510D02*
G01X84847Y65495D01*
G01X77313Y57961D01*
G01X73599Y57961D01*
G01X73279Y58281D01*
G01X73279Y59244D01*
G01X95560Y64346D02*
G01X88712Y64346D01*
G01X98128Y71738D02*
G01X93282Y71738D01*
G01X93259Y71712D01*
G01X98128Y72474D02*
G01X98128Y71738D01*
G01X92517Y71712D02*
G01X93259Y71712D01*
G01X91115Y71712D02*
G01X90374Y71712D01*
G01X73780Y59244D02*
G01X73780Y60214D01*
G01X79203Y65637D01*
G01X84201Y65637D01*
G01X90277Y71712D01*
G01X90374Y71712D01*
G01X54412Y19810D02*
G01X55215Y19007D01*
G01X58796Y19007D01*
G01X54412Y20679D02*
G01X54412Y19810D01*
G01X58796Y19876D02*
G01X58796Y19007D01*
G01X57846Y17377D02*
G01X57846Y9167D01*
G01X55748Y7069D01*
G01X35870Y78189D02*
G01X39574Y74486D01*
G01X46223Y74486D01*
G01X46223Y77478D02*
G01X46223Y74590D01*
G01X46223Y74590D02*
G01X46223Y74532D01*
G01X46223Y74532D02*
G01X46223Y74486D01*
G01X46223Y74532D02*
G01X49754Y71001D01*
G01X53666Y71001D01*
G01X28885Y62822D02*
G01X31049Y64987D01*
G01X46223Y64987D01*
G01X46223Y67979D02*
G01X46223Y66483D01*
G01X46223Y66483D02*
G01X46223Y64987D01*
G01X46223Y66483D02*
G01X49947Y66483D01*
G01X53666Y70201D01*
G01X56830Y68601D02*
G01X56830Y67697D01*
G01X55860Y66726D01*
G01X55538Y66726D01*
G01X44740Y55931D01*
G01X19393Y55931D01*
G01X18283Y54821D01*
G01X57631Y68601D02*
G01X57631Y68040D01*
G01X55995Y66404D01*
G01X55901Y66404D01*
G01X45085Y55589D01*
G01X21590Y55589D01*
G01X20823Y54821D01*
G01X70435Y78824D02*
G01X66599Y74989D01*
G01X62403Y74989D01*
G01X71176Y78824D02*
G01X70435Y78824D01*
G01X62403Y75789D02*
G01X63810Y77196D01*
G01X63810Y85047D01*
G01X60839Y77364D02*
G01X62667Y79193D01*
G01X62667Y88730D01*
G54D12*
G01X60767Y81110D02*
G01X60767Y80234D01*
G01X60038Y79508D02*
G01X56846Y79508D01*
G01X54862Y81491D01*
G01X60767Y80234D02*
G01X60038Y79508D01*
G01X60038Y79508D02*
G01X60038Y77364D01*
G01X54036Y81491D02*
G01X54862Y81491D01*
G54D11*
G01X18202Y39073D02*
G01X18202Y40816D01*
G01X20270Y42883D01*
G01X17460Y39073D02*
G01X18202Y39073D01*
G01X21014Y42883D02*
G01X20270Y42883D01*
G01X49500Y50148D02*
G01X49500Y49505D01*
G01X73279Y48144D02*
G01X73279Y48992D01*
G01X72876Y49393D01*
G01X49612Y49393D01*
G01X49500Y49505D01*
G01X48001Y50148D02*
G01X48001Y49505D01*
G01X72279Y48144D02*
G01X72279Y47217D01*
G01X70874Y45812D01*
G01X51235Y45812D01*
G01X48001Y49043D01*
G01X48001Y49505D01*
G01X79063Y56927D02*
G01X80038Y56927D01*
G01X86289Y63178D01*
G01X86289Y64854D01*
G01X76780Y48144D02*
G01X76780Y47275D01*
G01X84981Y39073D01*
G01X89083Y39073D01*
G01X79063Y55929D02*
G01X87671Y55929D01*
G01X88342Y56599D01*
G01X89086Y56599D02*
G01X88342Y56599D01*
G01X90485Y56599D02*
G01X91227Y56599D01*
G01X91227Y56599D02*
G01X92508Y55319D01*
G01X96137Y55319D01*
G01X79063Y55429D02*
G01X87227Y55429D01*
G01X88342Y54313D01*
G01X89086Y54313D02*
G01X88342Y54313D01*
G01X96137Y54669D02*
G01X91583Y54669D01*
G01X91227Y54313D01*
G01X90485Y54313D02*
G01X91227Y54313D01*
G01X71181Y41994D02*
G01X71923Y41994D01*
G01X80071Y40851D02*
G01X79137Y39917D01*
G01X74001Y39917D01*
G01X71923Y41994D01*
G01X73780Y48144D02*
G01X73780Y46980D01*
G01X73541Y46742D01*
G01X80013Y42055D02*
G01X80013Y41702D01*
G01X80071Y41644D01*
G01X80071Y40851D02*
G01X80071Y41644D01*
G01X64354Y57560D02*
G01X66985Y54928D01*
G01X67963Y54928D01*
G01X62860Y57560D02*
G01X64354Y57560D01*
G01X67963Y55429D02*
G01X66942Y55429D01*
G01X64247Y58123D01*
G01X62037Y58123D01*
G01X61369Y58791D01*
G01X61369Y59957D01*
G01X62860Y59957D02*
G01X61369Y59957D01*
G01X60028Y68601D02*
G01X60028Y68060D01*
G01X58050Y66081D01*
G01X56035Y66081D01*
G01X45220Y55266D01*
G01X23808Y55266D01*
G01X20823Y52281D01*
G01X18283Y49741D02*
G01X19553Y51011D01*
G01X29236Y51011D01*
G01X33168Y54943D01*
G01X45355Y54943D01*
G01X45698Y55286D01*
G01X48004Y55286D01*
G01X60828Y68111D01*
G01X60828Y68601D01*
G01X18283Y52281D02*
G01X17156Y53409D01*
G01X17156Y55271D01*
G01X18154Y56269D01*
G01X41192Y56269D01*
G01X55113Y70191D01*
G01X62403Y70191D01*
G54D12*
G01X52512Y20204D02*
G01X52512Y19729D01*
G01X52512Y20204D02*
G01X52512Y20679D01*
G01X52512Y19729D02*
G01X49485Y19729D01*
G01X48403Y18644D01*
G01X48403Y17598D01*
G01X48057Y17252D01*
G01X48057Y17252D02*
G01X41992Y11187D01*
G01X19861Y11187D01*
G01X15616Y6942D01*
G01X48057Y17252D02*
G01X50478Y14832D01*
G01X57115Y14832D01*
G01X58464Y15324D02*
G01X99436Y15324D01*
G54D11*
G01X59365Y81110D02*
G01X58624Y81110D01*
G01X58624Y81110D02*
G01X56030Y83704D01*
G01X36272Y83704D01*
G01X11761Y59193D01*
G01X10818Y12122D02*
G01X13386Y12122D01*
G01X63528Y87443D02*
G01X64024Y87938D01*
G01X64069Y87938D01*
G01X64069Y88730D02*
G01X64069Y87938D01*
G01X95598Y95108D02*
G01X76863Y95108D01*
G01X11905Y95688D02*
G01X20392Y87204D01*
G01X38309Y87204D01*
G01X38405Y87107D01*
G01X55240Y87107D01*
G01X57656Y89523D01*
G01X63277Y89523D01*
G01X64069Y88730D01*
G01X9023Y13917D02*
G01X13970Y13917D01*
G01X20150Y94959D02*
G01X24405Y90704D01*
G01X63983Y90704D01*
G01X65212Y89475D01*
G01X65212Y87260D01*
G01X65212Y87260D02*
G01X65212Y85047D01*
G01X65212Y87260D02*
G01X72408Y87260D01*
G01X76190Y93310D02*
G01X90145Y93310D01*
G01X90145Y93310D02*
G01X97397Y93310D01*
G01X100988Y89719D02*
G01X99472Y89719D01*
G01X72578Y78824D02*
G01X73320Y78824D01*
G01X72578Y78824D02*
G01X72578Y78032D01*
G01X72578Y78032D02*
G01X70419Y78032D01*
G01X70168Y77781D01*
G01X17295Y101077D02*
G01X17294Y101077D01*
G01X77697Y83201D02*
G01X73320Y78824D01*
G01X99472Y89719D02*
G01X84214Y89719D01*
G01X80889Y86394D01*
G01X80889Y86394D01*
G01X77697Y83201D01*
G01X17294Y101077D02*
G01X18537Y99906D01*
G01X25743Y93536D01*
G01X26361Y93536D01*
G01X26686Y93214D01*
G01X67681Y93214D01*
G01X77697Y83201D01*
G01X55634Y67275D02*
G01X56030Y67669D01*
G01X56030Y68601D01*
G01X63300Y69178D02*
G01X62810Y69668D01*
G01X59828Y69668D01*
G01X59228Y69068D01*
G01X59228Y68601D01*
G01X79063Y53427D02*
G01X70379Y53427D01*
G01X48128Y20384D02*
G01X48128Y20818D01*
G01X48128Y20818D02*
G01X48128Y21250D01*
G01X31745Y14115D02*
G01X20679Y14115D01*
G01X17529Y10968D01*
G01X10343Y10968D01*
G01X7227Y14085D01*
G01X7227Y15713D01*
G01X53462Y22309D02*
G01X49188Y22309D01*
G01X48128Y21250D01*
G01X53462Y22744D02*
G01X53462Y22309D01*
G01X53462Y22744D02*
G01X53462Y23178D01*
G01X53462Y23178D02*
G01X53462Y24044D01*
G01X96703Y43518D02*
G01X95962Y43518D01*
G01X54194Y71865D02*
G01X52060Y71865D01*
G01X31745Y14115D02*
G01X30953Y14908D01*
G01X30953Y16117D01*
G01X31405Y16569D01*
G01X43879Y16569D01*
G01X48128Y20818D01*
G01X89881Y42800D02*
G01X92136Y42800D01*
G01X95962Y43518D02*
G01X95243Y42800D01*
G01X92136Y42800D01*
G01X54194Y71865D02*
G01X53729Y71865D01*
G01X53666Y71801D01*
G01X62403Y70991D02*
G01X56373Y70991D01*
G01X54844Y72518D01*
G01X53666Y73399D02*
G01X54156Y73399D01*
G01X54844Y72711D01*
G01X54844Y72518D01*
G01X54844Y72518D02*
G01X54194Y71865D01*
G01X8316Y75776D02*
G01X9058Y75776D01*
G01X9058Y75776D02*
G01X9068Y75789D01*
G01X20737Y75789D01*
G01X53462Y24044D02*
G01X52060Y24044D01*
G01X39177Y88222D02*
G01X39177Y88631D01*
G01X15500Y99282D02*
G01X15500Y98837D01*
G01X24826Y89508D01*
G01X38301Y89508D01*
G01X39177Y88631D01*
G01X39177Y88631D02*
G01X48967Y88631D01*
G01X72705Y94064D02*
G01X73447Y94064D01*
G01X48967Y94288D02*
G01X68192Y94288D01*
G01X69208Y93272D01*
G01X71913Y93272D01*
G01X72705Y94064D01*
G01X99193Y91514D02*
G01X75995Y91514D01*
G01X73447Y94064D01*
G01X57885Y76635D02*
G01X55184Y73935D01*
G01X37775Y88222D02*
G01X38568Y87430D01*
G01X55106Y87430D01*
G01X57521Y89846D01*
G01X64346Y89846D01*
G01X64811Y89381D01*
G01X64811Y87938D01*
G01X63069Y86196D01*
G01X63069Y78182D01*
G01X61138Y76251D01*
G01X58268Y76251D01*
G01X57885Y76635D01*
G01X57885Y76635D02*
G01X57641Y76879D01*
G01X57641Y77364D01*
G01X38083Y86655D02*
G01X37956Y86782D01*
G01X16797Y86782D01*
G01X10514Y93066D01*
G01X9157Y93066D02*
G01X10514Y93066D01*
G01X67963Y49927D02*
G01X50689Y49927D01*
G01X50676Y49942D01*
G01X74778Y48144D02*
G01X74778Y47207D01*
G01X72162Y44588D01*
G01X70419Y44588D01*
G01X64120Y38289D01*
G01X64120Y37834D01*
G01X54054Y27768D01*
G01X54054Y22375D01*
G01X53610Y21928D01*
G01X51113Y21928D01*
G01X48596Y19411D01*
G01X47244Y19411D01*
G01X44080Y16249D01*
G01X44080Y15794D01*
G01X41303Y13018D01*
G01X20417Y13018D01*
G01X16137Y8738D01*
G01X13821Y8738D01*
G01X91748Y97857D02*
G01X90673Y96780D01*
G01X87943Y96780D01*
G01X75926Y49571D02*
G01X74839Y49571D01*
G01X74280Y49012D01*
G01X74280Y48144D01*
G01X93104Y97857D02*
G01X91748Y97857D01*
G01X97641Y13529D02*
G01X75390Y13529D01*
G01X69779Y48144D02*
G01X69165Y48144D01*
G01X46028Y54263D02*
G01X46909Y54263D01*
G01X47011Y54161D01*
G01X72779Y48144D02*
G01X72779Y46010D01*
G01X71677Y44910D01*
G01X49403Y44910D01*
G01X47493Y54161D02*
G01X47493Y53170D01*
G01X48255Y52408D01*
G01X71778Y48144D02*
G01X71778Y47328D01*
G01X70585Y46135D01*
G01X52063Y46135D01*
G01X50188Y48007D01*
G01X49439Y48380D02*
G01X48509Y49310D01*
G01X48509Y50148D01*
G01X37905Y82888D02*
G01X37161Y82888D01*
G01X37161Y82888D02*
G01X34567Y80293D01*
G01X75814Y67902D02*
G01X75393Y67902D01*
G01X75393Y67902D02*
G01X74971Y67902D01*
G01X75393Y67902D02*
G01X75814Y68324D01*
G01X75814Y75522D01*
G01X15042Y19515D02*
G01X15842Y18715D01*
G01X44229Y18715D01*
G01X63574Y38060D01*
G01X69543Y62126D02*
G01X71778Y62126D01*
G01X71778Y62126D01*
G01X74971Y67902D02*
G01X71778Y64710D01*
G01X71778Y62126D01*
G01X71778Y62126D02*
G01X71778Y59244D01*
G01X22662Y20023D02*
G01X22662Y24829D01*
G01X26620Y28786D01*
G01X22413Y42883D02*
G01X23155Y42883D01*
G01X48573Y40724D02*
G01X47829Y40724D01*
G01X32949Y42121D02*
G01X23917Y42121D01*
G01X23155Y42883D01*
G01X42225Y30056D02*
G01X42225Y35119D01*
G01X47829Y40724D01*
G01X72766Y75522D02*
G01X73610Y75522D01*
G01X72766Y75522D02*
G01X72766Y67902D01*
G01X72766Y67902D02*
G01X71923Y67902D01*
G01X73610Y75522D02*
G01X76208Y78121D01*
G01X93345Y78121D01*
G01X94422Y77046D01*
G01X32949Y42121D02*
G01X33742Y42914D01*
G01X34859Y42914D01*
G01X69215Y57123D02*
G01X68911Y57427D01*
G01X67963Y57427D01*
G01X27364Y28786D02*
G01X26990Y28786D01*
G01X26990Y28786D02*
G01X26620Y28786D01*
G01X26990Y28786D02*
G01X29053Y30849D01*
G01X41433Y30849D01*
G01X42225Y30056D01*
G01X77277Y29675D02*
G01X77648Y29675D01*
G01X78982Y24540D02*
G01X70828Y16386D01*
G01X59353Y16386D01*
G01X58451Y17288D01*
G01X58451Y18197D01*
G01X58400Y18245D01*
G01X49439Y18245D01*
G01X49078Y17885D01*
G01X77648Y29675D02*
G01X78982Y28339D01*
G01X78982Y24540D01*
G01X78982Y24540D02*
G01X81976Y21547D01*
G01X34859Y42914D02*
G01X45639Y42914D01*
G01X45639Y42914D02*
G01X47829Y40724D01*
G01X69215Y57123D02*
G01X69215Y51715D01*
G01X69215Y51715D02*
G01X68931Y51428D01*
G01X67963Y51428D01*
G01X77280Y48144D02*
G01X77280Y49094D01*
G01X74659Y51715D01*
G01X69215Y51715D01*
G01X34859Y42914D02*
G01X34859Y53170D01*
G01X67963Y51428D02*
G01X51839Y51428D01*
G01X51321Y50910D01*
G01X50262Y50910D01*
G01X79063Y57427D02*
G01X78951Y57316D01*
G01X71151Y57316D01*
G01X70958Y57123D01*
G01X70958Y57123D02*
G01X69215Y57123D01*
G01X77648Y29675D02*
G01X76599Y28626D01*
G01X75946Y28626D01*
G01X45639Y42914D02*
G01X48260Y45535D01*
G01X71451Y45456D02*
G01X48339Y45456D01*
G01X48260Y45535D01*
G01X48260Y45535D02*
G01X47493Y46302D01*
G01X47493Y50148D01*
G01X71923Y67902D02*
G01X70958Y66937D01*
G01X69779Y59244D02*
G01X68829Y60194D01*
G01X68829Y64809D01*
G01X70958Y66937D01*
G01X48001Y54804D02*
G01X45670Y54804D01*
G01X45164Y54298D01*
G01X34585Y54298D01*
G01X33457Y53170D01*
G01X48001Y54402D02*
G01X48001Y54161D01*
G01X48001Y54402D02*
G01X48001Y54603D01*
G01X48001Y54603D02*
G01X48001Y54804D01*
G01X48001Y54603D02*
G01X48321Y54921D01*
G01X51222Y54921D01*
G01X71278Y48144D02*
G01X71278Y47306D01*
G01X70430Y46457D01*
G01X52904Y46457D01*
G01X51222Y48139D01*
G01X78669Y40851D02*
G01X77928Y40851D01*
G01X80186Y48573D02*
G01X89957Y48573D01*
G01X95403Y54019D01*
G01X96137Y54019D02*
G01X95403Y54019D01*
G01X95403Y54019D01*
G01X77928Y41258D02*
G01X79685Y43016D01*
G01X80186Y43016D01*
G01X77928Y40851D02*
G01X77928Y41258D01*
G01X77928Y41258D02*
G01X76399Y42787D01*
G01X69144Y42787D01*
G01X64443Y38085D01*
G01X64443Y22942D01*
G01X59746Y18243D01*
G01X59746Y17377D02*
G01X59746Y18243D01*
G01X17737Y57361D02*
G01X17798Y57361D01*
G01X17737Y57361D02*
G01X17191Y57361D01*
G01X18283Y57361D02*
G01X17798Y57361D01*
G01X16444Y19515D02*
G01X17186Y19515D01*
G01X75875Y29675D02*
G01X75504Y29675D01*
G01X71303Y94064D02*
G01X78690Y101448D01*
G01X89513Y101448D01*
G01X96922Y57760D02*
G01X96645Y57483D01*
G01X96645Y56620D01*
G01X100433Y53646D02*
G01X100100Y53646D01*
G01X100099Y53645D01*
G01X99370Y52919D02*
G01X100099Y53645D01*
G01X100958Y57969D02*
G01X100699Y57969D01*
G01X100130Y58535D01*
G01X100130Y58535D02*
G01X97697Y58535D01*
G01X96922Y57760D01*
G01X100449Y56925D02*
G01X100449Y57460D01*
G01X100958Y57968D01*
G01X96172Y68283D02*
G01X96172Y69020D01*
G01X88433Y64854D02*
G01X91862Y68283D01*
G01X96172Y68283D01*
G01X87691Y64854D02*
G01X88433Y64854D01*
G01X70851Y32850D02*
G01X72329Y32850D01*
G01X75504Y29675D01*
G01X100130Y58535D02*
G01X100036Y58535D01*
G01X99622Y58949D01*
G01X96807Y47201D02*
G01X96807Y46465D01*
G01X100000Y51710D02*
G01X99622Y51710D01*
G01X99370Y52919D02*
G01X99370Y52337D01*
G01X100000Y51710D01*
G01X24806Y20023D02*
G01X24806Y24829D01*
G01X28763Y28786D01*
G01X24064Y20023D02*
G01X24806Y20023D01*
G01X53666Y72601D02*
G01X53130Y72601D01*
G01X52566Y73165D01*
G01X52566Y73630D01*
G01X53137Y74199D01*
G01X53137Y74199D02*
G01X53666Y74199D01*
G01X70851Y32850D02*
G01X70851Y38281D01*
G01X28763Y28786D02*
G01X29505Y28786D01*
G01X70851Y38281D02*
G01X89693Y38281D01*
G01X90485Y39073D01*
G01X98974Y46465D02*
G01X98974Y42995D01*
G01X95052Y39073D01*
G01X90485Y39073D01*
G01X100000Y51710D02*
G01X100000Y47179D01*
G01X99284Y46465D01*
G01X98974Y46465D01*
G01X98974Y46465D02*
G01X96807Y46465D01*
G01X99622Y58949D02*
G01X99622Y68037D01*
G01X98639Y69020D01*
G01X98639Y69020D02*
G01X96172Y69020D01*
G01X96426Y73216D02*
G01X98870Y73216D01*
G01X98918Y73170D01*
G01X98918Y69299D01*
G01X98639Y69020D01*
G01X93020Y77046D02*
G01X96426Y73640D01*
G01X96426Y73216D01*
G01X96426Y73216D02*
G01X96426Y72474D01*
G01X45225Y15832D02*
G01X46409Y17016D01*
G01X47178Y17016D01*
G01X47178Y17885D02*
G01X47178Y17016D01*
G01X93020Y77046D02*
G01X92279Y77046D01*
G01X92279Y77046D02*
G01X91750Y77575D01*
G01X89513Y77575D01*
G01X17412Y5147D02*
G01X21931Y9665D01*
G01X48072Y9665D01*
G01X50668Y7069D01*
G01X52634Y81491D02*
G01X51893Y81491D01*
G01X51583Y81179D02*
G01X51583Y75754D01*
G01X53137Y74199D01*
G01X51583Y81179D02*
G01X51893Y81491D01*
G01X40823Y30056D02*
G01X40823Y29660D01*
G01X49972Y40724D02*
G01X49972Y36315D01*
G01X42921Y29264D01*
G01X41220Y29264D01*
G01X40823Y29660D01*
G01X70851Y38281D02*
G01X69779Y39353D01*
G01X69779Y41994D01*
G01X62403Y73389D02*
G01X62980Y73389D01*
G01X63846Y72523D01*
G01X63846Y60549D01*
G01X99370Y52919D02*
G01X96922Y52919D01*
G01X96922Y52919D01*
G01X51583Y81179D02*
G01X49873Y82888D01*
G01X39304Y82888D01*
G01X16058Y39073D02*
G01X15317Y39073D01*
G01X15317Y57361D02*
G01X15317Y39073D01*
G01X17191Y57361D02*
G01X15317Y57361D01*
G01X15317Y57361D02*
G01X12820Y57361D01*
G01X11169Y59012D01*
G01X7615Y59012D01*
G01X17186Y19515D02*
G01X18977Y19515D01*
G01X18977Y19515D02*
G01X19261Y19231D01*
G01X23272Y19231D01*
G01X24064Y20023D01*
G01X43531Y16020D02*
G01X33043Y16020D01*
G01X32538Y15517D01*
G01X31745Y15517D02*
G01X32538Y15517D01*
G01X40823Y29660D02*
G01X30379Y29660D01*
G01X29505Y28786D01*
G01X34351Y42121D02*
G01X30508Y38278D01*
G01X18977Y38278D01*
G01X18977Y38278D02*
G01X16853Y38278D01*
G01X16058Y39073D01*
G01X37272Y78189D02*
G01X38014Y78189D01*
G01X82726Y20755D02*
G01X82726Y25672D01*
G01X77928Y30468D01*
G01X76668Y30468D01*
G01X75875Y29675D01*
G01X82726Y20755D02*
G01X81369Y20755D01*
G01X80574Y21547D01*
G01X38014Y78189D02*
G01X38014Y79040D01*
G01X38014Y79040D02*
G01X38014Y81598D01*
G01X39304Y82888D01*
G01X82726Y20755D02*
G01X97597Y20755D01*
G01X101232Y17120D01*
G01X63846Y60549D02*
G01X61476Y60549D01*
G01X60983Y60056D01*
G01X60983Y56780D01*
G01X50262Y53399D02*
G01X57600Y53399D01*
G01X60983Y56780D01*
G01X60983Y56780D02*
G01X65835Y51928D01*
G01X67963Y51928D01*
G01X62860Y58758D02*
G01X63902Y58758D01*
G01X64389Y58758D02*
G01X63902Y58758D01*
G01X64389Y58758D02*
G01X64389Y60369D01*
G01X64207Y60549D01*
G01X63846Y60549D01*
G01X28144Y61860D02*
G01X29325Y61860D01*
G01X30287Y62822D01*
G01X38014Y79040D02*
G01X35210Y79040D01*
G01X28144Y71974D01*
G01X28144Y61860D01*
G01X28144Y61860D02*
G01X22297Y61860D01*
G01X17798Y57361D01*
G01X49017Y50148D02*
G01X49017Y52797D01*
G01X49619Y53399D01*
G01X50262Y53399D01*
G01X70280Y59244D02*
G01X70280Y57961D01*
G01X64389Y58758D02*
G01X65187Y57961D01*
G01X70280Y57961D01*
G01X87691Y64854D02*
G01X86899Y65647D01*
G01X85659Y65647D01*
G01X85395Y65380D01*
G01X85395Y65284D01*
G01X77750Y57638D01*
G01X73185Y57638D01*
G01X72863Y57961D01*
G01X70280Y57961D01*
G01X70280Y48144D02*
G01X70280Y47313D01*
G01X69812Y46846D01*
G01X69457Y46846D01*
G01X67374Y48929D01*
G01X49459Y48929D01*
G01X49017Y49371D01*
G01X49017Y50148D01*
G01X62403Y73389D02*
G01X62403Y73389D01*
G01X54958Y73389D01*
G01X54148Y74199D01*
G01X53666Y74199D01*
G01X10315Y76579D02*
G01X7717Y76579D01*
G01X6914Y75776D01*
G54D13*
G01X55240Y77964D02*
G01X55240Y76764D01*
G01X56040Y77964D02*
G01X56040Y76764D01*
G01X56841Y77964D02*
G01X56841Y76764D01*
G01X57641Y77964D02*
G01X57641Y76764D01*
G01X58438Y77964D02*
G01X58438Y76764D01*
G01X59238Y77964D02*
G01X59238Y76764D01*
G01X60038Y77964D02*
G01X60038Y76764D01*
G01X60839Y77964D02*
G01X60839Y76764D01*
G01X61803Y75789D02*
G01X63003Y75789D01*
G01X61803Y74989D02*
G01X63003Y74989D01*
G01X61803Y74189D02*
G01X63003Y74189D01*
G01X61803Y73389D02*
G01X63003Y73389D01*
G01X61803Y72591D02*
G01X63003Y72591D01*
G01X61803Y71791D02*
G01X63003Y71791D01*
G01X61803Y70991D02*
G01X63003Y70991D01*
G01X61803Y70191D02*
G01X63003Y70191D01*
G01X60828Y69201D02*
G01X60828Y68001D01*
G01X60028Y69201D02*
G01X60028Y68001D01*
G01X59228Y69201D02*
G01X59228Y68001D01*
G01X58428Y69201D02*
G01X58428Y68001D01*
G01X57631Y69201D02*
G01X57631Y68001D01*
G01X56830Y69201D02*
G01X56830Y68001D01*
G01X56030Y69201D02*
G01X56030Y68001D01*
G01X55230Y69201D02*
G01X55230Y68001D01*
G01X53066Y70201D02*
G01X54266Y70201D01*
G01X53066Y71001D02*
G01X54266Y71001D01*
G01X53066Y71801D02*
G01X54266Y71801D01*
G01X53066Y72601D02*
G01X54266Y72601D01*
G01X53066Y73399D02*
G01X54266Y73399D01*
G01X53066Y74199D02*
G01X54266Y74199D01*
G01X53066Y74999D02*
G01X54266Y74999D01*
G01X53066Y75799D02*
G01X54266Y75799D01*
G54D14*
G01X69778Y59988D02*
G01X69778Y58468D01*
G01X70278Y59988D02*
G01X70278Y58468D01*
G01X70778Y59988D02*
G01X70778Y58468D01*
G01X71278Y59988D02*
G01X71278Y58468D01*
G01X71778Y59988D02*
G01X71778Y58468D01*
G01X72278Y59988D02*
G01X72278Y58468D01*
G01X72778Y59988D02*
G01X72778Y58468D01*
G01X73278Y59988D02*
G01X73278Y58468D01*
G01X73778Y59988D02*
G01X73778Y58468D01*
G01X74278Y59988D02*
G01X74278Y58468D01*
G01X74778Y59988D02*
G01X74778Y58468D01*
G01X75278Y59988D02*
G01X75278Y58468D01*
G01X75778Y59988D02*
G01X75778Y58468D01*
G01X76278Y59988D02*
G01X76278Y58468D01*
G01X76778Y59988D02*
G01X76778Y58468D01*
G01X77278Y59988D02*
G01X77278Y58468D01*
G01X78318Y57429D02*
G01X79838Y57429D01*
G01X78318Y56928D02*
G01X79838Y56928D01*
G01X78318Y56429D02*
G01X79838Y56429D01*
G01X78318Y55928D02*
G01X79838Y55928D01*
G01X78318Y55429D02*
G01X79838Y55429D01*
G01X78318Y54928D02*
G01X79838Y54928D01*
G01X78318Y54429D02*
G01X79838Y54429D01*
G01X78318Y53928D02*
G01X79838Y53928D01*
G01X78318Y53429D02*
G01X79838Y53429D01*
G01X78318Y52928D02*
G01X79838Y52928D01*
G01X78318Y52429D02*
G01X79838Y52429D01*
G01X78318Y51928D02*
G01X79838Y51928D01*
G01X78318Y51429D02*
G01X79838Y51429D01*
G01X78318Y50928D02*
G01X79838Y50928D01*
G01X78318Y50429D02*
G01X79838Y50429D01*
G01X78318Y49928D02*
G01X79838Y49928D01*
G01X77278Y48889D02*
G01X77278Y47369D01*
G01X76778Y48889D02*
G01X76778Y47369D01*
G01X76278Y48889D02*
G01X76278Y47369D01*
G01X75778Y48889D02*
G01X75778Y47369D01*
G01X75278Y48889D02*
G01X75278Y47369D01*
G01X74778Y48889D02*
G01X74778Y47369D01*
G01X74278Y48889D02*
G01X74278Y47369D01*
G01X73778Y48889D02*
G01X73778Y47369D01*
G01X73278Y48889D02*
G01X73278Y47369D01*
G01X72778Y48889D02*
G01X72778Y47369D01*
G01X72278Y48889D02*
G01X72278Y47369D01*
G01X71778Y48889D02*
G01X71778Y47369D01*
G01X71278Y48889D02*
G01X71278Y47369D01*
G01X70778Y48889D02*
G01X70778Y47369D01*
G01X70278Y48889D02*
G01X70278Y47369D01*
G01X69778Y48889D02*
G01X69778Y47369D01*
G01X67218Y49928D02*
G01X68738Y49928D01*
G01X67218Y50429D02*
G01X68738Y50429D01*
G01X67218Y50928D02*
G01X68738Y50928D01*
G01X67218Y51429D02*
G01X68738Y51429D01*
G01X67218Y51928D02*
G01X68738Y51928D01*
G01X67218Y52429D02*
G01X68738Y52429D01*
G01X67218Y52928D02*
G01X68738Y52928D01*
G01X67218Y53429D02*
G01X68738Y53429D01*
G01X67218Y53928D02*
G01X68738Y53928D01*
G01X67218Y54429D02*
G01X68738Y54429D01*
G01X67218Y54928D02*
G01X68738Y54928D01*
G01X67218Y55429D02*
G01X68738Y55429D01*
G01X67218Y55928D02*
G01X68738Y55928D01*
G01X67218Y56429D02*
G01X68738Y56429D01*
G01X67218Y56928D02*
G01X68738Y56928D01*
G01X67218Y57429D02*
G01X68738Y57429D01*
G36*
G01X61610Y60207D02*
G01X64110Y60207D01*
G01X64110Y59707D01*
G01X61610Y59707D01*
G01X61610Y60207D01*
G37*
G36*
G01X62060Y59008D02*
G01X63660Y59008D01*
G01X63660Y58509D01*
G01X62060Y58509D01*
G01X62060Y59008D01*
G37*
G36*
G01X61610Y57810D02*
G01X64110Y57810D01*
G01X64110Y57310D01*
G01X61610Y57310D01*
G01X61610Y57810D01*
G37*
G36*
G01X78170Y41401D02*
G01X79170Y41401D01*
G01X79170Y40301D01*
G01X78170Y40301D01*
G01X78170Y41401D01*
G37*
G36*
G01X79570Y41401D02*
G01X80570Y41401D01*
G01X80570Y40301D01*
G01X79570Y40301D01*
G01X79570Y41401D01*
G37*
G36*
G01X32958Y53720D02*
G01X33958Y53720D01*
G01X33958Y52620D01*
G01X32958Y52620D01*
G01X32958Y53720D01*
G37*
G36*
G01X34358Y53720D02*
G01X35358Y53720D01*
G01X35358Y52620D01*
G01X34358Y52620D01*
G01X34358Y53720D01*
G37*
G36*
G01X14543Y20065D02*
G01X15543Y20065D01*
G01X15543Y18965D01*
G01X14543Y18965D01*
G01X14543Y20065D01*
G37*
G36*
G01X15943Y20065D02*
G01X16943Y20065D01*
G01X16943Y18965D01*
G01X15943Y18965D01*
G01X15943Y20065D01*
G37*
G36*
G01X69280Y42544D02*
G01X70280Y42544D01*
G01X70280Y41444D01*
G01X69280Y41444D01*
G01X69280Y42544D01*
G37*
G36*
G01X70680Y42544D02*
G01X71680Y42544D01*
G01X71680Y41444D01*
G01X70680Y41444D01*
G01X70680Y42544D01*
G37*
G54D19*
G01X90484Y54313D03*
G01X89085Y54313D03*
G01X90484Y56599D03*
G01X89085Y56599D03*
G36*
G01X88584Y39623D02*
G01X89584Y39623D01*
G01X89584Y38523D01*
G01X88584Y38523D01*
G01X88584Y39623D01*
G37*
G36*
G01X89984Y39623D02*
G01X90984Y39623D01*
G01X90984Y38523D01*
G01X89984Y38523D01*
G01X89984Y39623D01*
G37*
G36*
G01X85790Y65404D02*
G01X86790Y65404D01*
G01X86790Y64304D01*
G01X85790Y64304D01*
G01X85790Y65404D01*
G37*
G36*
G01X87190Y65404D02*
G01X88190Y65404D01*
G01X88190Y64304D01*
G01X87190Y64304D01*
G01X87190Y65404D01*
G37*
G01X49971Y40724D03*
G01X48572Y40724D03*
G36*
G01X92521Y77596D02*
G01X93521Y77596D01*
G01X93521Y76496D01*
G01X92521Y76496D01*
G01X92521Y77596D01*
G37*
G36*
G01X93921Y77596D02*
G01X94921Y77596D01*
G01X94921Y76496D01*
G01X93921Y76496D01*
G01X93921Y77596D01*
G37*
G36*
G01X40324Y30606D02*
G01X41324Y30606D01*
G01X41324Y29506D01*
G01X40324Y29506D01*
G01X40324Y30606D01*
G37*
G36*
G01X41724Y30606D02*
G01X42724Y30606D01*
G01X42724Y29506D01*
G01X41724Y29506D01*
G01X41724Y30606D01*
G37*
G36*
G01X80075Y22097D02*
G01X81075Y22097D01*
G01X81075Y20997D01*
G01X80075Y20997D01*
G01X80075Y22097D01*
G37*
G36*
G01X81475Y22097D02*
G01X82475Y22097D01*
G01X82475Y20997D01*
G01X81475Y20997D01*
G01X81475Y22097D01*
G37*
G01X28762Y28786D03*
G01X27363Y28786D03*
G36*
G01X95137Y56844D02*
G01X97137Y56844D01*
G01X97137Y56394D01*
G01X95137Y56394D01*
G01X95137Y56844D01*
G37*
G36*
G01X95137Y56194D02*
G01X97137Y56194D01*
G01X97137Y55744D01*
G01X95137Y55744D01*
G01X95137Y56194D01*
G37*
G36*
G01X95137Y55544D02*
G01X97137Y55544D01*
G01X97137Y55094D01*
G01X95137Y55094D01*
G01X95137Y55544D01*
G37*
G36*
G01X95137Y54894D02*
G01X97137Y54894D01*
G01X97137Y54444D01*
G01X95137Y54444D01*
G01X95137Y54894D01*
G37*
G36*
G01X95137Y54244D02*
G01X97137Y54244D01*
G01X97137Y53794D01*
G01X95137Y53794D01*
G01X95137Y54244D01*
G37*
G54D21*
G01X100449Y56925D03*
G01X100433Y53646D03*
G54D22*
G01X46249Y53399D03*
G01X46249Y52916D03*
G01X46249Y52408D03*
G01X46249Y51900D03*
G01X46249Y51392D03*
G01X46249Y50910D03*
G54D23*
G01X47011Y50148D03*
G01X47493Y50148D03*
G01X48001Y50148D03*
G01X48509Y50148D03*
G01X49017Y50148D03*
G01X49500Y50148D03*
G36*
G01X49862Y51060D02*
G01X50662Y51060D01*
G01X50662Y50760D01*
G01X49862Y50760D01*
G01X49862Y51060D01*
G37*
G36*
G01X49862Y51542D02*
G01X50662Y51542D01*
G01X50662Y51243D01*
G01X49862Y51243D01*
G01X49862Y51542D01*
G37*
G36*
G01X49862Y52050D02*
G01X50662Y52050D01*
G01X50662Y51751D01*
G01X49862Y51751D01*
G01X49862Y52050D01*
G37*
G36*
G01X49862Y52558D02*
G01X50662Y52558D01*
G01X50662Y52259D01*
G01X49862Y52259D01*
G01X49862Y52558D01*
G37*
G36*
G01X49862Y53066D02*
G01X50662Y53066D01*
G01X50662Y52767D01*
G01X49862Y52767D01*
G01X49862Y53066D01*
G37*
G36*
G01X49862Y53549D02*
G01X50662Y53549D01*
G01X50662Y53249D01*
G01X49862Y53249D01*
G01X49862Y53549D01*
G37*
G01X49500Y54161D03*
G01X49017Y54161D03*
G01X48509Y54161D03*
G01X48001Y54161D03*
G01X47493Y54161D03*
G01X47011Y54161D03*
G54D19*
G01X39303Y82888D03*
G01X37904Y82888D03*
G01X22412Y42883D03*
G01X21013Y42883D03*
G36*
G01X15559Y39623D02*
G01X16559Y39623D01*
G01X16559Y38523D01*
G01X15559Y38523D01*
G01X15559Y39623D01*
G37*
G36*
G01X16959Y39623D02*
G01X17959Y39623D01*
G01X17959Y38523D01*
G01X16959Y38523D01*
G01X16959Y39623D01*
G37*
G36*
G01X32450Y42671D02*
G01X33450Y42671D01*
G01X33450Y41571D01*
G01X32450Y41571D01*
G01X32450Y42671D01*
G37*
G36*
G01X33850Y42671D02*
G01X34850Y42671D01*
G01X34850Y41571D01*
G01X33850Y41571D01*
G01X33850Y42671D01*
G37*
G54D24*
G01X46223Y67978D03*
G01X46223Y77479D03*
G36*
G01X35371Y78739D02*
G01X36371Y78739D01*
G01X36371Y77639D01*
G01X35371Y77639D01*
G01X35371Y78739D01*
G37*
G36*
G01X36771Y78739D02*
G01X37771Y78739D01*
G01X37771Y77639D01*
G01X36771Y77639D01*
G01X36771Y78739D01*
G37*
G36*
G01X28386Y63372D02*
G01X29386Y63372D01*
G01X29386Y62272D01*
G01X28386Y62272D01*
G01X28386Y63372D01*
G37*
G36*
G01X29786Y63372D02*
G01X30786Y63372D01*
G01X30786Y62272D01*
G01X29786Y62272D01*
G01X29786Y63372D01*
G37*
G54D25*
G01X31745Y15516D03*
G01X31745Y14116D03*
G36*
G01X70804Y94614D02*
G01X71804Y94614D01*
G01X71804Y93514D01*
G01X70804Y93514D01*
G01X70804Y94614D01*
G37*
G36*
G01X72204Y94614D02*
G01X73204Y94614D01*
G01X73204Y93514D01*
G01X72204Y93514D01*
G01X72204Y94614D01*
G37*
G36*
G01X6415Y76326D02*
G01X7415Y76326D01*
G01X7415Y75226D01*
G01X6415Y75226D01*
G01X6415Y76326D01*
G37*
G36*
G01X7815Y76326D02*
G01X8815Y76326D01*
G01X8815Y75226D01*
G01X7815Y75226D01*
G01X7815Y76326D01*
G37*
G36*
G01X37276Y88772D02*
G01X38276Y88772D01*
G01X38276Y87672D01*
G01X37276Y87672D01*
G01X37276Y88772D01*
G37*
G36*
G01X38676Y88772D02*
G01X39676Y88772D01*
G01X39676Y87672D01*
G01X38676Y87672D01*
G01X38676Y88772D01*
G37*
G54D26*
G01X48128Y20384D03*
G01X49078Y17885D03*
G01X47178Y17885D03*
G36*
G01X75376Y30225D02*
G01X76376Y30225D01*
G01X76376Y29125D01*
G01X75376Y29125D01*
G01X75376Y30225D01*
G37*
G36*
G01X76776Y30225D02*
G01X77776Y30225D01*
G01X77776Y29125D01*
G01X76776Y29125D01*
G01X76776Y30225D01*
G37*
G36*
G01X22163Y20573D02*
G01X23163Y20573D01*
G01X23163Y19473D01*
G01X22163Y19473D01*
G01X22163Y20573D01*
G37*
G36*
G01X23563Y20573D02*
G01X24563Y20573D01*
G01X24563Y19473D01*
G01X23563Y19473D01*
G01X23563Y20573D01*
G37*
G36*
G01X70677Y79374D02*
G01X71677Y79374D01*
G01X71677Y78274D01*
G01X70677Y78274D01*
G01X70677Y79374D01*
G37*
G36*
G01X72077Y79374D02*
G01X73077Y79374D01*
G01X73077Y78274D01*
G01X72077Y78274D01*
G01X72077Y79374D01*
G37*
G36*
G01X63311Y85597D02*
G01X64311Y85597D01*
G01X64311Y84497D01*
G01X63311Y84497D01*
G01X63311Y85597D01*
G37*
G36*
G01X64711Y85597D02*
G01X65711Y85597D01*
G01X65711Y84497D01*
G01X64711Y84497D01*
G01X64711Y85597D01*
G37*
G36*
G01X62168Y89280D02*
G01X63168Y89280D01*
G01X63168Y88180D01*
G01X62168Y88180D01*
G01X62168Y89280D01*
G37*
G36*
G01X63568Y89280D02*
G01X64568Y89280D01*
G01X64568Y88180D01*
G01X63568Y88180D01*
G01X63568Y89280D01*
G37*
G01X58796Y19876D03*
G01X59746Y17377D03*
G01X57846Y17377D03*
G01X53462Y23178D03*
G01X54412Y20679D03*
G01X52512Y20679D03*
G36*
G01X58866Y81660D02*
G01X59866Y81660D01*
G01X59866Y80560D01*
G01X58866Y80560D01*
G01X58866Y81660D01*
G37*
G36*
G01X60266Y81660D02*
G01X61266Y81660D01*
G01X61266Y80560D01*
G01X60266Y80560D01*
G01X60266Y81660D01*
G37*
G36*
G01X52135Y82041D02*
G01X53135Y82041D01*
G01X53135Y80941D01*
G01X52135Y80941D01*
G01X52135Y82041D01*
G37*
G36*
G01X53535Y82041D02*
G01X54535Y82041D01*
G01X54535Y80941D01*
G01X53535Y80941D01*
G01X53535Y82041D01*
G37*
G36*
G01X90616Y72262D02*
G01X91616Y72262D01*
G01X91616Y71162D01*
G01X90616Y71162D01*
G01X90616Y72262D01*
G37*
G36*
G01X92016Y72262D02*
G01X93016Y72262D01*
G01X93016Y71162D01*
G01X92016Y71162D01*
G01X92016Y72262D01*
G37*
G36*
G01X95061Y64896D02*
G01X96061Y64896D01*
G01X96061Y63796D01*
G01X95061Y63796D01*
G01X95061Y64896D01*
G37*
G36*
G01X96461Y64896D02*
G01X97461Y64896D01*
G01X97461Y63796D01*
G01X96461Y63796D01*
G01X96461Y64896D01*
G37*
G54D27*
G01X98128Y72474D03*
G01X96426Y72474D03*
G01X97874Y68283D03*
G01X96172Y68283D03*
G36*
G01X96204Y44068D02*
G01X97204Y44068D01*
G01X97204Y42968D01*
G01X96204Y42968D01*
G01X96204Y44068D01*
G37*
G36*
G01X97604Y44068D02*
G01X98604Y44068D01*
G01X98604Y42968D01*
G01X97604Y42968D01*
G01X97604Y44068D01*
G37*
G01X98509Y47201D03*
G01X96807Y47201D03*
G54D28*
G01X75814Y75522D03*
G01X72766Y75522D03*
G01X75814Y67902D03*
G01X72766Y67902D03*
G54D29*
G01X96922Y52919D03*
G01X96922Y57760D03*
G54D30*
G01X101232Y17120D03*
G01X99436Y15324D03*
G36*
G01X96527Y13528D02*
G01X97640Y14642D01*
G01X98754Y13528D01*
G01X97640Y12415D01*
G01X96527Y13528D01*
G37*
G01X89512Y101448D03*
G01X91308Y99652D03*
G36*
G01X93104Y96743D02*
G01X91991Y97856D01*
G01X93104Y98970D01*
G01X94218Y97856D01*
G01X93104Y96743D01*
G37*
G01X17412Y5146D03*
G01X15616Y6942D03*
G36*
G01X13820Y9852D02*
G01X14934Y8739D01*
G01X13820Y7625D01*
G01X12707Y8739D01*
G01X13820Y9852D01*
G37*
G01X5565Y89474D03*
G01X7361Y91270D03*
G36*
G01X10271Y93067D02*
G01X9157Y91953D01*
G01X8044Y93067D01*
G01X9157Y94180D01*
G01X10271Y93067D01*
G37*
G54D32*
G01X18283Y57361D03*
G54D33*
G01X20823Y57361D03*
G01X18283Y54821D03*
G01X20823Y54821D03*
G01X18283Y52281D03*
G01X20823Y52281D03*
G01X18283Y49741D03*
G01X20823Y49741D03*
G54D34*
G01X50668Y7069D03*
G01X50668Y9609D03*
G01X53208Y7069D03*
G01X53208Y9609D03*
G01X55748Y7069D03*
G54D35*
G01X55748Y9609D03*
G36*
G01X100987Y88447D02*
G01X99715Y89719D01*
G01X100987Y90992D01*
G01X102260Y89719D01*
G01X100987Y88447D01*
G37*
G54D37*
G01X99192Y91515D03*
G01X97395Y93311D03*
G01X95599Y95108D03*
G36*
G01X18567Y101077D02*
G01X17294Y99804D01*
G01X16022Y101077D01*
G01X17294Y102349D01*
G01X18567Y101077D01*
G37*
G01X15499Y99281D03*
G01X13702Y97484D03*
G01X11906Y95688D03*
G36*
G01X5429Y18783D02*
G01X6702Y17511D01*
G01X5429Y16238D01*
G01X4157Y17511D01*
G01X5429Y18783D01*
G37*
G01X7225Y15714D03*
G01X9022Y13918D03*
G01X10818Y12122D03*
G36*
G01X88358Y5645D02*
G01X89630Y6918D01*
G01X90903Y5645D01*
G01X89630Y4373D01*
G01X88358Y5645D01*
G37*
G01X91426Y7441D03*
G01X93223Y9237D03*
G01X95019Y11034D03*
G54D32*
G01X7615Y59012D03*
G54D33*
G01X7615Y56472D03*
G01X7615Y53932D03*
G01X7615Y51392D03*
G01X7615Y48852D03*
G54D38*
G01X63252Y32850D03*
G01X70851Y32850D03*
G54D15*
G01X10315Y76579D03*
G01X18977Y38278D03*
G01X43531Y16020D03*
G01X18977Y19515D03*
G01X89513Y77575D03*
G01X45225Y15832D03*
G01X80186Y48573D03*
G01X80186Y43016D03*
G01X51222Y48139D03*
G01X51222Y54921D03*
G01X71451Y45456D03*
G01X75946Y28626D03*
G01X70958Y57123D03*
G01X70958Y66937D03*
G01X69543Y62126D03*
G01X63574Y38060D03*
G01X49439Y48380D03*
G01X34567Y80293D03*
G01X48255Y52408D03*
G01X50188Y48007D03*
G01X46028Y54263D03*
G01X49403Y44910D03*
G01X75390Y13529D03*
G01X69165Y48144D03*
G01X75926Y49571D03*
G01X87943Y96780D03*
G01X38083Y86655D03*
G01X50676Y49942D03*
G01X55184Y73935D03*
G01X48967Y94288D03*
G01X48967Y88631D03*
G01X20737Y75789D03*
G01X92136Y42800D03*
G01X89881Y42800D03*
G01X52060Y71865D03*
G01X52060Y24044D03*
G01X63300Y69178D03*
G01X70379Y53427D03*
G01X55634Y67275D03*
G01X70168Y77781D03*
G01X90145Y93310D03*
G01X76190Y93310D03*
G01X72408Y87260D03*
G01X20150Y94959D03*
G01X13970Y13917D03*
G01X63528Y87443D03*
G01X76863Y95108D03*
G01X13386Y12122D03*
G01X11761Y59193D03*
G01X57115Y14832D03*
G01X58464Y15324D03*
G01X80013Y42055D03*
G01X73541Y46742D03*
G01X84847Y65510D03*
G01X88712Y64346D03*
G54D16*
G01X10409Y57234D03*
G01X10409Y61044D03*
G01X17140Y72982D03*
G01X27554Y102319D03*
G01X37587Y52027D03*
G54D29*
G01X99172Y58949D02*
G01X100072Y58949D01*
G01X99172Y51710D02*
G01X100072Y51710D01*
M00*
M02*
