G04 Layer: BottomLayer*
G04 EasyEDA v6.4.5, 2020-09-10T17:23:05--4:00*
G04 1c95f6ef93c34f1eadd188c2f50e5772,ebf70693e8d24e819ce4a1bff5f43d4f,10*
G04 Gerber Generator version 0.2*
G04 Scale: 100 percent, Rotated: No, Reflected: No *
G04 Dimensions in millimeters *
G04 leading zeros omitted , absolute positions ,3 integer and 3 decimal *
%FSLAX33Y33*%
%MOMM*%
G90*
G71D02*

%ADD10C,0.254000*%
%ADD11C,0.159995*%
%ADD12C,0.250012*%
%ADD15C,0.610006*%
%ADD16C,0.609600*%
%ADD29C,1.299997*%
%ADD30C,1.574800*%
%ADD32R,1.699997X1.699997*%
%ADD33C,1.699997*%
%ADD34C,1.599997*%
%ADD35R,1.599997X1.599997*%
%ADD37C,1.799996*%
%ADD38C,1.778000*%

%LPD*%
G54D10*
G01X37587Y52027D02*
G01X26157Y52027D01*
G01X20823Y57361D01*
G01X17140Y72982D02*
G01X17140Y71585D01*
G01X22601Y66124D01*
G01X26919Y66124D01*
G01X29459Y68664D01*
G01X29459Y100414D01*
G01X27554Y102319D01*
G01X10409Y57234D02*
G01X10409Y61044D01*
G54D11*
G01X84847Y65510D02*
G01X86010Y64346D01*
G01X88712Y64346D01*
G01X73541Y46742D02*
G01X78230Y42055D01*
G01X80013Y42055D01*
G01X53208Y7069D02*
G01X54268Y8129D01*
G01X54268Y18837D01*
G01X20823Y52281D01*
G01X55748Y9609D02*
G01X55748Y18995D01*
G01X21369Y53374D01*
G01X20249Y53374D01*
G01X19553Y52678D01*
G01X19553Y51011D01*
G01X18283Y49741D01*
G01X53208Y9609D02*
G01X17130Y45688D01*
G01X17130Y51126D01*
G01X18283Y52281D01*
G54D12*
G01X7361Y91270D02*
G01X12391Y86241D01*
G01X12391Y8931D01*
G01X12271Y8809D01*
G01X12271Y8708D01*
G01X14036Y6942D01*
G01X15616Y6942D01*
G01X91308Y99652D02*
G01X91308Y23452D01*
G01X99436Y15324D01*
G01X57115Y14832D02*
G01X57608Y15324D01*
G01X58464Y15324D01*
G54D11*
G01X7615Y48852D02*
G01X11761Y52998D01*
G01X11761Y59193D01*
G01X95598Y95108D02*
G01X94227Y95108D01*
G01X91715Y97620D01*
G01X91715Y97984D01*
G01X92439Y98710D01*
G01X92439Y100036D01*
G01X91651Y100823D01*
G01X90861Y100823D01*
G01X90239Y100204D01*
G01X90239Y98908D01*
G01X90775Y98372D01*
G01X90775Y15276D01*
G01X95019Y11034D01*
G01X13386Y12122D02*
G01X13386Y94209D01*
G01X11905Y95688D01*
G01X63528Y87443D02*
G01X68702Y82269D01*
G01X74120Y82269D01*
G01X76863Y85012D01*
G01X76863Y95108D01*
G01X13970Y94959D02*
G01X20150Y94959D01*
G01X13701Y97483D02*
G01X13970Y97214D01*
G01X13970Y94959D01*
G01X13970Y94959D02*
G01X13970Y13917D01*
G01X72408Y87260D02*
G01X76190Y91044D01*
G01X76190Y93310D01*
G01X93224Y9236D02*
G01X90452Y12007D01*
G01X90452Y93003D01*
G01X90145Y93310D01*
G01X89629Y5645D02*
G01X89629Y7161D01*
G01X89629Y7161D02*
G01X88499Y8291D01*
G01X88499Y59449D01*
G01X70168Y77781D01*
G01X63252Y32850D02*
G01X55634Y40468D01*
G01X55634Y67275D01*
G01X63300Y69178D02*
G01X63775Y69178D01*
G01X70597Y62355D01*
G01X70597Y61900D01*
G01X70379Y61682D01*
G01X70379Y53427D01*
G01X91428Y7440D02*
G01X89881Y8987D01*
G01X89881Y42800D01*
G01X99193Y91514D02*
G01X92136Y84458D01*
G01X92136Y42800D01*
G01X15500Y99282D02*
G01X16754Y99282D01*
G01X20737Y95299D01*
G01X20737Y75789D01*
G01X52060Y71865D02*
G01X52060Y24044D01*
G01X52060Y71865D02*
G01X48967Y74961D01*
G01X48967Y88631D01*
G01X48967Y88631D02*
G01X48967Y94288D01*
G01X55184Y73935D02*
G01X55024Y73775D01*
G01X55024Y32767D01*
G01X56071Y31718D01*
G01X56071Y13993D01*
G01X56805Y13259D01*
G01X56805Y8614D01*
G01X56759Y8566D01*
G01X55708Y8566D01*
G01X54268Y7125D01*
G01X54268Y6577D01*
G01X53719Y6026D01*
G01X52680Y6026D01*
G01X51938Y6767D01*
G01X51938Y8339D01*
G01X50668Y9609D01*
G01X38083Y86655D02*
G01X38083Y77669D01*
G01X50676Y65075D01*
G01X50676Y49942D01*
G01X87943Y96780D02*
G01X87943Y95611D01*
G01X70915Y78583D01*
G01X70056Y78583D01*
G01X69548Y78078D01*
G01X69548Y69820D01*
G01X75926Y63445D01*
G01X75926Y49571D01*
G01X75390Y13529D02*
G01X75390Y40699D01*
G01X69165Y46927D01*
G01X69165Y48144D01*
G01X46028Y54263D02*
G01X46028Y48286D01*
G01X49403Y44910D01*
G01X50188Y48007D02*
G01X50016Y47834D01*
G01X49053Y47834D01*
G01X48255Y48631D01*
G01X48255Y52408D01*
G01X49439Y48380D02*
G01X49439Y65421D01*
G01X34567Y80293D01*
G01X63574Y38060D02*
G01X63574Y56158D01*
G01X69543Y62126D01*
G01X70958Y57123D02*
G01X70958Y66937D01*
G01X73244Y43666D02*
G01X73244Y43666D01*
G01X71451Y45456D01*
G01X70958Y57123D02*
G01X70958Y45952D01*
G01X73244Y43666D01*
G01X73244Y43666D02*
G01X73244Y43666D01*
G01X73244Y43666D01*
G01X75946Y40963D01*
G01X75946Y28626D01*
G01X51222Y54921D02*
G01X51222Y48139D01*
G01X80186Y48573D02*
G01X80186Y43016D01*
G01X97430Y52919D02*
G01X97430Y57252D01*
G01X96922Y57760D01*
G01X7615Y59266D02*
G01X6980Y59266D01*
G01X6980Y60105D01*
G01X50668Y7069D02*
G01X45225Y12513D01*
G01X45225Y15832D01*
G01X89513Y101448D02*
G01X89513Y77575D01*
G01X45225Y15832D02*
G01X43719Y15832D01*
G01X43531Y16020D01*
G01X18977Y38278D02*
G01X18977Y19515D01*
G01X18977Y19515D02*
G01X18977Y6709D01*
G01X17412Y5147D01*
G01X9884Y76579D02*
G01X10315Y76579D01*
G01X6980Y60155D02*
G01X9884Y63005D01*
G01X9884Y76579D01*
G01X9884Y76579D02*
G01X9884Y85157D01*
G01X5566Y89475D01*
G54D29*
G01X96922Y52919D03*
G01X96922Y57760D03*
G54D30*
G01X101232Y17120D03*
G01X99436Y15324D03*
G36*
G01X96527Y13528D02*
G01X97640Y14642D01*
G01X98754Y13528D01*
G01X97640Y12415D01*
G01X96527Y13528D01*
G37*
G01X89512Y101448D03*
G01X91308Y99652D03*
G36*
G01X93104Y96743D02*
G01X91991Y97856D01*
G01X93104Y98970D01*
G01X94218Y97856D01*
G01X93104Y96743D01*
G37*
G01X17412Y5146D03*
G01X15616Y6942D03*
G36*
G01X13820Y9852D02*
G01X14934Y8739D01*
G01X13820Y7625D01*
G01X12707Y8739D01*
G01X13820Y9852D01*
G37*
G01X5565Y89474D03*
G01X7361Y91270D03*
G36*
G01X10271Y93067D02*
G01X9157Y91953D01*
G01X8044Y93067D01*
G01X9157Y94180D01*
G01X10271Y93067D01*
G37*
G54D32*
G01X18283Y57361D03*
G54D33*
G01X20823Y57361D03*
G01X18283Y54821D03*
G01X20823Y54821D03*
G01X18283Y52281D03*
G01X20823Y52281D03*
G01X18283Y49741D03*
G01X20823Y49741D03*
G54D34*
G01X50668Y7069D03*
G01X50668Y9609D03*
G01X53208Y7069D03*
G01X53208Y9609D03*
G01X55748Y7069D03*
G54D35*
G01X55748Y9609D03*
G36*
G01X100987Y88447D02*
G01X99715Y89719D01*
G01X100987Y90992D01*
G01X102260Y89719D01*
G01X100987Y88447D01*
G37*
G54D37*
G01X99192Y91515D03*
G01X97395Y93311D03*
G01X95599Y95108D03*
G36*
G01X18567Y101077D02*
G01X17294Y99804D01*
G01X16022Y101077D01*
G01X17294Y102349D01*
G01X18567Y101077D01*
G37*
G01X15499Y99281D03*
G01X13702Y97484D03*
G01X11906Y95688D03*
G36*
G01X5429Y18783D02*
G01X6702Y17511D01*
G01X5429Y16238D01*
G01X4157Y17511D01*
G01X5429Y18783D01*
G37*
G01X7225Y15714D03*
G01X9022Y13918D03*
G01X10818Y12122D03*
G36*
G01X88358Y5645D02*
G01X89630Y6918D01*
G01X90903Y5645D01*
G01X89630Y4373D01*
G01X88358Y5645D01*
G37*
G01X91426Y7441D03*
G01X93223Y9237D03*
G01X95019Y11034D03*
G54D32*
G01X7615Y59012D03*
G54D33*
G01X7615Y56472D03*
G01X7615Y53932D03*
G01X7615Y51392D03*
G01X7615Y48852D03*
G54D38*
G01X63252Y32850D03*
G01X70851Y32850D03*
G54D15*
G01X10315Y76579D03*
G01X18977Y38278D03*
G01X43531Y16020D03*
G01X18977Y19515D03*
G01X89513Y77575D03*
G01X45225Y15832D03*
G01X80186Y48573D03*
G01X80186Y43016D03*
G01X51222Y48139D03*
G01X51222Y54921D03*
G01X71451Y45456D03*
G01X75946Y28626D03*
G01X70958Y57123D03*
G01X70958Y66937D03*
G01X69543Y62126D03*
G01X63574Y38060D03*
G01X49439Y48380D03*
G01X34567Y80293D03*
G01X48255Y52408D03*
G01X50188Y48007D03*
G01X46028Y54263D03*
G01X49403Y44910D03*
G01X75390Y13529D03*
G01X69165Y48144D03*
G01X75926Y49571D03*
G01X87943Y96780D03*
G01X38083Y86655D03*
G01X50676Y49942D03*
G01X55184Y73935D03*
G01X48967Y94288D03*
G01X48967Y88631D03*
G01X20737Y75789D03*
G01X92136Y42800D03*
G01X89881Y42800D03*
G01X52060Y71865D03*
G01X52060Y24044D03*
G01X63300Y69178D03*
G01X70379Y53427D03*
G01X55634Y67275D03*
G01X70168Y77781D03*
G01X90145Y93310D03*
G01X76190Y93310D03*
G01X72408Y87260D03*
G01X20150Y94959D03*
G01X13970Y13917D03*
G01X63528Y87443D03*
G01X76863Y95108D03*
G01X13386Y12122D03*
G01X11761Y59193D03*
G01X57115Y14832D03*
G01X58464Y15324D03*
G01X80013Y42055D03*
G01X73541Y46742D03*
G01X84847Y65510D03*
G01X88712Y64346D03*
G54D16*
G01X10409Y57234D03*
G01X10409Y61044D03*
G01X17140Y72982D03*
G01X27554Y102319D03*
G01X37587Y52027D03*
G54D29*
G01X99172Y58949D02*
G01X100072Y58949D01*
G01X99172Y51710D02*
G01X100072Y51710D01*
M00*
M02*
