G04 Layer: TopSilkLayer*
G04 EasyEDA v6.4.5, 2020-09-10T17:23:05--4:00*
G04 1c95f6ef93c34f1eadd188c2f50e5772,ebf70693e8d24e819ce4a1bff5f43d4f,10*
G04 Gerber Generator version 0.2*
G04 Scale: 100 percent, Rotated: No, Reflected: No *
G04 Dimensions in millimeters *
G04 leading zeros omitted , absolute positions ,3 integer and 3 decimal *
%FSLAX33Y33*%
%MOMM*%
G90*
G71D02*

%ADD10C,0.254000*%
%ADD39C,0.200000*%
%ADD40C,0.203200*%
%ADD41C,0.202999*%
%ADD42C,0.150114*%
%ADD43C,0.299999*%
%ADD44C,0.399999*%
%ADD45C,0.599999*%
%ADD46C,0.152400*%

%LPD*%

%LPD*%
G36*
G01X31471Y101356D02*
G01X31405Y101356D01*
G01X31340Y101355D01*
G01X31276Y101353D01*
G01X31212Y101350D01*
G01X31088Y101340D01*
G01X31028Y101332D01*
G01X30969Y101324D01*
G01X30912Y101314D01*
G01X30856Y101303D01*
G01X30783Y101288D01*
G01X30718Y101273D01*
G01X30660Y101260D01*
G01X30608Y101247D01*
G01X30562Y101233D01*
G01X30518Y101219D01*
G01X30475Y101204D01*
G01X30433Y101188D01*
G01X30390Y101169D01*
G01X30343Y101149D01*
G01X30293Y101125D01*
G01X30238Y101098D01*
G01X30170Y101062D01*
G01X30105Y101024D01*
G01X30043Y100983D01*
G01X29984Y100940D01*
G01X29929Y100895D01*
G01X29877Y100848D01*
G01X29830Y100800D01*
G01X29786Y100750D01*
G01X29747Y100699D01*
G01X29712Y100648D01*
G01X29682Y100597D01*
G01X29657Y100545D01*
G01X29637Y100493D01*
G01X29623Y100442D01*
G01X29614Y100392D01*
G01X29611Y100342D01*
G01X29614Y100287D01*
G01X29623Y100233D01*
G01X29637Y100178D01*
G01X29656Y100124D01*
G01X29681Y100071D01*
G01X29711Y100017D01*
G01X29745Y99965D01*
G01X29785Y99914D01*
G01X29829Y99863D01*
G01X29878Y99814D01*
G01X29931Y99766D01*
G01X29989Y99721D01*
G01X30050Y99676D01*
G01X30115Y99634D01*
G01X30185Y99594D01*
G01X30257Y99556D01*
G01X30332Y99521D01*
G01X30401Y99489D01*
G01X30466Y99461D01*
G01X30527Y99436D01*
G01X30586Y99414D01*
G01X30643Y99395D01*
G01X30697Y99379D01*
G01X30752Y99365D01*
G01X30807Y99354D01*
G01X30862Y99344D01*
G01X30918Y99336D01*
G01X30978Y99330D01*
G01X31076Y99322D01*
G01X31135Y99323D01*
G01X31165Y99333D01*
G01X31172Y99354D01*
G01X31156Y99377D01*
G01X31105Y99401D01*
G01X31014Y99428D01*
G01X30880Y99459D01*
G01X30800Y99478D01*
G01X30723Y99498D01*
G01X30650Y99520D01*
G01X30579Y99543D01*
G01X30510Y99569D01*
G01X30445Y99596D01*
G01X30382Y99623D01*
G01X30323Y99653D01*
G01X30268Y99684D01*
G01X30215Y99717D01*
G01X30165Y99751D01*
G01X30120Y99786D01*
G01X30077Y99822D01*
G01X30038Y99859D01*
G01X30002Y99897D01*
G01X29970Y99936D01*
G01X29942Y99976D01*
G01X29918Y100016D01*
G01X29897Y100058D01*
G01X29881Y100099D01*
G01X29868Y100142D01*
G01X29859Y100185D01*
G01X29855Y100229D01*
G01X29854Y100273D01*
G01X29858Y100317D01*
G01X29865Y100362D01*
G01X29878Y100407D01*
G01X29894Y100452D01*
G01X29912Y100490D01*
G01X29933Y100527D01*
G01X29957Y100563D01*
G01X29984Y100598D01*
G01X30014Y100633D01*
G01X30047Y100667D01*
G01X30083Y100700D01*
G01X30121Y100732D01*
G01X30162Y100764D01*
G01X30206Y100794D01*
G01X30251Y100823D01*
G01X30299Y100851D01*
G01X30349Y100879D01*
G01X30401Y100905D01*
G01X30455Y100929D01*
G01X30511Y100952D01*
G01X30568Y100975D01*
G01X30627Y100996D01*
G01X30688Y101015D01*
G01X30750Y101033D01*
G01X30813Y101049D01*
G01X30877Y101065D01*
G01X30942Y101078D01*
G01X31009Y101090D01*
G01X31076Y101100D01*
G01X31143Y101108D01*
G01X31212Y101115D01*
G01X31281Y101121D01*
G01X31350Y101124D01*
G01X31419Y101125D01*
G01X31489Y101125D01*
G01X31559Y101122D01*
G01X31634Y101118D01*
G01X31707Y101111D01*
G01X31778Y101103D01*
G01X31849Y101094D01*
G01X31918Y101083D01*
G01X31986Y101071D01*
G01X32052Y101057D01*
G01X32116Y101041D01*
G01X32179Y101024D01*
G01X32240Y101006D01*
G01X32300Y100986D01*
G01X32357Y100966D01*
G01X32412Y100944D01*
G01X32466Y100920D01*
G01X32518Y100896D01*
G01X32567Y100870D01*
G01X32614Y100844D01*
G01X32659Y100816D01*
G01X32702Y100787D01*
G01X32743Y100757D01*
G01X32781Y100726D01*
G01X32817Y100695D01*
G01X32850Y100662D01*
G01X32881Y100629D01*
G01X32909Y100595D01*
G01X32934Y100560D01*
G01X32957Y100524D01*
G01X32977Y100488D01*
G01X32994Y100451D01*
G01X33008Y100413D01*
G01X33019Y100375D01*
G01X33028Y100336D01*
G01X33033Y100297D01*
G01X33034Y100257D01*
G01X33033Y100217D01*
G01X33029Y100177D01*
G01X33016Y100113D01*
G01X32999Y100055D01*
G01X32975Y100001D01*
G01X32944Y99950D01*
G01X32906Y99902D01*
G01X32860Y99855D01*
G01X32806Y99808D01*
G01X32742Y99761D01*
G01X32641Y99684D01*
G01X32591Y99627D01*
G01X32590Y99591D01*
G01X32640Y99579D01*
G01X32676Y99584D01*
G01X32717Y99601D01*
G01X32764Y99626D01*
G01X32816Y99660D01*
G01X32870Y99699D01*
G01X32924Y99744D01*
G01X32979Y99794D01*
G01X33032Y99845D01*
G01X33080Y99898D01*
G01X33125Y99952D01*
G01X33162Y100003D01*
G01X33191Y100053D01*
G01X33217Y100113D01*
G01X33235Y100180D01*
G01X33247Y100251D01*
G01X33252Y100325D01*
G01X33249Y100398D01*
G01X33239Y100469D01*
G01X33222Y100537D01*
G01X33198Y100599D01*
G01X33173Y100645D01*
G01X33143Y100691D01*
G01X33108Y100737D01*
G01X33069Y100782D01*
G01X33025Y100827D01*
G01X32977Y100872D01*
G01X32925Y100915D01*
G01X32870Y100957D01*
G01X32811Y100998D01*
G01X32749Y101037D01*
G01X32685Y101075D01*
G01X32619Y101110D01*
G01X32551Y101143D01*
G01X32480Y101174D01*
G01X32408Y101202D01*
G01X32335Y101228D01*
G01X32282Y101244D01*
G01X32226Y101260D01*
G01X32169Y101274D01*
G01X32110Y101287D01*
G01X32050Y101299D01*
G01X31988Y101310D01*
G01X31925Y101320D01*
G01X31862Y101328D01*
G01X31798Y101336D01*
G01X31733Y101342D01*
G01X31667Y101347D01*
G01X31602Y101351D01*
G01X31536Y101354D01*
G01X31471Y101356D01*
G37*

%LPD*%
G36*
G01X35875Y100004D02*
G01X35813Y100004D01*
G01X35752Y100003D01*
G01X35689Y100001D01*
G01X35627Y99997D01*
G01X35564Y99991D01*
G01X35499Y99984D01*
G01X35433Y99975D01*
G01X35366Y99964D01*
G01X35296Y99952D01*
G01X35223Y99938D01*
G01X35153Y99924D01*
G01X35086Y99909D01*
G01X35023Y99893D01*
G01X34963Y99877D01*
G01X34905Y99861D01*
G01X34850Y99843D01*
G01X34798Y99824D01*
G01X34747Y99805D01*
G01X34698Y99784D01*
G01X34651Y99762D01*
G01X34606Y99738D01*
G01X34561Y99713D01*
G01X34518Y99687D01*
G01X34475Y99659D01*
G01X34433Y99629D01*
G01X34391Y99597D01*
G01X34349Y99564D01*
G01X34307Y99528D01*
G01X34265Y99490D01*
G01X34193Y99420D01*
G01X34143Y99362D01*
G01X34113Y99314D01*
G01X34104Y99274D01*
G01X34111Y99221D01*
G01X34141Y99214D01*
G01X34200Y99254D01*
G01X34299Y99346D01*
G01X34341Y99385D01*
G01X34386Y99422D01*
G01X34435Y99458D01*
G01X34488Y99492D01*
G01X34542Y99526D01*
G01X34601Y99557D01*
G01X34662Y99587D01*
G01X34726Y99616D01*
G01X34793Y99642D01*
G01X34862Y99667D01*
G01X34934Y99690D01*
G01X35009Y99711D01*
G01X35050Y99722D01*
G01X35096Y99730D01*
G01X35146Y99738D01*
G01X35201Y99745D01*
G01X35259Y99752D01*
G01X35320Y99757D01*
G01X35383Y99762D01*
G01X35449Y99765D01*
G01X35516Y99767D01*
G01X35585Y99769D01*
G01X35654Y99770D01*
G01X35725Y99770D01*
G01X35794Y99769D01*
G01X35864Y99767D01*
G01X35932Y99764D01*
G01X35999Y99761D01*
G01X36064Y99756D01*
G01X36127Y99750D01*
G01X36187Y99744D01*
G01X36244Y99737D01*
G01X36297Y99729D01*
G01X36346Y99720D01*
G01X36391Y99710D01*
G01X36431Y99700D01*
G01X36504Y99677D01*
G01X36574Y99653D01*
G01X36640Y99629D01*
G01X36703Y99603D01*
G01X36763Y99576D01*
G01X36819Y99547D01*
G01X36872Y99518D01*
G01X36921Y99487D01*
G01X36968Y99455D01*
G01X37011Y99422D01*
G01X37051Y99387D01*
G01X37089Y99351D01*
G01X37123Y99314D01*
G01X37155Y99275D01*
G01X37183Y99234D01*
G01X37209Y99193D01*
G01X37245Y99123D01*
G01X37271Y99057D01*
G01X37287Y98994D01*
G01X37291Y98931D01*
G01X37286Y98869D01*
G01X37270Y98805D01*
G01X37244Y98739D01*
G01X37207Y98668D01*
G01X37171Y98609D01*
G01X37132Y98556D01*
G01X37090Y98508D01*
G01X37042Y98464D01*
G01X36987Y98422D01*
G01X36923Y98380D01*
G01X36849Y98337D01*
G01X36761Y98292D01*
G01X36710Y98267D01*
G01X36661Y98244D01*
G01X36614Y98223D01*
G01X36567Y98206D01*
G01X36521Y98189D01*
G01X36473Y98174D01*
G01X36423Y98160D01*
G01X36370Y98147D01*
G01X36312Y98135D01*
G01X36248Y98123D01*
G01X36178Y98111D01*
G01X36100Y98098D01*
G01X36022Y98086D01*
G01X35950Y98076D01*
G01X35883Y98069D01*
G01X35819Y98063D01*
G01X35758Y98060D01*
G01X35699Y98059D01*
G01X35641Y98060D01*
G01X35582Y98063D01*
G01X35522Y98069D01*
G01X35460Y98077D01*
G01X35394Y98086D01*
G01X35325Y98098D01*
G01X35153Y98128D01*
G01X35062Y98138D01*
G01X35029Y98126D01*
G01X35028Y98095D01*
G01X35038Y98074D01*
G01X35058Y98054D01*
G01X35088Y98036D01*
G01X35129Y98020D01*
G01X35179Y98006D01*
G01X35240Y97994D01*
G01X35312Y97984D01*
G01X35392Y97975D01*
G01X35483Y97968D01*
G01X35583Y97964D01*
G01X35694Y97961D01*
G01X35813Y97960D01*
G01X35908Y97961D01*
G01X35991Y97962D01*
G01X36065Y97963D01*
G01X36130Y97966D01*
G01X36189Y97969D01*
G01X36244Y97975D01*
G01X36295Y97981D01*
G01X36344Y97988D01*
G01X36394Y97997D01*
G01X36445Y98009D01*
G01X36500Y98022D01*
G01X36560Y98038D01*
G01X36628Y98056D01*
G01X36693Y98075D01*
G01X36755Y98095D01*
G01X36814Y98115D01*
G01X36871Y98136D01*
G01X36925Y98158D01*
G01X36977Y98181D01*
G01X37027Y98204D01*
G01X37121Y98254D01*
G01X37165Y98281D01*
G01X37207Y98309D01*
G01X37249Y98339D01*
G01X37289Y98369D01*
G01X37328Y98401D01*
G01X37366Y98435D01*
G01X37415Y98482D01*
G01X37458Y98526D01*
G01X37496Y98568D01*
G01X37529Y98610D01*
G01X37557Y98651D01*
G01X37580Y98693D01*
G01X37599Y98735D01*
G01X37614Y98778D01*
G01X37625Y98823D01*
G01X37632Y98871D01*
G01X37637Y98921D01*
G01X37638Y98975D01*
G01X37635Y99053D01*
G01X37625Y99123D01*
G01X37609Y99189D01*
G01X37584Y99251D01*
G01X37550Y99311D01*
G01X37507Y99370D01*
G01X37454Y99431D01*
G01X37389Y99495D01*
G01X37349Y99532D01*
G01X37308Y99566D01*
G01X37268Y99599D01*
G01X37226Y99630D01*
G01X37184Y99660D01*
G01X37141Y99687D01*
G01X37097Y99713D01*
G01X37051Y99738D01*
G01X37004Y99762D01*
G01X36955Y99784D01*
G01X36905Y99805D01*
G01X36852Y99825D01*
G01X36797Y99844D01*
G01X36740Y99862D01*
G01X36680Y99879D01*
G01X36617Y99895D01*
G01X36551Y99911D01*
G01X36482Y99926D01*
G01X36410Y99940D01*
G01X36334Y99954D01*
G01X36264Y99966D01*
G01X36195Y99977D01*
G01X36129Y99985D01*
G01X36064Y99992D01*
G01X36000Y99998D01*
G01X35937Y100001D01*
G01X35875Y100004D01*
G37*

%LPD*%
G36*
G01X29192Y98541D02*
G01X29127Y98541D01*
G01X29062Y98539D01*
G01X28998Y98537D01*
G01X28935Y98532D01*
G01X28873Y98527D01*
G01X28813Y98519D01*
G01X28755Y98510D01*
G01X28698Y98500D01*
G01X28644Y98489D01*
G01X28563Y98469D01*
G01X28486Y98447D01*
G01X28411Y98424D01*
G01X28340Y98399D01*
G01X28272Y98372D01*
G01X28208Y98344D01*
G01X28147Y98315D01*
G01X28089Y98284D01*
G01X28035Y98251D01*
G01X27984Y98217D01*
G01X27936Y98182D01*
G01X27892Y98144D01*
G01X27852Y98106D01*
G01X27814Y98065D01*
G01X27780Y98024D01*
G01X27750Y97981D01*
G01X27723Y97936D01*
G01X27699Y97890D01*
G01X27679Y97843D01*
G01X27663Y97794D01*
G01X27651Y97746D01*
G01X27646Y97698D01*
G01X27646Y97649D01*
G01X27652Y97600D01*
G01X27664Y97551D01*
G01X27680Y97503D01*
G01X27702Y97454D01*
G01X27729Y97407D01*
G01X27761Y97359D01*
G01X27798Y97313D01*
G01X27839Y97268D01*
G01X27885Y97224D01*
G01X27935Y97181D01*
G01X27989Y97140D01*
G01X28047Y97100D01*
G01X28110Y97062D01*
G01X28175Y97027D01*
G01X28245Y96993D01*
G01X28318Y96962D01*
G01X28394Y96933D01*
G01X28449Y96914D01*
G01X28505Y96897D01*
G01X28562Y96881D01*
G01X28619Y96867D01*
G01X28677Y96854D01*
G01X28734Y96842D01*
G01X28792Y96832D01*
G01X28851Y96823D01*
G01X28910Y96815D01*
G01X28969Y96809D01*
G01X29087Y96801D01*
G01X29146Y96799D01*
G01X29265Y96799D01*
G01X29324Y96801D01*
G01X29384Y96805D01*
G01X29443Y96810D01*
G01X29502Y96816D01*
G01X29560Y96823D01*
G01X29618Y96832D01*
G01X29676Y96842D01*
G01X29734Y96854D01*
G01X29791Y96867D01*
G01X29848Y96881D01*
G01X29904Y96897D01*
G01X29960Y96914D01*
G01X30015Y96932D01*
G01X30069Y96952D01*
G01X30122Y96973D01*
G01X30175Y96995D01*
G01X30227Y97018D01*
G01X30290Y97050D01*
G01X30344Y97081D01*
G01X30389Y97112D01*
G01X30424Y97141D01*
G01X30448Y97168D01*
G01X30463Y97193D01*
G01X30465Y97215D01*
G01X30455Y97233D01*
G01X30435Y97245D01*
G01X30409Y97246D01*
G01X30376Y97235D01*
G01X30331Y97211D01*
G01X30274Y97178D01*
G01X30218Y97148D01*
G01X30165Y97120D01*
G01X30113Y97094D01*
G01X30061Y97070D01*
G01X30011Y97049D01*
G01X29960Y97029D01*
G01X29910Y97011D01*
G01X29810Y96981D01*
G01X29759Y96969D01*
G01X29653Y96949D01*
G01X29598Y96942D01*
G01X29541Y96936D01*
G01X29482Y96931D01*
G01X29420Y96927D01*
G01X29356Y96925D01*
G01X29289Y96923D01*
G01X29219Y96923D01*
G01X29127Y96924D01*
G01X29044Y96927D01*
G01X28970Y96931D01*
G01X28902Y96936D01*
G01X28842Y96943D01*
G01X28786Y96952D01*
G01X28734Y96963D01*
G01X28687Y96976D01*
G01X28605Y97002D01*
G01X28528Y97029D01*
G01X28455Y97058D01*
G01X28385Y97089D01*
G01X28321Y97120D01*
G01X28262Y97154D01*
G01X28206Y97188D01*
G01X28155Y97224D01*
G01X28109Y97261D01*
G01X28067Y97299D01*
G01X28030Y97339D01*
G01X27998Y97380D01*
G01X27970Y97421D01*
G01X27948Y97464D01*
G01X27930Y97508D01*
G01X27917Y97553D01*
G01X27909Y97599D01*
G01X27906Y97645D01*
G01X27908Y97693D01*
G01X27916Y97741D01*
G01X27928Y97781D01*
G01X27948Y97824D01*
G01X27975Y97867D01*
G01X28009Y97912D01*
G01X28048Y97956D01*
G01X28093Y97999D01*
G01X28142Y98041D01*
G01X28194Y98081D01*
G01X28250Y98118D01*
G01X28308Y98152D01*
G01X28368Y98182D01*
G01X28428Y98208D01*
G01X28494Y98232D01*
G01X28558Y98254D01*
G01X28621Y98274D01*
G01X28684Y98292D01*
G01X28746Y98308D01*
G01X28807Y98323D01*
G01X28868Y98335D01*
G01X28929Y98346D01*
G01X28989Y98355D01*
G01X29049Y98361D01*
G01X29110Y98366D01*
G01X29171Y98368D01*
G01X29232Y98369D01*
G01X29294Y98368D01*
G01X29357Y98365D01*
G01X29420Y98361D01*
G01X29484Y98354D01*
G01X29550Y98345D01*
G01X29616Y98335D01*
G01X29684Y98323D01*
G01X29753Y98308D01*
G01X29824Y98292D01*
G01X29896Y98274D01*
G01X29970Y98254D01*
G01X30040Y98237D01*
G01X30088Y98232D01*
G01X30122Y98238D01*
G01X30150Y98255D01*
G01X30186Y98293D01*
G01X30190Y98325D01*
G01X30160Y98356D01*
G01X30095Y98388D01*
G01X30048Y98406D01*
G01X29997Y98424D01*
G01X29944Y98440D01*
G01X29889Y98456D01*
G01X29831Y98470D01*
G01X29772Y98483D01*
G01X29711Y98494D01*
G01X29649Y98505D01*
G01X29585Y98514D01*
G01X29521Y98522D01*
G01X29456Y98528D01*
G01X29390Y98534D01*
G01X29258Y98540D01*
G01X29192Y98541D01*
G37*

%LPD*%
G36*
G01X32165Y96455D02*
G01X32120Y96478D01*
G01X32081Y96463D01*
G01X32063Y96409D01*
G01X32066Y96373D01*
G01X32076Y96336D01*
G01X32090Y96298D01*
G01X32111Y96259D01*
G01X32136Y96219D01*
G01X32165Y96180D01*
G01X32200Y96140D01*
G01X32238Y96102D01*
G01X32280Y96063D01*
G01X32326Y96027D01*
G01X32374Y95991D01*
G01X32425Y95958D01*
G01X32479Y95926D01*
G01X32535Y95897D01*
G01X32592Y95870D01*
G01X32651Y95847D01*
G01X32734Y95818D01*
G01X32805Y95795D01*
G01X32862Y95780D01*
G01X32907Y95772D01*
G01X32941Y95772D01*
G01X32965Y95778D01*
G01X32978Y95791D01*
G01X32983Y95811D01*
G01X32973Y95860D01*
G01X32936Y95898D01*
G01X32861Y95933D01*
G01X32739Y95971D01*
G01X32663Y95994D01*
G01X32593Y96020D01*
G01X32528Y96048D01*
G01X32469Y96078D01*
G01X32415Y96110D01*
G01X32368Y96144D01*
G01X32325Y96181D01*
G01X32288Y96219D01*
G01X32256Y96261D01*
G01X32231Y96304D01*
G01X32211Y96349D01*
G01X32196Y96396D01*
G01X32165Y96455D01*
G37*

%LPD*%
G36*
G01X31441Y100599D02*
G01X31386Y100599D01*
G01X31337Y100593D01*
G01X31297Y100580D01*
G01X31247Y100552D01*
G01X31193Y100515D01*
G01X31143Y100472D01*
G01X31083Y100411D01*
G01X31049Y100361D01*
G01X31033Y100308D01*
G01X31029Y100241D01*
G01X31032Y100186D01*
G01X31040Y100136D01*
G01X31055Y100089D01*
G01X31077Y100045D01*
G01X31106Y100001D01*
G01X31144Y99958D01*
G01X31191Y99915D01*
G01X31247Y99870D01*
G01X31280Y99843D01*
G01X31310Y99814D01*
G01X31336Y99782D01*
G01X31361Y99746D01*
G01X31384Y99705D01*
G01X31406Y99658D01*
G01X31426Y99604D01*
G01X31447Y99542D01*
G01X31466Y99472D01*
G01X31487Y99390D01*
G01X31508Y99298D01*
G01X31530Y99194D01*
G01X31542Y99137D01*
G01X31552Y99083D01*
G01X31561Y99034D01*
G01X31569Y98988D01*
G01X31575Y98945D01*
G01X31578Y98905D01*
G01X31579Y98868D01*
G01X31578Y98833D01*
G01X31573Y98800D01*
G01X31566Y98769D01*
G01X31554Y98740D01*
G01X31540Y98712D01*
G01X31521Y98685D01*
G01X31498Y98660D01*
G01X31471Y98634D01*
G01X31439Y98610D01*
G01X31401Y98585D01*
G01X31359Y98560D01*
G01X31312Y98535D01*
G01X31259Y98509D01*
G01X31199Y98483D01*
G01X31134Y98455D01*
G01X31062Y98426D01*
G01X30984Y98395D01*
G01X30899Y98362D01*
G01X30806Y98327D01*
G01X30706Y98289D01*
G01X30598Y98249D01*
G01X30480Y98206D01*
G01X30374Y98167D01*
G01X30278Y98131D01*
G01X30192Y98100D01*
G01X30114Y98072D01*
G01X30044Y98047D01*
G01X29980Y98025D01*
G01X29923Y98007D01*
G01X29870Y97990D01*
G01X29823Y97976D01*
G01X29778Y97964D01*
G01X29737Y97954D01*
G01X29697Y97946D01*
G01X29659Y97939D01*
G01X29620Y97933D01*
G01X29582Y97929D01*
G01X29542Y97925D01*
G01X29500Y97921D01*
G01X29454Y97918D01*
G01X29405Y97915D01*
G01X29320Y97908D01*
G01X29243Y97900D01*
G01X29174Y97891D01*
G01X29112Y97880D01*
G01X29057Y97866D01*
G01X29008Y97851D01*
G01X28966Y97834D01*
G01X28929Y97814D01*
G01X28897Y97792D01*
G01X28870Y97767D01*
G01X28848Y97739D01*
G01X28829Y97708D01*
G01X28808Y97658D01*
G01X28795Y97609D01*
G01X28790Y97561D01*
G01X28794Y97515D01*
G01X28804Y97471D01*
G01X28821Y97430D01*
G01X28845Y97391D01*
G01X28874Y97356D01*
G01X28908Y97324D01*
G01X28947Y97295D01*
G01X28990Y97271D01*
G01X29036Y97252D01*
G01X29086Y97237D01*
G01X29138Y97228D01*
G01X29192Y97224D01*
G01X29247Y97225D01*
G01X29303Y97233D01*
G01X29359Y97248D01*
G01X29416Y97269D01*
G01X29472Y97298D01*
G01X29510Y97319D01*
G01X29549Y97336D01*
G01X29589Y97351D01*
G01X29634Y97363D01*
G01X29685Y97373D01*
G01X29746Y97381D01*
G01X29819Y97389D01*
G01X29905Y97396D01*
G01X29971Y97401D01*
G01X30043Y97407D01*
G01X30118Y97412D01*
G01X30194Y97418D01*
G01X30269Y97424D01*
G01X30340Y97429D01*
G01X30405Y97435D01*
G01X30461Y97440D01*
G01X30557Y97447D01*
G01X30628Y97449D01*
G01X30676Y97445D01*
G01X30703Y97429D01*
G01X30712Y97402D01*
G01X30704Y97359D01*
G01X30684Y97298D01*
G01X30651Y97216D01*
G01X30638Y97183D01*
G01X30627Y97151D01*
G01X30618Y97117D01*
G01X30611Y97080D01*
G01X30604Y97038D01*
G01X30598Y96990D01*
G01X30594Y96934D01*
G01X30591Y96867D01*
G01X30588Y96789D01*
G01X30585Y96697D01*
G01X30583Y96590D01*
G01X30581Y96466D01*
G01X30580Y96349D01*
G01X30579Y96246D01*
G01X30579Y96156D01*
G01X30580Y96079D01*
G01X30582Y96014D01*
G01X30586Y95960D01*
G01X30591Y95917D01*
G01X30598Y95884D01*
G01X30607Y95861D01*
G01X30618Y95847D01*
G01X30631Y95841D01*
G01X30647Y95842D01*
G01X30665Y95851D01*
G01X30687Y95866D01*
G01X30711Y95887D01*
G01X30739Y95912D01*
G01X30765Y95938D01*
G01X30785Y95964D01*
G01X30800Y95995D01*
G01X30811Y96038D01*
G01X30819Y96098D01*
G01X30825Y96183D01*
G01X30830Y96297D01*
G01X30837Y96447D01*
G01X30841Y96540D01*
G01X30846Y96625D01*
G01X30851Y96702D01*
G01X30858Y96772D01*
G01X30866Y96836D01*
G01X30875Y96894D01*
G01X30885Y96946D01*
G01X30897Y96995D01*
G01X30911Y97039D01*
G01X30927Y97079D01*
G01X30945Y97117D01*
G01X30965Y97152D01*
G01X30987Y97185D01*
G01X31013Y97217D01*
G01X31041Y97249D01*
G01X31072Y97280D01*
G01X31114Y97317D01*
G01X31150Y97342D01*
G01X31181Y97354D01*
G01X31209Y97353D01*
G01X31232Y97339D01*
G01X31253Y97312D01*
G01X31272Y97271D01*
G01X31289Y97217D01*
G01X31317Y97126D01*
G01X31351Y97043D01*
G01X31389Y96971D01*
G01X31430Y96909D01*
G01X31475Y96859D01*
G01X31521Y96822D01*
G01X31569Y96799D01*
G01X31616Y96791D01*
G01X31638Y96800D01*
G01X31663Y96823D01*
G01X31690Y96857D01*
G01X31715Y96899D01*
G01X31726Y96923D01*
G01X31736Y96949D01*
G01X31744Y96978D01*
G01X31751Y97013D01*
G01X31758Y97056D01*
G01X31763Y97107D01*
G01X31767Y97170D01*
G01X31770Y97245D01*
G01X31773Y97335D01*
G01X31776Y97441D01*
G01X31779Y97566D01*
G01X31781Y97711D01*
G01X31784Y97864D01*
G01X31787Y97994D01*
G01X31789Y98104D01*
G01X31793Y98196D01*
G01X31796Y98271D01*
G01X31801Y98334D01*
G01X31807Y98385D01*
G01X31814Y98429D01*
G01X31823Y98466D01*
G01X31833Y98500D01*
G01X31845Y98532D01*
G01X31860Y98567D01*
G01X31915Y98669D01*
G01X31970Y98735D01*
G01X32029Y98764D01*
G01X32093Y98759D01*
G01X32137Y98727D01*
G01X32147Y98670D01*
G01X32123Y98593D01*
G01X32067Y98499D01*
G01X32034Y98450D01*
G01X32003Y98398D01*
G01X31979Y98351D01*
G01X31964Y98314D01*
G01X31960Y98299D01*
G01X31957Y98273D01*
G01X31954Y98237D01*
G01X31950Y98193D01*
G01X31947Y98141D01*
G01X31942Y98081D01*
G01X31939Y98016D01*
G01X31935Y97945D01*
G01X31932Y97869D01*
G01X31929Y97789D01*
G01X31926Y97707D01*
G01X31923Y97622D01*
G01X31905Y97002D01*
G01X31820Y96889D01*
G01X31794Y96856D01*
G01X31761Y96817D01*
G01X31723Y96773D01*
G01X31678Y96724D01*
G01X31630Y96672D01*
G01X31577Y96616D01*
G01X31521Y96557D01*
G01X31463Y96496D01*
G01X31402Y96434D01*
G01X31340Y96372D01*
G01X31278Y96309D01*
G01X31215Y96247D01*
G01X31153Y96186D01*
G01X31092Y96128D01*
G01X31033Y96072D01*
G01X30977Y96018D01*
G01X30924Y95969D01*
G01X30875Y95924D01*
G01X30830Y95885D01*
G01X30791Y95851D01*
G01X30757Y95823D01*
G01X30730Y95803D01*
G01X30710Y95790D01*
G01X30698Y95786D01*
G01X30647Y95780D01*
G01X30619Y95765D01*
G01X30613Y95737D01*
G01X30628Y95696D01*
G01X30647Y95672D01*
G01X30673Y95656D01*
G01X30708Y95645D01*
G01X30749Y95642D01*
G01X30769Y95643D01*
G01X30790Y95648D01*
G01X30813Y95658D01*
G01X30839Y95674D01*
G01X30871Y95697D01*
G01X30908Y95728D01*
G01X30953Y95768D01*
G01X31006Y95819D01*
G01X31070Y95882D01*
G01X31144Y95957D01*
G01X31232Y96047D01*
G01X31333Y96151D01*
G01X31827Y96661D01*
G01X32026Y96652D01*
G01X32226Y96643D01*
G01X32385Y96789D01*
G01X32442Y96839D01*
G01X32490Y96878D01*
G01X32531Y96906D01*
G01X32567Y96923D01*
G01X32600Y96931D01*
G01X32632Y96930D01*
G01X32664Y96920D01*
G01X32700Y96904D01*
G01X32716Y96893D01*
G01X32732Y96878D01*
G01X32749Y96860D01*
G01X32765Y96838D01*
G01X32781Y96812D01*
G01X32797Y96783D01*
G01X32813Y96750D01*
G01X32828Y96713D01*
G01X32844Y96673D01*
G01X32859Y96630D01*
G01X32875Y96583D01*
G01X32890Y96532D01*
G01X32905Y96479D01*
G01X32919Y96422D01*
G01X32934Y96363D01*
G01X32948Y96300D01*
G01X32962Y96233D01*
G01X32976Y96164D01*
G01X32989Y96092D01*
G01X33003Y96017D01*
G01X33015Y95939D01*
G01X33028Y95859D01*
G01X33040Y95775D01*
G01X33052Y95689D01*
G01X33064Y95600D01*
G01X33075Y95509D01*
G01X33085Y95415D01*
G01X33096Y95319D01*
G01X33106Y95232D01*
G01X33119Y95162D01*
G01X33133Y95108D01*
G01X33152Y95068D01*
G01X33175Y95040D01*
G01X33205Y95022D01*
G01X33241Y95012D01*
G01X33286Y95010D01*
G01X33304Y95010D01*
G01X33323Y95012D01*
G01X33341Y95015D01*
G01X33361Y95022D01*
G01X33383Y95033D01*
G01X33409Y95047D01*
G01X33439Y95068D01*
G01X33474Y95095D01*
G01X33516Y95128D01*
G01X33566Y95169D01*
G01X33624Y95220D01*
G01X33693Y95279D01*
G01X33772Y95349D01*
G01X33863Y95429D01*
G01X33967Y95522D01*
G01X34085Y95628D01*
G01X34181Y95714D01*
G01X34265Y95791D01*
G01X34336Y95859D01*
G01X34396Y95921D01*
G01X34447Y95976D01*
G01X34489Y96026D01*
G01X34522Y96074D01*
G01X34549Y96118D01*
G01X34570Y96162D01*
G01X34586Y96207D01*
G01X34597Y96253D01*
G01X34606Y96303D01*
G01X34608Y96332D01*
G01X34608Y96371D01*
G01X34607Y96419D01*
G01X34604Y96474D01*
G01X34599Y96537D01*
G01X34592Y96605D01*
G01X34584Y96678D01*
G01X34574Y96755D01*
G01X34564Y96836D01*
G01X34552Y96918D01*
G01X34539Y97002D01*
G01X34525Y97086D01*
G01X34510Y97170D01*
G01X34495Y97252D01*
G01X34479Y97332D01*
G01X34463Y97409D01*
G01X34439Y97521D01*
G01X34417Y97621D01*
G01X34398Y97709D01*
G01X34381Y97786D01*
G01X34367Y97852D01*
G01X34355Y97908D01*
G01X34346Y97956D01*
G01X34338Y97995D01*
G01X34332Y98027D01*
G01X34327Y98051D01*
G01X34322Y98081D01*
G01X34328Y98098D01*
G01X34346Y98120D01*
G01X34376Y98145D01*
G01X34417Y98172D01*
G01X34466Y98201D01*
G01X34524Y98231D01*
G01X34587Y98262D01*
G01X34656Y98294D01*
G01X34729Y98325D01*
G01X34805Y98355D01*
G01X34882Y98383D01*
G01X34960Y98410D01*
G01X35036Y98435D01*
G01X35110Y98456D01*
G01X35180Y98473D01*
G01X35245Y98487D01*
G01X35286Y98493D01*
G01X35332Y98497D01*
G01X35382Y98501D01*
G01X35433Y98503D01*
G01X35486Y98504D01*
G01X35538Y98504D01*
G01X35587Y98502D01*
G01X35634Y98499D01*
G01X35718Y98494D01*
G01X35798Y98494D01*
G01X35871Y98499D01*
G01X35939Y98509D01*
G01X36001Y98525D01*
G01X36057Y98546D01*
G01X36106Y98571D01*
G01X36150Y98602D01*
G01X36186Y98637D01*
G01X36217Y98679D01*
G01X36241Y98724D01*
G01X36259Y98775D01*
G01X36269Y98826D01*
G01X36270Y98878D01*
G01X36265Y98929D01*
G01X36252Y98977D01*
G01X36232Y99023D01*
G01X36206Y99065D01*
G01X36175Y99101D01*
G01X36137Y99131D01*
G01X36101Y99152D01*
G01X36064Y99169D01*
G01X36025Y99182D01*
G01X35984Y99190D01*
G01X35939Y99195D01*
G01X35891Y99195D01*
G01X35839Y99191D01*
G01X35782Y99183D01*
G01X35720Y99170D01*
G01X35653Y99153D01*
G01X35579Y99132D01*
G01X35498Y99106D01*
G01X35443Y99088D01*
G01X35393Y99072D01*
G01X35348Y99058D01*
G01X35305Y99046D01*
G01X35263Y99035D01*
G01X35222Y99026D01*
G01X35178Y99018D01*
G01X35132Y99011D01*
G01X35081Y99006D01*
G01X35024Y99000D01*
G01X34960Y98996D01*
G01X34887Y98991D01*
G01X34804Y98986D01*
G01X34709Y98982D01*
G01X34601Y98977D01*
G01X34479Y98972D01*
G01X34405Y98969D01*
G01X34329Y98966D01*
G01X34251Y98963D01*
G01X34172Y98961D01*
G01X34013Y98956D01*
G01X33933Y98955D01*
G01X33856Y98953D01*
G01X33779Y98952D01*
G01X33705Y98951D01*
G01X33634Y98950D01*
G01X33445Y98950D01*
G01X33391Y98951D01*
G01X33344Y98951D01*
G01X33250Y98954D01*
G01X33165Y98958D01*
G01X33090Y98962D01*
G01X33023Y98968D01*
G01X32963Y98976D01*
G01X32907Y98987D01*
G01X32857Y99001D01*
G01X32809Y99018D01*
G01X32764Y99040D01*
G01X32720Y99066D01*
G01X32676Y99098D01*
G01X32630Y99134D01*
G01X32582Y99177D01*
G01X32531Y99226D01*
G01X32474Y99282D01*
G01X32413Y99345D01*
G01X32347Y99414D01*
G01X32288Y99477D01*
G01X32236Y99535D01*
G01X32188Y99588D01*
G01X32147Y99639D01*
G01X32110Y99686D01*
G01X32079Y99731D01*
G01X32051Y99774D01*
G01X32028Y99816D01*
G01X32009Y99857D01*
G01X31992Y99897D01*
G01X31979Y99938D01*
G01X31969Y99981D01*
G01X31961Y100024D01*
G01X31955Y100071D01*
G01X31950Y100119D01*
G01X31942Y100202D01*
G01X31930Y100272D01*
G01X31915Y100333D01*
G01X31893Y100385D01*
G01X31867Y100430D01*
G01X31834Y100470D01*
G01X31795Y100504D01*
G01X31747Y100536D01*
G01X31711Y100553D01*
G01X31666Y100568D01*
G01X31614Y100581D01*
G01X31557Y100590D01*
G01X31498Y100597D01*
G01X31441Y100599D01*
G37*

%LPC*%
G36*
G01X33662Y97872D02*
G01X33644Y97882D01*
G01X33627Y97876D01*
G01X33591Y97862D01*
G01X33543Y97841D01*
G01X33486Y97815D01*
G01X33426Y97784D01*
G01X33371Y97752D01*
G01X33322Y97718D01*
G01X33281Y97686D01*
G01X33250Y97657D01*
G01X33231Y97632D01*
G01X33226Y97613D01*
G01X33237Y97602D01*
G01X33250Y97591D01*
G01X33260Y97569D01*
G01X33267Y97539D01*
G01X33270Y97504D01*
G01X33272Y97457D01*
G01X33277Y97407D01*
G01X33286Y97354D01*
G01X33297Y97299D01*
G01X33311Y97243D01*
G01X33328Y97186D01*
G01X33347Y97128D01*
G01X33368Y97070D01*
G01X33391Y97013D01*
G01X33416Y96958D01*
G01X33442Y96905D01*
G01X33470Y96854D01*
G01X33498Y96806D01*
G01X33527Y96761D01*
G01X33557Y96721D01*
G01X33587Y96686D01*
G01X33633Y96631D01*
G01X33667Y96575D01*
G01X33691Y96521D01*
G01X33703Y96468D01*
G01X33704Y96416D01*
G01X33695Y96367D01*
G01X33673Y96320D01*
G01X33641Y96278D01*
G01X33592Y96234D01*
G01X33538Y96200D01*
G01X33482Y96175D01*
G01X33427Y96162D01*
G01X33375Y96160D01*
G01X33329Y96169D01*
G01X33293Y96190D01*
G01X33269Y96223D01*
G01X33258Y96243D01*
G01X33253Y96233D01*
G01X33253Y96191D01*
G01X33260Y96116D01*
G01X33267Y96047D01*
G01X33276Y95988D01*
G01X33284Y95944D01*
G01X33290Y95922D01*
G01X33311Y95909D01*
G01X33352Y95902D01*
G01X33411Y95902D01*
G01X33482Y95907D01*
G01X33563Y95917D01*
G01X33650Y95932D01*
G01X33739Y95952D01*
G01X33826Y95976D01*
G01X33851Y95981D01*
G01X33866Y95976D01*
G01X33871Y95958D01*
G01X33869Y95925D01*
G01X33856Y95888D01*
G01X33828Y95852D01*
G01X33788Y95819D01*
G01X33737Y95789D01*
G01X33679Y95764D01*
G01X33614Y95745D01*
G01X33545Y95733D01*
G01X33475Y95729D01*
G01X33320Y95728D01*
G01X33338Y95595D01*
G01X33345Y95540D01*
G01X33351Y95489D01*
G01X33355Y95448D01*
G01X33356Y95421D01*
G01X33366Y95421D01*
G01X33392Y95437D01*
G01X33434Y95466D01*
G01X33490Y95508D01*
G01X33558Y95561D01*
G01X33636Y95623D01*
G01X33721Y95694D01*
G01X33812Y95771D01*
G01X33898Y95844D01*
G01X33972Y95908D01*
G01X34037Y95966D01*
G01X34093Y96016D01*
G01X34141Y96060D01*
G01X34180Y96099D01*
G01X34212Y96133D01*
G01X34238Y96162D01*
G01X34257Y96188D01*
G01X34272Y96211D01*
G01X34281Y96231D01*
G01X34287Y96249D01*
G01X34296Y96303D01*
G01X34302Y96362D01*
G01X34305Y96424D01*
G01X34306Y96489D01*
G01X34304Y96557D01*
G01X34299Y96627D01*
G01X34292Y96699D01*
G01X34283Y96772D01*
G01X34272Y96845D01*
G01X34259Y96919D01*
G01X34244Y96992D01*
G01X34227Y97064D01*
G01X34209Y97135D01*
G01X34188Y97203D01*
G01X34167Y97269D01*
G01X34143Y97332D01*
G01X34118Y97391D01*
G01X34093Y97446D01*
G01X34066Y97496D01*
G01X34037Y97541D01*
G01X34000Y97587D01*
G01X33947Y97644D01*
G01X33883Y97703D01*
G01X33816Y97758D01*
G01X33754Y97806D01*
G01X33700Y97845D01*
G01X33662Y97872D01*
G37*
G36*
G01X32912Y98363D02*
G01X32868Y98365D01*
G01X32829Y98358D01*
G01X32798Y98341D01*
G01X32774Y98316D01*
G01X32758Y98283D01*
G01X32753Y98242D01*
G01X32765Y98192D01*
G01X32798Y98149D01*
G01X32846Y98114D01*
G01X32903Y98089D01*
G01X32964Y98076D01*
G01X33024Y98077D01*
G01X33076Y98093D01*
G01X33115Y98126D01*
G01X33136Y98178D01*
G01X33124Y98231D01*
G01X33083Y98281D01*
G01X33012Y98328D01*
G01X32961Y98350D01*
G01X32912Y98363D01*
G37*

%LPD*%
G36*
G01X33554Y97183D02*
G01X33520Y97186D01*
G01X33493Y97182D01*
G01X33474Y97172D01*
G01X33462Y97154D01*
G01X33460Y97113D01*
G01X33496Y97080D01*
G01X33578Y97052D01*
G01X33715Y97024D01*
G01X33804Y97005D01*
G01X33898Y96978D01*
G01X33986Y96948D01*
G01X34055Y96918D01*
G01X34151Y96871D01*
G01X34200Y96854D01*
G01X34216Y96865D01*
G01X34218Y96902D01*
G01X34209Y96941D01*
G01X34183Y96980D01*
G01X34142Y97017D01*
G01X34086Y97053D01*
G01X34020Y97085D01*
G01X33943Y97112D01*
G01X33858Y97134D01*
G01X33767Y97151D01*
G01X33708Y97159D01*
G01X33648Y97167D01*
G01X33594Y97175D01*
G01X33554Y97183D01*
G37*

%LPD*%
G54D10*
G01X63510Y60358D02*
G01X63510Y57159D01*
G01X62210Y57159D02*
G01X63510Y57159D01*
G01X62210Y57159D02*
G01X62210Y60358D01*
G01X63510Y60358D02*
G01X62210Y60358D01*
G54D39*
G01X79770Y41652D02*
G01X80870Y41652D01*
G01X80870Y40051D01*
G01X79770Y40051D01*
G01X78970Y41652D02*
G01X77870Y41652D01*
G01X77870Y40652D01*
G01X77870Y40051D01*
G01X78970Y40051D01*
G01X34558Y53971D02*
G01X35658Y53971D01*
G01X35658Y52370D01*
G01X34558Y52370D01*
G01X33758Y53971D02*
G01X32658Y53971D01*
G01X32658Y52971D01*
G01X32658Y52370D01*
G01X33758Y52370D01*
G01X16143Y20316D02*
G01X17243Y20316D01*
G01X17243Y18715D01*
G01X16143Y18715D01*
G01X15343Y20316D02*
G01X14243Y20316D01*
G01X14243Y19316D01*
G01X14243Y18715D01*
G01X15343Y18715D01*
G01X70880Y42795D02*
G01X71980Y42795D01*
G01X71980Y41194D01*
G01X70880Y41194D01*
G01X70080Y42795D02*
G01X68980Y42795D01*
G01X68980Y41795D01*
G01X68980Y41194D01*
G01X70080Y41194D01*
G01X89385Y53513D02*
G01X88285Y53513D01*
G01X88285Y55114D01*
G01X89385Y55114D01*
G01X90184Y53513D02*
G01X91285Y53513D01*
G01X91285Y54513D01*
G01X91285Y55114D01*
G01X90184Y55114D01*
G01X89385Y55799D02*
G01X88285Y55799D01*
G01X88285Y57400D01*
G01X89385Y57400D01*
G01X90184Y55799D02*
G01X91285Y55799D01*
G01X91285Y56799D01*
G01X91285Y57400D01*
G01X90184Y57400D01*
G01X90184Y39874D02*
G01X91284Y39874D01*
G01X91284Y38273D01*
G01X90184Y38273D01*
G01X89384Y39874D02*
G01X88284Y39874D01*
G01X88284Y38874D01*
G01X88284Y38273D01*
G01X89384Y38273D01*
G01X87390Y65655D02*
G01X88490Y65655D01*
G01X88490Y64054D01*
G01X87390Y64054D01*
G01X86590Y65655D02*
G01X85490Y65655D01*
G01X85490Y64655D01*
G01X85490Y64054D01*
G01X86590Y64054D01*
G01X48872Y39924D02*
G01X47772Y39924D01*
G01X47772Y41525D01*
G01X48872Y41525D01*
G01X49671Y39924D02*
G01X50772Y39924D01*
G01X50772Y40924D01*
G01X50772Y41525D01*
G01X49671Y41525D01*
G01X94121Y77847D02*
G01X95221Y77847D01*
G01X95221Y76246D01*
G01X94121Y76246D01*
G01X93321Y77847D02*
G01X92221Y77847D01*
G01X92221Y76847D01*
G01X92221Y76246D01*
G01X93321Y76246D01*
G01X41924Y30857D02*
G01X43024Y30857D01*
G01X43024Y29256D01*
G01X41924Y29256D01*
G01X41124Y30857D02*
G01X40024Y30857D01*
G01X40024Y29857D01*
G01X40024Y29256D01*
G01X41124Y29256D01*
G01X81675Y22348D02*
G01X82775Y22348D01*
G01X82775Y20747D01*
G01X81675Y20747D01*
G01X80875Y22348D02*
G01X79775Y22348D01*
G01X79775Y21348D01*
G01X79775Y20747D01*
G01X80875Y20747D01*
G01X27663Y27986D02*
G01X26563Y27986D01*
G01X26563Y29587D01*
G01X27663Y29587D01*
G01X28462Y27986D02*
G01X29563Y27986D01*
G01X29563Y28986D01*
G01X29563Y29587D01*
G01X28462Y29587D01*
G54D10*
G01X95942Y59329D02*
G01X101682Y59329D01*
G01X95932Y59329D02*
G01X95932Y51329D01*
G01X95932Y51329D02*
G01X101672Y51329D01*
G01X101692Y59329D02*
G01X101692Y51329D01*
G01X100982Y58719D02*
G01X100982Y51949D01*
G01X101692Y59309D02*
G01X101572Y59309D01*
G01X100982Y58719D01*
G01X101672Y51359D02*
G01X101572Y51359D01*
G01X100982Y51949D01*
G01X49906Y50148D02*
G01X50262Y50148D01*
G01X50262Y50503D01*
G01X46604Y50148D02*
G01X46249Y50148D01*
G01X46249Y50503D01*
G01X50262Y53805D02*
G01X50262Y54161D01*
G01X49906Y54161D01*
G01X46604Y54161D02*
G01X46249Y53805D01*
G54D39*
G01X38204Y82088D02*
G01X37104Y82088D01*
G01X37104Y83689D01*
G01X38204Y83689D01*
G01X39003Y82088D02*
G01X40104Y82088D01*
G01X40104Y83088D01*
G01X40104Y83689D01*
G01X39003Y83689D01*
G01X21313Y42083D02*
G01X20213Y42083D01*
G01X20213Y43684D01*
G01X21313Y43684D01*
G01X22112Y42083D02*
G01X23213Y42083D01*
G01X23213Y43083D01*
G01X23213Y43684D01*
G01X22112Y43684D01*
G01X17159Y39874D02*
G01X18259Y39874D01*
G01X18259Y38273D01*
G01X17159Y38273D01*
G01X16359Y39874D02*
G01X15259Y39874D01*
G01X15259Y38874D01*
G01X15259Y38273D01*
G01X16359Y38273D01*
G01X34050Y42922D02*
G01X35150Y42922D01*
G01X35150Y41321D01*
G01X34050Y41321D01*
G01X33250Y42922D02*
G01X32150Y42922D01*
G01X32150Y41922D01*
G01X32150Y41321D01*
G01X33250Y41321D01*
G54D40*
G01X97191Y14875D02*
G01X95844Y13528D01*
G01X97640Y11732D01*
G01X103028Y17121D01*
G01X101232Y18917D01*
G54D41*
G01X101232Y18917D02*
G01X97191Y14875D01*
G54D40*
G01X91757Y97407D02*
G01X93104Y96060D01*
G01X94900Y97856D01*
G01X89512Y103245D01*
G01X87716Y101449D01*
G54D41*
G01X87716Y101449D02*
G01X91757Y97407D01*
G54D40*
G01X15167Y9188D02*
G01X13820Y10535D01*
G01X12024Y8739D01*
G01X17412Y3350D01*
G01X19208Y5146D01*
G54D41*
G01X19208Y5146D02*
G01X15167Y9188D01*
G54D40*
G01X9606Y91719D02*
G01X10953Y93067D01*
G01X9157Y94863D01*
G01X3769Y89474D01*
G01X5565Y87678D01*
G54D41*
G01X5565Y87678D02*
G01X9606Y91719D01*
G54D10*
G01X60984Y75945D02*
G01X55084Y75945D01*
G01X55084Y70045D01*
G01X60984Y70045D01*
G01X60984Y75945D01*
G01X44573Y67028D02*
G01X43823Y67028D01*
G01X43823Y78428D01*
G01X44573Y78428D01*
G01X47873Y67028D02*
G01X48623Y67028D01*
G01X48623Y78428D01*
G01X47873Y78428D01*
G54D39*
G01X36971Y78990D02*
G01X38071Y78990D01*
G01X38071Y77389D01*
G01X36971Y77389D01*
G01X36171Y78990D02*
G01X35071Y78990D01*
G01X35071Y77990D01*
G01X35071Y77389D01*
G01X36171Y77389D01*
G01X29986Y63623D02*
G01X31086Y63623D01*
G01X31086Y62022D01*
G01X29986Y62022D01*
G01X29186Y63623D02*
G01X28086Y63623D01*
G01X28086Y62623D01*
G01X28086Y62022D01*
G01X29186Y62022D01*
G01X32545Y14417D02*
G01X32545Y13317D01*
G01X30945Y13317D01*
G01X30945Y14417D01*
G01X32545Y15217D02*
G01X32545Y16317D01*
G01X31545Y16317D01*
G01X30945Y16317D01*
G01X30945Y15217D01*
G01X72404Y94865D02*
G01X73504Y94865D01*
G01X73504Y93264D01*
G01X72404Y93264D01*
G01X71604Y94865D02*
G01X70504Y94865D01*
G01X70504Y93865D01*
G01X70504Y93264D01*
G01X71604Y93264D01*
G01X8015Y76577D02*
G01X9115Y76577D01*
G01X9115Y74976D01*
G01X8015Y74976D01*
G01X7215Y76577D02*
G01X6115Y76577D01*
G01X6115Y75577D01*
G01X6115Y74976D01*
G01X7215Y74976D01*
G01X38876Y89023D02*
G01X39976Y89023D01*
G01X39976Y87422D01*
G01X38876Y87422D01*
G01X38076Y89023D02*
G01X36976Y89023D01*
G01X36976Y88023D01*
G01X36976Y87422D01*
G01X38076Y87422D01*
G54D10*
G01X48928Y19784D02*
G01X49588Y19784D01*
G01X48928Y19784D01*
G01X49588Y19784D01*
G01X49588Y18969D01*
G01X46668Y18969D02*
G01X46668Y19784D01*
G01X47328Y19784D01*
G54D39*
G01X47828Y18235D02*
G01X48428Y18235D01*
G01X76976Y30476D02*
G01X78076Y30476D01*
G01X78076Y28875D01*
G01X76976Y28875D01*
G01X76176Y30476D02*
G01X75076Y30476D01*
G01X75076Y29476D01*
G01X75076Y28875D01*
G01X76176Y28875D01*
G01X23763Y20824D02*
G01X24863Y20824D01*
G01X24863Y19223D01*
G01X23763Y19223D01*
G01X22963Y20824D02*
G01X21863Y20824D01*
G01X21863Y19824D01*
G01X21863Y19223D01*
G01X22963Y19223D01*
G54D10*
G01X22093Y58885D02*
G01X22093Y48217D01*
G01X17013Y48217D01*
G01X17013Y58885D01*
G01X22093Y58885D01*
G54D39*
G01X72277Y79625D02*
G01X73377Y79625D01*
G01X73377Y78024D01*
G01X72277Y78024D01*
G01X71477Y79625D02*
G01X70377Y79625D01*
G01X70377Y78625D01*
G01X70377Y78024D01*
G01X71477Y78024D01*
G01X64911Y85848D02*
G01X66011Y85848D01*
G01X66011Y84247D01*
G01X64911Y84247D01*
G01X64111Y85848D02*
G01X63011Y85848D01*
G01X63011Y84848D01*
G01X63011Y84247D01*
G01X64111Y84247D01*
G01X63768Y89531D02*
G01X64868Y89531D01*
G01X64868Y87930D01*
G01X63768Y87930D01*
G01X62968Y89531D02*
G01X61868Y89531D01*
G01X61868Y88531D01*
G01X61868Y87930D01*
G01X62968Y87930D01*
G54D40*
G01X49398Y10879D02*
G01X49398Y5799D01*
G01X57018Y5799D01*
G01X57018Y10879D01*
G01X49398Y10879D01*
G01X54267Y10879D01*
G54D10*
G01X100987Y87564D02*
G01X93444Y95108D01*
G01X95599Y97263D01*
G01X103143Y89719D01*
G01X100987Y87564D01*
G01X99012Y89540D02*
G01X101167Y91695D01*
G01X19450Y101077D02*
G01X11906Y93533D01*
G01X9751Y95688D01*
G01X17294Y103232D01*
G01X19450Y101077D01*
G01X17474Y99101D02*
G01X15319Y101256D01*
G01X5429Y19666D02*
G01X12973Y12122D01*
G01X10817Y9967D01*
G01X3274Y17511D01*
G01X5429Y19666D01*
G01X7405Y17690D02*
G01X5250Y15535D01*
G01X87475Y5645D02*
G01X95018Y13189D01*
G01X97174Y11034D01*
G01X89630Y3490D01*
G01X87475Y5645D01*
G01X89451Y7621D02*
G01X91606Y5466D01*
G01X59596Y19276D02*
G01X60256Y19276D01*
G01X59596Y19276D01*
G01X60256Y19276D01*
G01X60256Y18461D01*
G01X57336Y18461D02*
G01X57336Y19276D01*
G01X57996Y19276D01*
G54D39*
G01X58496Y17727D02*
G01X59096Y17727D01*
G54D10*
G01X54262Y22578D02*
G01X54922Y22578D01*
G01X54262Y22578D01*
G01X54922Y22578D01*
G01X54922Y21763D01*
G01X52002Y21763D02*
G01X52002Y22578D01*
G01X52662Y22578D01*
G54D39*
G01X53162Y21029D02*
G01X53762Y21029D01*
G54D10*
G01X9139Y60536D02*
G01X9139Y47328D01*
G01X6091Y47328D01*
G01X6091Y60536D01*
G01X9139Y60536D01*
G01X9139Y57742D02*
G01X6091Y57742D01*
G54D39*
G01X60466Y81911D02*
G01X61566Y81911D01*
G01X61566Y80310D01*
G01X60466Y80310D01*
G01X59666Y81911D02*
G01X58566Y81911D01*
G01X58566Y80911D01*
G01X58566Y80310D01*
G01X59666Y80310D01*
G01X53735Y82292D02*
G01X54835Y82292D01*
G01X54835Y80691D01*
G01X53735Y80691D01*
G01X52935Y82292D02*
G01X51835Y82292D01*
G01X51835Y81292D01*
G01X51835Y80691D01*
G01X52935Y80691D01*
G54D10*
G01X63737Y34598D02*
G01X64753Y34598D01*
G01X64245Y35106D02*
G01X64245Y34090D01*
G54D39*
G01X92216Y72513D02*
G01X93316Y72513D01*
G01X93316Y70912D01*
G01X92216Y70912D01*
G01X91416Y72513D02*
G01X90316Y72513D01*
G01X90316Y71513D01*
G01X90316Y70912D01*
G01X91416Y70912D01*
G01X96661Y65147D02*
G01X97761Y65147D01*
G01X97761Y63546D01*
G01X96661Y63546D01*
G01X95861Y65147D02*
G01X94761Y65147D01*
G01X94761Y64147D01*
G01X94761Y63546D01*
G01X95861Y63546D01*
G54D10*
G01X99043Y73338D02*
G01X97569Y73338D01*
G01X99043Y71611D02*
G01X97569Y71611D01*
G01X99043Y71611D02*
G01X99043Y73338D01*
G01X96985Y73338D02*
G01X95817Y73338D01*
G01X96960Y71611D02*
G01X95817Y71611D01*
G01X95817Y71611D02*
G01X95461Y71966D01*
G01X95461Y72982D01*
G01X95817Y73338D01*
G54D42*
G01X97417Y72093D02*
G01X97417Y72881D01*
G01X97163Y72627D01*
G01X97163Y72271D01*
G01X97417Y72017D01*
G01X97417Y72246D01*
G01X97290Y72703D02*
G01X97290Y72195D01*
G54D10*
G01X98789Y69147D02*
G01X97315Y69147D01*
G01X98789Y67420D02*
G01X97315Y67420D01*
G01X98789Y67420D02*
G01X98789Y69147D01*
G01X96731Y69147D02*
G01X95563Y69147D01*
G01X96706Y67420D02*
G01X95563Y67420D01*
G01X95563Y67420D02*
G01X95207Y67775D01*
G01X95207Y68791D01*
G01X95563Y69147D01*
G54D42*
G01X97163Y67902D02*
G01X97163Y68690D01*
G01X96909Y68436D01*
G01X96909Y68080D01*
G01X97163Y67826D01*
G01X97163Y68055D01*
G01X97036Y68512D02*
G01X97036Y68004D01*
G54D39*
G01X97804Y44319D02*
G01X98904Y44319D01*
G01X98904Y42718D01*
G01X97804Y42718D01*
G01X97004Y44319D02*
G01X95904Y44319D01*
G01X95904Y43319D01*
G01X95904Y42718D01*
G01X97004Y42718D01*
G54D10*
G01X99424Y48065D02*
G01X97950Y48065D01*
G01X99424Y46338D02*
G01X97950Y46338D01*
G01X99424Y46338D02*
G01X99424Y48065D01*
G01X97366Y48065D02*
G01X96198Y48065D01*
G01X97341Y46338D02*
G01X96198Y46338D01*
G01X96198Y46338D02*
G01X95842Y46693D01*
G01X95842Y47709D01*
G01X96198Y48065D01*
G54D42*
G01X97798Y46820D02*
G01X97798Y47608D01*
G01X97544Y47354D01*
G01X97544Y46998D01*
G01X97798Y46744D01*
G01X97798Y46973D01*
G01X97671Y47430D02*
G01X97671Y46922D01*
G54D39*
G01X77778Y57928D02*
G01X69278Y57928D01*
G01X69278Y49428D01*
G01X77778Y49428D01*
G01X77778Y57928D01*
G54D10*
G01X72258Y71712D02*
G01X73528Y71712D01*
G01X74544Y70696D01*
G01X76322Y71712D02*
G01X75306Y71712D01*
G01X76540Y73962D02*
G01X76540Y69462D01*
G01X72040Y69462D01*
G01X72040Y73962D01*
G01X76540Y73962D01*
G54D40*
G01X39089Y100574D02*
G01X38349Y98636D01*
G01X39089Y100574D02*
G01X39828Y98636D01*
G01X38626Y99282D02*
G01X39551Y99282D01*
G01X40437Y100574D02*
G01X40437Y98636D01*
G01X41047Y100574D02*
G01X41047Y98636D01*
G01X41656Y99467D02*
G01X43318Y99467D01*
G01X43927Y100574D02*
G01X43927Y98636D01*
G01X44537Y99929D02*
G01X44537Y98636D01*
G01X44537Y99558D02*
G01X44814Y99835D01*
G01X44999Y99929D01*
G01X45276Y99929D01*
G01X45461Y99835D01*
G01X45553Y99558D01*
G01X45553Y98636D01*
G01X46162Y99467D02*
G01X47826Y99467D01*
G01X48436Y100206D02*
G01X48621Y100298D01*
G01X48898Y100574D01*
G01X48898Y98636D01*
G01X50930Y100574D02*
G01X50930Y98636D01*
G01X50930Y100574D02*
G01X52129Y100574D01*
G01X50930Y99652D02*
G01X51669Y99652D01*
G01X52738Y100574D02*
G01X52738Y98636D01*
G01X53348Y100574D02*
G01X53442Y100483D01*
G01X53533Y100574D01*
G01X53442Y100668D01*
G01X53348Y100574D01*
G01X53442Y99929D02*
G01X53442Y98636D01*
G01X55253Y99929D02*
G01X55253Y98451D01*
G01X55159Y98174D01*
G01X55068Y98083D01*
G01X54882Y97989D01*
G01X54605Y97989D01*
G01X54420Y98083D01*
G01X55253Y99652D02*
G01X55068Y99835D01*
G01X54882Y99929D01*
G01X54605Y99929D01*
G01X54420Y99835D01*
G01X54237Y99652D01*
G01X54143Y99376D01*
G01X54143Y99190D01*
G01X54237Y98913D01*
G01X54420Y98728D01*
G01X54605Y98636D01*
G01X54882Y98636D01*
G01X55068Y98728D01*
G01X55253Y98913D01*
G01X55863Y100574D02*
G01X55863Y98636D01*
G01X55863Y99558D02*
G01X56140Y99835D01*
G01X56322Y99929D01*
G01X56599Y99929D01*
G01X56785Y99835D01*
G01X56879Y99558D01*
G01X56879Y98636D01*
G01X57765Y100574D02*
G01X57765Y99005D01*
G01X57857Y98728D01*
G01X58042Y98636D01*
G01X58225Y98636D01*
G01X57488Y99929D02*
G01X58133Y99929D01*
G01X61644Y100115D02*
G01X61552Y100298D01*
G01X61367Y100483D01*
G01X61181Y100574D01*
G01X60813Y100574D01*
G01X60628Y100483D01*
G01X60442Y100298D01*
G01X60351Y100115D01*
G01X60257Y99835D01*
G01X60257Y99376D01*
G01X60351Y99099D01*
G01X60442Y98913D01*
G01X60628Y98728D01*
G01X60813Y98636D01*
G01X61181Y98636D01*
G01X61367Y98728D01*
G01X61552Y98913D01*
G01X61644Y99099D01*
G01X62716Y99929D02*
G01X62530Y99835D01*
G01X62345Y99652D01*
G01X62253Y99376D01*
G01X62253Y99190D01*
G01X62345Y98913D01*
G01X62530Y98728D01*
G01X62716Y98636D01*
G01X62992Y98636D01*
G01X63178Y98728D01*
G01X63361Y98913D01*
G01X63455Y99190D01*
G01X63455Y99376D01*
G01X63361Y99652D01*
G01X63178Y99835D01*
G01X62992Y99929D01*
G01X62716Y99929D01*
G01X64064Y99929D02*
G01X64064Y98636D01*
G01X64064Y99558D02*
G01X64341Y99835D01*
G01X64524Y99929D01*
G01X64803Y99929D01*
G01X64986Y99835D01*
G01X65080Y99558D01*
G01X65080Y98636D01*
G01X65967Y100574D02*
G01X65967Y99005D01*
G01X66058Y98728D01*
G01X66244Y98636D01*
G01X66429Y98636D01*
G01X65690Y99929D02*
G01X66335Y99929D01*
G01X67039Y99929D02*
G01X67039Y98636D01*
G01X67039Y99376D02*
G01X67130Y99652D01*
G01X67316Y99835D01*
G01X67498Y99929D01*
G01X67775Y99929D01*
G01X68847Y99929D02*
G01X68664Y99835D01*
G01X68479Y99652D01*
G01X68385Y99376D01*
G01X68385Y99190D01*
G01X68479Y98913D01*
G01X68664Y98728D01*
G01X68847Y98636D01*
G01X69124Y98636D01*
G01X69309Y98728D01*
G01X69495Y98913D01*
G01X69586Y99190D01*
G01X69586Y99376D01*
G01X69495Y99652D01*
G01X69309Y99835D01*
G01X69124Y99929D01*
G01X68847Y99929D01*
G01X70196Y100574D02*
G01X70196Y98636D01*
G01X70805Y100574D02*
G01X70805Y98636D01*
G01X71415Y99376D02*
G01X72525Y99376D01*
G01X72525Y99558D01*
G01X72431Y99744D01*
G01X72340Y99835D01*
G01X72154Y99929D01*
G01X71877Y99929D01*
G01X71692Y99835D01*
G01X71509Y99652D01*
G01X71415Y99376D01*
G01X71415Y99190D01*
G01X71509Y98913D01*
G01X71692Y98728D01*
G01X71877Y98636D01*
G01X72154Y98636D01*
G01X72340Y98728D01*
G01X72525Y98913D01*
G01X73135Y99929D02*
G01X73135Y98636D01*
G01X73135Y99376D02*
G01X73226Y99652D01*
G01X73412Y99835D01*
G01X73594Y99929D01*
G01X73871Y99929D01*

%LPD*%
G36*
G01X49250Y97437D02*
G01X49200Y97440D01*
G01X49148Y97437D01*
G01X49097Y97426D01*
G01X49046Y97409D01*
G01X48996Y97385D01*
G01X48946Y97356D01*
G01X48899Y97321D01*
G01X48854Y97282D01*
G01X48812Y97237D01*
G01X48794Y97417D01*
G01X48763Y97438D01*
G01X48448Y97316D01*
G01X48448Y97250D01*
G01X48626Y97232D01*
G01X48629Y97166D01*
G01X48631Y97099D01*
G01X48631Y96640D01*
G01X48630Y96541D01*
G01X48629Y96450D01*
G01X48464Y96424D01*
G01X48464Y96356D01*
G01X48977Y96356D01*
G01X48977Y96424D01*
G01X48822Y96450D01*
G01X48820Y96541D01*
G01X48818Y96640D01*
G01X48817Y96737D01*
G01X48817Y97153D01*
G01X48898Y97219D01*
G01X48973Y97264D01*
G01X49045Y97290D01*
G01X49119Y97298D01*
G01X49163Y97295D01*
G01X49201Y97284D01*
G01X49233Y97266D01*
G01X49258Y97239D01*
G01X49277Y97203D01*
G01X49291Y97157D01*
G01X49299Y97099D01*
G01X49302Y97029D01*
G01X49302Y96736D01*
G01X49301Y96638D01*
G01X49301Y96540D01*
G01X49299Y96450D01*
G01X49129Y96424D01*
G01X49129Y96356D01*
G01X49642Y96356D01*
G01X49642Y96424D01*
G01X49490Y96450D01*
G01X49487Y96540D01*
G01X49485Y96638D01*
G01X49485Y97036D01*
G01X49484Y97067D01*
G01X49483Y97096D01*
G01X49481Y97124D01*
G01X49477Y97151D01*
G01X49562Y97219D01*
G01X49639Y97264D01*
G01X49711Y97290D01*
G01X49782Y97298D01*
G01X49827Y97295D01*
G01X49866Y97286D01*
G01X49898Y97268D01*
G01X49925Y97242D01*
G01X49944Y97207D01*
G01X49959Y97161D01*
G01X49967Y97102D01*
G01X49970Y97031D01*
G01X49970Y96823D01*
G01X49969Y96736D01*
G01X49967Y96540D01*
G01X49965Y96450D01*
G01X49800Y96424D01*
G01X49800Y96356D01*
G01X50310Y96356D01*
G01X50310Y96424D01*
G01X50155Y96450D01*
G01X50153Y96540D01*
G01X50151Y96736D01*
G01X50150Y96823D01*
G01X50150Y97054D01*
G01X50145Y97150D01*
G01X50131Y97230D01*
G01X50108Y97297D01*
G01X50076Y97350D01*
G01X50035Y97390D01*
G01X49986Y97418D01*
G01X49930Y97435D01*
G01X49866Y97440D01*
G01X49812Y97437D01*
G01X49760Y97427D01*
G01X49707Y97412D01*
G01X49655Y97389D01*
G01X49605Y97360D01*
G01X49556Y97324D01*
G01X49509Y97282D01*
G01X49464Y97232D01*
G01X49447Y97282D01*
G01X49425Y97325D01*
G01X49399Y97361D01*
G01X49368Y97390D01*
G01X49333Y97412D01*
G01X49294Y97428D01*
G01X49250Y97437D01*
G37*

%LPD*%
G36*
G01X46335Y97986D02*
G01X46305Y98001D01*
G01X45969Y97907D01*
G01X45969Y97841D01*
G01X46150Y97824D01*
G01X46150Y96823D01*
G01X46149Y96737D01*
G01X46148Y96640D01*
G01X46147Y96541D01*
G01X46145Y96450D01*
G01X45980Y96424D01*
G01X45980Y96356D01*
G01X46490Y96356D01*
G01X46490Y96424D01*
G01X46335Y96450D01*
G01X46335Y96541D01*
G01X46334Y96640D01*
G01X46333Y96737D01*
G01X46333Y97153D01*
G01X46419Y97223D01*
G01X46499Y97269D01*
G01X46575Y97293D01*
G01X46650Y97300D01*
G01X46695Y97297D01*
G01X46733Y97287D01*
G01X46765Y97269D01*
G01X46792Y97242D01*
G01X46812Y97206D01*
G01X46826Y97159D01*
G01X46835Y97101D01*
G01X46838Y97031D01*
G01X46838Y96736D01*
G01X46837Y96638D01*
G01X46835Y96540D01*
G01X46833Y96450D01*
G01X46668Y96424D01*
G01X46668Y96356D01*
G01X47178Y96356D01*
G01X47178Y96424D01*
G01X47026Y96450D01*
G01X47024Y96540D01*
G01X47022Y96638D01*
G01X47021Y96736D01*
G01X47021Y97034D01*
G01X47016Y97135D01*
G01X47003Y97221D01*
G01X46980Y97291D01*
G01X46949Y97347D01*
G01X46909Y97389D01*
G01X46859Y97418D01*
G01X46801Y97435D01*
G01X46734Y97440D01*
G01X46680Y97436D01*
G01X46625Y97425D01*
G01X46571Y97407D01*
G01X46519Y97383D01*
G01X46467Y97352D01*
G01X46418Y97317D01*
G01X46371Y97277D01*
G01X46328Y97232D01*
G01X46328Y97669D01*
G01X46335Y97986D01*
G37*

%LPD*%
G36*
G01X40626Y97435D02*
G01X40574Y97440D01*
G01X40528Y97435D01*
G01X40482Y97421D01*
G01X40437Y97397D01*
G01X40394Y97364D01*
G01X40352Y97323D01*
G01X40314Y97273D01*
G01X40279Y97216D01*
G01X40249Y97151D01*
G01X40229Y97417D01*
G01X40198Y97438D01*
G01X39884Y97316D01*
G01X39884Y97250D01*
G01X40061Y97232D01*
G01X40064Y97166D01*
G01X40066Y97099D01*
G01X40066Y96639D01*
G01X40065Y96540D01*
G01X40064Y96450D01*
G01X39901Y96424D01*
G01X39901Y96356D01*
G01X40442Y96356D01*
G01X40442Y96424D01*
G01X40257Y96452D01*
G01X40255Y96542D01*
G01X40253Y96641D01*
G01X40252Y96737D01*
G01X40252Y96998D01*
G01X40287Y97091D01*
G01X40330Y97170D01*
G01X40382Y97237D01*
G01X40445Y97293D01*
G01X40473Y97267D01*
G01X40504Y97241D01*
G01X40537Y97221D01*
G01X40572Y97208D01*
G01X40610Y97204D01*
G01X40667Y97215D01*
G01X40707Y97246D01*
G01X40729Y97294D01*
G01X40737Y97356D01*
G01X40710Y97392D01*
G01X40672Y97418D01*
G01X40626Y97435D01*
G37*

%LPD*%
G36*
G01X39134Y97854D02*
G01X39005Y97854D01*
G01X38532Y96462D01*
G01X38349Y96432D01*
G01X38349Y96356D01*
G01X38847Y96356D01*
G01X38847Y96432D01*
G01X38629Y96462D01*
G01X38756Y96848D01*
G01X39274Y96848D01*
G01X39403Y96460D01*
G01X39182Y96432D01*
G01X39182Y96356D01*
G01X39790Y96356D01*
G01X39790Y96432D01*
G01X39614Y96452D01*
G01X39134Y97854D01*
G37*

%LPC*%
G36*
G01X39243Y96937D02*
G01X39012Y97628D01*
G01X38786Y96937D01*
G01X39243Y96937D01*
G37*

%LPD*%
G36*
G01X50972Y97434D02*
G01X50887Y97440D01*
G01X50798Y97434D01*
G01X50720Y97415D01*
G01X50653Y97386D01*
G01X50598Y97347D01*
G01X50555Y97301D01*
G01X50524Y97248D01*
G01X50505Y97191D01*
G01X50498Y97130D01*
G01X50503Y97076D01*
G01X50518Y97027D01*
G01X50541Y96984D01*
G01X50572Y96945D01*
G01X50611Y96910D01*
G01X50658Y96879D01*
G01X50711Y96852D01*
G01X50770Y96828D01*
G01X50874Y96795D01*
G01X50967Y96753D01*
G01X51031Y96709D01*
G01X51068Y96656D01*
G01X51080Y96592D01*
G01X51076Y96554D01*
G01X51065Y96519D01*
G01X51045Y96488D01*
G01X51017Y96462D01*
G01X50982Y96440D01*
G01X50939Y96425D01*
G01X50886Y96415D01*
G01X50826Y96411D01*
G01X50775Y96414D01*
G01X50727Y96421D01*
G01X50683Y96433D01*
G01X50643Y96450D01*
G01X50592Y96655D01*
G01X50488Y96655D01*
G01X50491Y96411D01*
G01X50572Y96375D01*
G01X50653Y96348D01*
G01X50735Y96333D01*
G01X50826Y96328D01*
G01X50894Y96331D01*
G01X50956Y96339D01*
G01X51013Y96353D01*
G01X51064Y96372D01*
G01X51109Y96395D01*
G01X51148Y96422D01*
G01X51181Y96452D01*
G01X51209Y96486D01*
G01X51230Y96523D01*
G01X51245Y96562D01*
G01X51255Y96602D01*
G01X51258Y96645D01*
G01X51254Y96696D01*
G01X51241Y96743D01*
G01X51219Y96788D01*
G01X51187Y96829D01*
G01X51145Y96867D01*
G01X51093Y96903D01*
G01X51029Y96935D01*
G01X50953Y96965D01*
G01X50877Y96993D01*
G01X50780Y97034D01*
G01X50715Y97076D01*
G01X50680Y97126D01*
G01X50668Y97191D01*
G01X50683Y97257D01*
G01X50724Y97309D01*
G01X50793Y97342D01*
G01X50887Y97354D01*
G01X50927Y97351D01*
G01X50967Y97343D01*
G01X51007Y97330D01*
G01X51047Y97313D01*
G01X51090Y97123D01*
G01X51189Y97123D01*
G01X51197Y97349D01*
G01X51125Y97388D01*
G01X51050Y97416D01*
G01X50972Y97434D01*
G37*

%LPD*%
G36*
G01X47867Y97438D02*
G01X47811Y97440D01*
G01X47729Y97436D01*
G01X47653Y97421D01*
G01X47585Y97398D01*
G01X47525Y97367D01*
G01X47474Y97327D01*
G01X47432Y97281D01*
G01X47401Y97226D01*
G01X47382Y97166D01*
G01X47391Y97130D01*
G01X47410Y97104D01*
G01X47440Y97088D01*
G01X47481Y97082D01*
G01X47519Y97088D01*
G01X47551Y97107D01*
G01X47575Y97139D01*
G01X47592Y97184D01*
G01X47636Y97336D01*
G01X47669Y97345D01*
G01X47701Y97351D01*
G01X47731Y97355D01*
G01X47760Y97356D01*
G01X47812Y97353D01*
G01X47857Y97344D01*
G01X47893Y97326D01*
G01X47923Y97300D01*
G01X47945Y97263D01*
G01X47961Y97215D01*
G01X47970Y97154D01*
G01X47973Y97079D01*
G01X47973Y97011D01*
G01X47906Y96995D01*
G01X47838Y96976D01*
G01X47774Y96956D01*
G01X47717Y96937D01*
G01X47618Y96899D01*
G01X47538Y96860D01*
G01X47474Y96821D01*
G01X47425Y96781D01*
G01X47390Y96739D01*
G01X47367Y96695D01*
G01X47355Y96649D01*
G01X47351Y96599D01*
G01X47357Y96537D01*
G01X47375Y96482D01*
G01X47401Y96435D01*
G01X47437Y96397D01*
G01X47481Y96367D01*
G01X47531Y96345D01*
G01X47586Y96332D01*
G01X47646Y96328D01*
G01X47693Y96330D01*
G01X47736Y96339D01*
G01X47777Y96352D01*
G01X47816Y96372D01*
G01X47855Y96397D01*
G01X47894Y96427D01*
G01X47935Y96464D01*
G01X47979Y96505D01*
G01X48001Y96433D01*
G01X48043Y96378D01*
G01X48102Y96342D01*
G01X48177Y96330D01*
G01X48233Y96336D01*
G01X48282Y96356D01*
G01X48327Y96391D01*
G01X48367Y96444D01*
G01X48326Y96488D01*
G01X48306Y96464D01*
G01X48286Y96446D01*
G01X48264Y96435D01*
G01X48238Y96432D01*
G01X48204Y96439D01*
G01X48178Y96464D01*
G01X48162Y96508D01*
G01X48156Y96574D01*
G01X48156Y97059D01*
G01X48154Y97125D01*
G01X48147Y97184D01*
G01X48135Y97235D01*
G01X48119Y97281D01*
G01X48097Y97320D01*
G01X48071Y97353D01*
G01X48040Y97381D01*
G01X48004Y97403D01*
G01X47963Y97420D01*
G01X47918Y97431D01*
G01X47867Y97438D01*
G37*

%LPC*%
G36*
G01X47973Y96587D02*
G01X47973Y96940D01*
G01X47915Y96923D01*
G01X47860Y96906D01*
G01X47810Y96889D01*
G01X47768Y96874D01*
G01X47703Y96845D01*
G01X47650Y96815D01*
G01X47611Y96784D01*
G01X47581Y96754D01*
G01X47560Y96723D01*
G01X47548Y96691D01*
G01X47541Y96660D01*
G01X47539Y96630D01*
G01X47553Y96553D01*
G01X47590Y96499D01*
G01X47647Y96467D01*
G01X47719Y96457D01*
G01X47775Y96464D01*
G01X47829Y96486D01*
G01X47892Y96526D01*
G01X47973Y96587D01*
G37*

%LPD*%
G36*
G01X44047Y97986D02*
G01X44019Y98001D01*
G01X43673Y97907D01*
G01X43673Y97841D01*
G01X43861Y97824D01*
G01X43861Y97295D01*
G01X43791Y97365D01*
G01X43719Y97410D01*
G01X43645Y97433D01*
G01X43569Y97440D01*
G01X43518Y97438D01*
G01X43470Y97430D01*
G01X43423Y97417D01*
G01X43379Y97400D01*
G01X43337Y97378D01*
G01X43298Y97352D01*
G01X43262Y97321D01*
G01X43229Y97287D01*
G01X43199Y97248D01*
G01X43172Y97205D01*
G01X43149Y97158D01*
G01X43130Y97108D01*
G01X43114Y97054D01*
G01X43103Y96997D01*
G01X43097Y96937D01*
G01X43094Y96874D01*
G01X43098Y96794D01*
G01X43109Y96720D01*
G01X43127Y96651D01*
G01X43152Y96588D01*
G01X43182Y96530D01*
G01X43220Y96479D01*
G01X43263Y96434D01*
G01X43311Y96397D01*
G01X43364Y96367D01*
G01X43422Y96345D01*
G01X43485Y96332D01*
G01X43551Y96328D01*
G01X43646Y96338D01*
G01X43729Y96369D01*
G01X43801Y96419D01*
G01X43864Y96485D01*
G01X43876Y96333D01*
G01X44222Y96356D01*
G01X44222Y96424D01*
G01X44039Y96444D01*
G01X44039Y97669D01*
G01X44047Y97986D01*
G37*

%LPC*%
G36*
G01X43662Y97323D02*
G01X43605Y97328D01*
G01X43562Y97326D01*
G01X43522Y97317D01*
G01X43483Y97303D01*
G01X43447Y97283D01*
G01X43413Y97257D01*
G01X43382Y97224D01*
G01X43355Y97184D01*
G01X43332Y97137D01*
G01X43313Y97084D01*
G01X43299Y97023D01*
G01X43290Y96955D01*
G01X43287Y96879D01*
G01X43290Y96806D01*
G01X43298Y96740D01*
G01X43311Y96681D01*
G01X43329Y96629D01*
G01X43351Y96584D01*
G01X43377Y96545D01*
G01X43407Y96513D01*
G01X43440Y96487D01*
G01X43477Y96467D01*
G01X43516Y96453D01*
G01X43558Y96444D01*
G01X43602Y96442D01*
G01X43672Y96448D01*
G01X43735Y96469D01*
G01X43795Y96507D01*
G01X43856Y96566D01*
G01X43856Y97212D01*
G01X43785Y97267D01*
G01X43722Y97303D01*
G01X43662Y97323D01*
G37*

%LPD*%
G36*
G01X42479Y97438D02*
G01X42424Y97440D01*
G01X42340Y97436D01*
G01X42264Y97421D01*
G01X42195Y97398D01*
G01X42135Y97367D01*
G01X42084Y97327D01*
G01X42043Y97281D01*
G01X42012Y97226D01*
G01X41992Y97166D01*
G01X42001Y97130D01*
G01X42020Y97104D01*
G01X42050Y97088D01*
G01X42091Y97082D01*
G01X42130Y97088D01*
G01X42162Y97107D01*
G01X42186Y97139D01*
G01X42203Y97184D01*
G01X42246Y97336D01*
G01X42279Y97345D01*
G01X42311Y97351D01*
G01X42342Y97355D01*
G01X42373Y97356D01*
G01X42425Y97353D01*
G01X42469Y97344D01*
G01X42506Y97326D01*
G01X42536Y97300D01*
G01X42558Y97263D01*
G01X42574Y97215D01*
G01X42583Y97154D01*
G01X42586Y97079D01*
G01X42586Y97011D01*
G01X42518Y96995D01*
G01X42450Y96976D01*
G01X42387Y96956D01*
G01X42330Y96937D01*
G01X42230Y96899D01*
G01X42149Y96860D01*
G01X42085Y96821D01*
G01X42036Y96781D01*
G01X42001Y96739D01*
G01X41978Y96695D01*
G01X41965Y96649D01*
G01X41961Y96599D01*
G01X41967Y96537D01*
G01X41985Y96482D01*
G01X42012Y96435D01*
G01X42048Y96397D01*
G01X42091Y96367D01*
G01X42141Y96345D01*
G01X42196Y96332D01*
G01X42256Y96328D01*
G01X42304Y96330D01*
G01X42347Y96339D01*
G01X42388Y96352D01*
G01X42427Y96372D01*
G01X42465Y96397D01*
G01X42504Y96427D01*
G01X42545Y96464D01*
G01X42589Y96505D01*
G01X42611Y96433D01*
G01X42654Y96378D01*
G01X42713Y96342D01*
G01X42789Y96330D01*
G01X42844Y96336D01*
G01X42894Y96356D01*
G01X42939Y96391D01*
G01X42980Y96444D01*
G01X42939Y96488D01*
G01X42918Y96464D01*
G01X42898Y96446D01*
G01X42875Y96435D01*
G01X42850Y96432D01*
G01X42816Y96439D01*
G01X42790Y96464D01*
G01X42775Y96508D01*
G01X42769Y96574D01*
G01X42769Y97059D01*
G01X42766Y97125D01*
G01X42760Y97184D01*
G01X42748Y97235D01*
G01X42731Y97281D01*
G01X42710Y97320D01*
G01X42684Y97353D01*
G01X42653Y97381D01*
G01X42617Y97403D01*
G01X42576Y97420D01*
G01X42530Y97431D01*
G01X42479Y97438D01*
G37*

%LPC*%
G36*
G01X42586Y96587D02*
G01X42586Y96940D01*
G01X42527Y96923D01*
G01X42471Y96906D01*
G01X42422Y96889D01*
G01X42380Y96874D01*
G01X42314Y96845D01*
G01X42261Y96815D01*
G01X42221Y96784D01*
G01X42191Y96754D01*
G01X42171Y96723D01*
G01X42158Y96691D01*
G01X42151Y96660D01*
G01X42149Y96630D01*
G01X42163Y96553D01*
G01X42202Y96499D01*
G01X42259Y96467D01*
G01X42332Y96457D01*
G01X42387Y96464D01*
G01X42442Y96486D01*
G01X42505Y96526D01*
G01X42586Y96587D01*
G37*

%LPD*%
G36*
G01X41344Y97438D02*
G01X41288Y97440D01*
G01X41206Y97436D01*
G01X41130Y97421D01*
G01X41062Y97398D01*
G01X41002Y97367D01*
G01X40951Y97327D01*
G01X40910Y97281D01*
G01X40879Y97226D01*
G01X40859Y97166D01*
G01X40868Y97130D01*
G01X40887Y97104D01*
G01X40917Y97088D01*
G01X40958Y97082D01*
G01X40997Y97088D01*
G01X41028Y97107D01*
G01X41052Y97139D01*
G01X41070Y97184D01*
G01X41113Y97336D01*
G01X41146Y97345D01*
G01X41178Y97351D01*
G01X41208Y97355D01*
G01X41237Y97356D01*
G01X41290Y97353D01*
G01X41334Y97344D01*
G01X41370Y97326D01*
G01X41400Y97300D01*
G01X41423Y97263D01*
G01X41439Y97215D01*
G01X41448Y97154D01*
G01X41451Y97079D01*
G01X41451Y97011D01*
G01X41383Y96995D01*
G01X41316Y96976D01*
G01X41252Y96956D01*
G01X41194Y96937D01*
G01X41095Y96899D01*
G01X41015Y96860D01*
G01X40951Y96821D01*
G01X40903Y96781D01*
G01X40868Y96739D01*
G01X40845Y96695D01*
G01X40832Y96649D01*
G01X40828Y96599D01*
G01X40835Y96537D01*
G01X40852Y96482D01*
G01X40879Y96435D01*
G01X40915Y96397D01*
G01X40958Y96367D01*
G01X41008Y96345D01*
G01X41064Y96332D01*
G01X41123Y96328D01*
G01X41170Y96330D01*
G01X41213Y96339D01*
G01X41254Y96352D01*
G01X41293Y96372D01*
G01X41332Y96397D01*
G01X41371Y96427D01*
G01X41412Y96464D01*
G01X41456Y96505D01*
G01X41479Y96433D01*
G01X41520Y96378D01*
G01X41579Y96342D01*
G01X41654Y96330D01*
G01X41710Y96336D01*
G01X41760Y96356D01*
G01X41804Y96391D01*
G01X41844Y96444D01*
G01X41804Y96488D01*
G01X41783Y96464D01*
G01X41763Y96446D01*
G01X41741Y96435D01*
G01X41715Y96432D01*
G01X41681Y96439D01*
G01X41655Y96464D01*
G01X41639Y96508D01*
G01X41634Y96574D01*
G01X41634Y97059D01*
G01X41631Y97125D01*
G01X41624Y97184D01*
G01X41612Y97235D01*
G01X41596Y97281D01*
G01X41575Y97320D01*
G01X41548Y97353D01*
G01X41517Y97381D01*
G01X41482Y97403D01*
G01X41441Y97420D01*
G01X41395Y97431D01*
G01X41344Y97438D01*
G37*

%LPC*%
G36*
G01X41451Y96587D02*
G01X41451Y96940D01*
G01X41392Y96923D01*
G01X41337Y96906D01*
G01X41288Y96889D01*
G01X41245Y96874D01*
G01X41180Y96845D01*
G01X41128Y96815D01*
G01X41088Y96784D01*
G01X41058Y96754D01*
G01X41038Y96723D01*
G01X41025Y96691D01*
G01X41018Y96660D01*
G01X41016Y96630D01*
G01X41030Y96553D01*
G01X41068Y96499D01*
G01X41125Y96467D01*
G01X41197Y96457D01*
G01X41252Y96464D01*
G01X41306Y96486D01*
G01X41369Y96526D01*
G01X41451Y96587D01*
G37*

%LPD*%
G36*
G01X45453Y97877D02*
G01X45398Y97880D01*
G01X45329Y97876D01*
G01X45263Y97867D01*
G01X45201Y97852D01*
G01X45144Y97831D01*
G01X45092Y97804D01*
G01X45044Y97772D01*
G01X45003Y97735D01*
G01X44968Y97692D01*
G01X44940Y97644D01*
G01X44920Y97591D01*
G01X44907Y97533D01*
G01X44903Y97471D01*
G01X44906Y97417D01*
G01X44915Y97366D01*
G01X44930Y97320D01*
G01X44951Y97277D01*
G01X44977Y97237D01*
G01X45008Y97200D01*
G01X45043Y97165D01*
G01X45084Y97133D01*
G01X45129Y97104D01*
G01X45177Y97076D01*
G01X45230Y97050D01*
G01X45286Y97026D01*
G01X45370Y96991D01*
G01X45439Y96962D01*
G01X45497Y96932D01*
G01X45545Y96902D01*
G01X45584Y96869D01*
G01X45613Y96834D01*
G01X45634Y96794D01*
G01X45645Y96749D01*
G01X45649Y96698D01*
G01X45643Y96635D01*
G01X45624Y96579D01*
G01X45594Y96532D01*
G01X45552Y96492D01*
G01X45501Y96462D01*
G01X45441Y96439D01*
G01X45371Y96426D01*
G01X45294Y96422D01*
G01X45227Y96425D01*
G01X45167Y96434D01*
G01X45113Y96451D01*
G01X45060Y96475D01*
G01X45004Y96754D01*
G01X44890Y96754D01*
G01X44875Y96442D01*
G01X44915Y96418D01*
G01X44962Y96395D01*
G01X45012Y96375D01*
G01X45066Y96358D01*
G01X45124Y96343D01*
G01X45184Y96332D01*
G01X45245Y96325D01*
G01X45309Y96323D01*
G01X45384Y96326D01*
G01X45454Y96336D01*
G01X45520Y96351D01*
G01X45581Y96374D01*
G01X45637Y96402D01*
G01X45686Y96436D01*
G01X45729Y96475D01*
G01X45765Y96519D01*
G01X45794Y96569D01*
G01X45815Y96624D01*
G01X45828Y96683D01*
G01X45832Y96747D01*
G01X45830Y96797D01*
G01X45823Y96844D01*
G01X45810Y96888D01*
G01X45793Y96930D01*
G01X45770Y96969D01*
G01X45740Y97006D01*
G01X45705Y97041D01*
G01X45663Y97074D01*
G01X45615Y97106D01*
G01X45559Y97137D01*
G01X45496Y97167D01*
G01X45426Y97196D01*
G01X45337Y97232D01*
G01X45280Y97257D01*
G01X45230Y97284D01*
G01X45187Y97314D01*
G01X45151Y97347D01*
G01X45123Y97384D01*
G01X45102Y97425D01*
G01X45090Y97471D01*
G01X45085Y97521D01*
G01X45092Y97581D01*
G01X45109Y97634D01*
G01X45137Y97679D01*
G01X45174Y97716D01*
G01X45219Y97745D01*
G01X45272Y97766D01*
G01X45331Y97779D01*
G01X45395Y97783D01*
G01X45445Y97780D01*
G01X45490Y97772D01*
G01X45534Y97759D01*
G01X45576Y97737D01*
G01X45634Y97471D01*
G01X45748Y97471D01*
G01X45764Y97763D01*
G01X45726Y97788D01*
G01X45686Y97811D01*
G01X45644Y97831D01*
G01X45600Y97848D01*
G01X45553Y97861D01*
G01X45504Y97871D01*
G01X45453Y97877D01*
G37*

%LPD*%

%LPD*%
G36*
G01X40041Y95563D02*
G01X39914Y95563D01*
G01X39853Y95530D01*
G01X39783Y95502D01*
G01X39704Y95479D01*
G01X39614Y95461D01*
G01X39614Y95352D01*
G01X39876Y95352D01*
G01X39876Y94212D01*
G01X39543Y94212D01*
G01X39543Y94075D01*
G01X40343Y94075D01*
G01X40343Y94212D01*
G01X40041Y94212D01*
G01X40041Y95563D01*
G37*

%LPD*%
G36*
G01X38522Y95172D02*
G01X38349Y95172D01*
G01X38751Y94075D01*
G01X38944Y94075D01*
G01X39335Y95172D01*
G01X39172Y95172D01*
G01X38956Y94534D01*
G01X38931Y94452D01*
G01X38904Y94370D01*
G01X38878Y94289D01*
G01X38852Y94212D01*
G01X38845Y94212D01*
G01X38818Y94289D01*
G01X38792Y94370D01*
G01X38766Y94452D01*
G01X38741Y94534D01*
G01X38522Y95172D01*
G37*

%LPD*%
G36*
G01X41637Y95585D02*
G01X41585Y95588D01*
G01X41534Y95585D01*
G01X41485Y95577D01*
G01X41440Y95562D01*
G01X41396Y95542D01*
G01X41355Y95515D01*
G01X41318Y95482D01*
G01X41283Y95444D01*
G01X41252Y95399D01*
G01X41224Y95349D01*
G01X41199Y95292D01*
G01X41178Y95230D01*
G01X41160Y95161D01*
G01X41146Y95086D01*
G01X41136Y95005D01*
G01X41130Y94917D01*
G01X41128Y94824D01*
G01X41130Y94729D01*
G01X41136Y94641D01*
G01X41146Y94559D01*
G01X41160Y94483D01*
G01X41178Y94413D01*
G01X41199Y94350D01*
G01X41224Y94293D01*
G01X41252Y94241D01*
G01X41283Y94196D01*
G01X41318Y94157D01*
G01X41355Y94124D01*
G01X41396Y94097D01*
G01X41440Y94076D01*
G01X41485Y94061D01*
G01X41534Y94052D01*
G01X41585Y94049D01*
G01X41637Y94052D01*
G01X41685Y94061D01*
G01X41731Y94076D01*
G01X41774Y94097D01*
G01X41814Y94124D01*
G01X41851Y94157D01*
G01X41885Y94196D01*
G01X41916Y94241D01*
G01X41944Y94293D01*
G01X41968Y94350D01*
G01X41989Y94413D01*
G01X42006Y94483D01*
G01X42020Y94559D01*
G01X42029Y94641D01*
G01X42035Y94729D01*
G01X42037Y94824D01*
G01X42035Y94917D01*
G01X42029Y95005D01*
G01X42020Y95086D01*
G01X42006Y95161D01*
G01X41989Y95230D01*
G01X41968Y95292D01*
G01X41944Y95349D01*
G01X41916Y95399D01*
G01X41885Y95444D01*
G01X41851Y95482D01*
G01X41814Y95515D01*
G01X41774Y95542D01*
G01X41731Y95562D01*
G01X41685Y95577D01*
G01X41637Y95585D01*
G37*

%LPC*%
G36*
G01X41628Y95450D02*
G01X41585Y95454D01*
G01X41542Y95450D01*
G01X41502Y95438D01*
G01X41464Y95417D01*
G01X41429Y95387D01*
G01X41398Y95349D01*
G01X41370Y95302D01*
G01X41346Y95246D01*
G01X41326Y95181D01*
G01X41309Y95106D01*
G01X41298Y95022D01*
G01X41291Y94928D01*
G01X41288Y94824D01*
G01X41291Y94718D01*
G01X41298Y94623D01*
G01X41309Y94537D01*
G01X41326Y94461D01*
G01X41346Y94394D01*
G01X41370Y94337D01*
G01X41398Y94289D01*
G01X41429Y94250D01*
G01X41464Y94219D01*
G01X41502Y94198D01*
G01X41542Y94185D01*
G01X41585Y94181D01*
G01X41628Y94185D01*
G01X41668Y94198D01*
G01X41705Y94219D01*
G01X41739Y94250D01*
G01X41770Y94289D01*
G01X41797Y94337D01*
G01X41821Y94394D01*
G01X41841Y94461D01*
G01X41857Y94537D01*
G01X41868Y94623D01*
G01X41875Y94718D01*
G01X41877Y94824D01*
G01X41875Y94928D01*
G01X41868Y95022D01*
G01X41857Y95106D01*
G01X41841Y95181D01*
G01X41821Y95246D01*
G01X41797Y95302D01*
G01X41770Y95349D01*
G01X41739Y95387D01*
G01X41705Y95417D01*
G01X41668Y95438D01*
G01X41628Y95450D01*
G37*

%LPD*%
G36*
G01X40798Y94304D02*
G01X40750Y94313D01*
G01X40702Y94304D01*
G01X40663Y94277D01*
G01X40635Y94234D01*
G01X40625Y94179D01*
G01X40635Y94125D01*
G01X40663Y94084D01*
G01X40702Y94058D01*
G01X40750Y94049D01*
G01X40798Y94058D01*
G01X40839Y94084D01*
G01X40867Y94125D01*
G01X40877Y94179D01*
G01X40867Y94234D01*
G01X40839Y94277D01*
G01X40798Y94304D01*
G37*

%LPD*%
G54D46*
G01X64207Y58758D02*
G01X65299Y59485D01*
G01X64207Y59485D02*
G01X65299Y58758D01*
G01X64415Y59828D02*
G01X64365Y59932D01*
G01X64207Y60089D01*
G01X65299Y60089D01*
G01X79332Y42995D02*
G01X79332Y41906D01*
G01X79332Y42995D02*
G01X79800Y42995D01*
G01X79955Y42944D01*
G01X80008Y42894D01*
G01X80059Y42789D01*
G01X80059Y42685D01*
G01X80008Y42581D01*
G01X79955Y42528D01*
G01X79800Y42477D01*
G01X79332Y42477D01*
G01X79695Y42477D02*
G01X80059Y41906D01*
G01X80506Y42995D02*
G01X81077Y42995D01*
G01X80767Y42581D01*
G01X80922Y42581D01*
G01X81026Y42528D01*
G01X81077Y42477D01*
G01X81131Y42322D01*
G01X81131Y42218D01*
G01X81077Y42060D01*
G01X80973Y41956D01*
G01X80818Y41906D01*
G01X80663Y41906D01*
G01X80506Y41956D01*
G01X80455Y42010D01*
G01X80402Y42114D01*
G01X34120Y55314D02*
G01X34120Y54225D01*
G01X34120Y55314D02*
G01X34588Y55314D01*
G01X34743Y55263D01*
G01X34796Y55213D01*
G01X34847Y55108D01*
G01X34847Y55004D01*
G01X34796Y54900D01*
G01X34743Y54847D01*
G01X34588Y54796D01*
G01X34120Y54796D01*
G01X34483Y54796D02*
G01X34847Y54225D01*
G01X35814Y55159D02*
G01X35761Y55263D01*
G01X35606Y55314D01*
G01X35502Y55314D01*
G01X35347Y55263D01*
G01X35243Y55108D01*
G01X35190Y54847D01*
G01X35190Y54588D01*
G01X35243Y54379D01*
G01X35347Y54275D01*
G01X35502Y54225D01*
G01X35555Y54225D01*
G01X35710Y54275D01*
G01X35814Y54379D01*
G01X35865Y54537D01*
G01X35865Y54588D01*
G01X35814Y54743D01*
G01X35710Y54847D01*
G01X35555Y54900D01*
G01X35502Y54900D01*
G01X35347Y54847D01*
G01X35243Y54743D01*
G01X35190Y54588D01*
G01X15705Y21659D02*
G01X15705Y20570D01*
G01X15705Y21659D02*
G01X16173Y21659D01*
G01X16328Y21608D01*
G01X16381Y21558D01*
G01X16432Y21453D01*
G01X16432Y21349D01*
G01X16381Y21245D01*
G01X16328Y21192D01*
G01X16173Y21141D01*
G01X15705Y21141D01*
G01X16068Y21141D02*
G01X16432Y20570D01*
G01X17036Y21659D02*
G01X16879Y21608D01*
G01X16828Y21504D01*
G01X16828Y21400D01*
G01X16879Y21296D01*
G01X16983Y21245D01*
G01X17191Y21192D01*
G01X17346Y21141D01*
G01X17450Y21037D01*
G01X17504Y20933D01*
G01X17504Y20778D01*
G01X17450Y20674D01*
G01X17399Y20620D01*
G01X17242Y20570D01*
G01X17036Y20570D01*
G01X16879Y20620D01*
G01X16828Y20674D01*
G01X16775Y20778D01*
G01X16775Y20933D01*
G01X16828Y21037D01*
G01X16932Y21141D01*
G01X17087Y21192D01*
G01X17295Y21245D01*
G01X17399Y21296D01*
G01X17450Y21400D01*
G01X17450Y21504D01*
G01X17399Y21608D01*
G01X17242Y21659D01*
G01X17036Y21659D01*
G01X70442Y44138D02*
G01X70442Y43049D01*
G01X70442Y44138D02*
G01X70910Y44138D01*
G01X71065Y44087D01*
G01X71118Y44037D01*
G01X71169Y43932D01*
G01X71169Y43828D01*
G01X71118Y43724D01*
G01X71065Y43671D01*
G01X70910Y43620D01*
G01X70442Y43620D01*
G01X70805Y43620D02*
G01X71169Y43049D01*
G01X72187Y43775D02*
G01X72136Y43620D01*
G01X72032Y43516D01*
G01X71877Y43465D01*
G01X71824Y43465D01*
G01X71669Y43516D01*
G01X71565Y43620D01*
G01X71512Y43775D01*
G01X71512Y43828D01*
G01X71565Y43983D01*
G01X71669Y44087D01*
G01X71824Y44138D01*
G01X71877Y44138D01*
G01X72032Y44087D01*
G01X72136Y43983D01*
G01X72187Y43775D01*
G01X72187Y43516D01*
G01X72136Y43257D01*
G01X72032Y43099D01*
G01X71877Y43049D01*
G01X71773Y43049D01*
G01X71616Y43099D01*
G01X71565Y43203D01*
G01X89822Y53414D02*
G01X89822Y52325D01*
G01X89822Y53414D02*
G01X90290Y53414D01*
G01X90445Y53363D01*
G01X90498Y53313D01*
G01X90549Y53209D01*
G01X90549Y53104D01*
G01X90498Y53000D01*
G01X90445Y52947D01*
G01X90290Y52896D01*
G01X89822Y52896D01*
G01X90186Y52896D02*
G01X90549Y52325D01*
G01X90892Y53209D02*
G01X90996Y53259D01*
G01X91153Y53414D01*
G01X91153Y52325D01*
G01X89276Y59266D02*
G01X89276Y58177D01*
G01X89276Y59266D02*
G01X89744Y59266D01*
G01X89899Y59216D01*
G01X89952Y59165D01*
G01X90003Y59061D01*
G01X90003Y58957D01*
G01X89952Y58852D01*
G01X89899Y58799D01*
G01X89744Y58748D01*
G01X89276Y58748D01*
G01X89640Y58748D02*
G01X90003Y58177D01*
G01X90399Y59007D02*
G01X90399Y59061D01*
G01X90450Y59165D01*
G01X90503Y59216D01*
G01X90607Y59266D01*
G01X90813Y59266D01*
G01X90917Y59216D01*
G01X90971Y59165D01*
G01X91021Y59061D01*
G01X91021Y58957D01*
G01X90971Y58852D01*
G01X90866Y58695D01*
G01X90346Y58177D01*
G01X91075Y58177D01*
G01X90526Y40958D02*
G01X90473Y41062D01*
G01X90369Y41166D01*
G01X90267Y41217D01*
G01X90059Y41217D01*
G01X89955Y41166D01*
G01X89850Y41062D01*
G01X89797Y40958D01*
G01X89746Y40803D01*
G01X89746Y40544D01*
G01X89797Y40387D01*
G01X89850Y40282D01*
G01X89955Y40178D01*
G01X90059Y40128D01*
G01X90267Y40128D01*
G01X90369Y40178D01*
G01X90473Y40282D01*
G01X90526Y40387D01*
G01X91128Y41217D02*
G01X90973Y41166D01*
G01X90920Y41062D01*
G01X90920Y40958D01*
G01X90973Y40854D01*
G01X91077Y40803D01*
G01X91283Y40750D01*
G01X91440Y40699D01*
G01X91545Y40595D01*
G01X91595Y40491D01*
G01X91595Y40336D01*
G01X91545Y40232D01*
G01X91491Y40178D01*
G01X91336Y40128D01*
G01X91128Y40128D01*
G01X90973Y40178D01*
G01X90920Y40232D01*
G01X90869Y40336D01*
G01X90869Y40491D01*
G01X90920Y40595D01*
G01X91024Y40699D01*
G01X91181Y40750D01*
G01X91387Y40803D01*
G01X91491Y40854D01*
G01X91545Y40958D01*
G01X91545Y41062D01*
G01X91491Y41166D01*
G01X91336Y41217D01*
G01X91128Y41217D01*
G01X87732Y66739D02*
G01X87679Y66843D01*
G01X87575Y66947D01*
G01X87473Y66998D01*
G01X87265Y66998D01*
G01X87161Y66947D01*
G01X87056Y66843D01*
G01X87003Y66739D01*
G01X86952Y66584D01*
G01X86952Y66325D01*
G01X87003Y66168D01*
G01X87056Y66063D01*
G01X87161Y65959D01*
G01X87265Y65909D01*
G01X87473Y65909D01*
G01X87575Y65959D01*
G01X87679Y66063D01*
G01X87732Y66168D01*
G01X88751Y66635D02*
G01X88697Y66480D01*
G01X88593Y66376D01*
G01X88438Y66325D01*
G01X88387Y66325D01*
G01X88230Y66376D01*
G01X88126Y66480D01*
G01X88075Y66635D01*
G01X88075Y66688D01*
G01X88126Y66843D01*
G01X88230Y66947D01*
G01X88387Y66998D01*
G01X88438Y66998D01*
G01X88593Y66947D01*
G01X88697Y66843D01*
G01X88751Y66635D01*
G01X88751Y66376D01*
G01X88697Y66117D01*
G01X88593Y65959D01*
G01X88438Y65909D01*
G01X88334Y65909D01*
G01X88179Y65959D01*
G01X88126Y66063D01*
G01X50089Y39566D02*
G01X50036Y39670D01*
G01X49932Y39774D01*
G01X49830Y39825D01*
G01X49622Y39825D01*
G01X49518Y39774D01*
G01X49414Y39670D01*
G01X49360Y39566D01*
G01X49309Y39411D01*
G01X49309Y39152D01*
G01X49360Y38995D01*
G01X49414Y38891D01*
G01X49518Y38786D01*
G01X49622Y38736D01*
G01X49830Y38736D01*
G01X49932Y38786D01*
G01X50036Y38891D01*
G01X50089Y38995D01*
G01X51054Y39670D02*
G01X51004Y39774D01*
G01X50846Y39825D01*
G01X50745Y39825D01*
G01X50587Y39774D01*
G01X50483Y39620D01*
G01X50432Y39358D01*
G01X50432Y39099D01*
G01X50483Y38891D01*
G01X50587Y38786D01*
G01X50745Y38736D01*
G01X50795Y38736D01*
G01X50950Y38786D01*
G01X51054Y38891D01*
G01X51108Y39048D01*
G01X51108Y39099D01*
G01X51054Y39254D01*
G01X50950Y39358D01*
G01X50795Y39411D01*
G01X50745Y39411D01*
G01X50587Y39358D01*
G01X50483Y39254D01*
G01X50432Y39099D01*
G01X94463Y78931D02*
G01X94410Y79035D01*
G01X94306Y79139D01*
G01X94204Y79190D01*
G01X93996Y79190D01*
G01X93892Y79139D01*
G01X93787Y79035D01*
G01X93734Y78931D01*
G01X93683Y78776D01*
G01X93683Y78517D01*
G01X93734Y78360D01*
G01X93787Y78255D01*
G01X93892Y78151D01*
G01X93996Y78101D01*
G01X94204Y78101D01*
G01X94306Y78151D01*
G01X94410Y78255D01*
G01X94463Y78360D01*
G01X94806Y78984D02*
G01X94910Y79035D01*
G01X95065Y79190D01*
G01X95065Y78101D01*
G01X42266Y31941D02*
G01X42213Y32045D01*
G01X42109Y32149D01*
G01X42007Y32200D01*
G01X41799Y32200D01*
G01X41695Y32149D01*
G01X41590Y32045D01*
G01X41537Y31941D01*
G01X41486Y31786D01*
G01X41486Y31527D01*
G01X41537Y31370D01*
G01X41590Y31265D01*
G01X41695Y31161D01*
G01X41799Y31111D01*
G01X42007Y31111D01*
G01X42109Y31161D01*
G01X42213Y31265D01*
G01X42266Y31370D01*
G01X42660Y31941D02*
G01X42660Y31994D01*
G01X42713Y32099D01*
G01X42764Y32149D01*
G01X42868Y32200D01*
G01X43076Y32200D01*
G01X43180Y32149D01*
G01X43231Y32099D01*
G01X43285Y31994D01*
G01X43285Y31890D01*
G01X43231Y31786D01*
G01X43127Y31629D01*
G01X42609Y31111D01*
G01X43335Y31111D01*
G01X82017Y23432D02*
G01X81964Y23536D01*
G01X81860Y23640D01*
G01X81758Y23691D01*
G01X81550Y23691D01*
G01X81446Y23640D01*
G01X81341Y23536D01*
G01X81288Y23432D01*
G01X81237Y23277D01*
G01X81237Y23018D01*
G01X81288Y22861D01*
G01X81341Y22756D01*
G01X81446Y22652D01*
G01X81550Y22602D01*
G01X81758Y22602D01*
G01X81860Y22652D01*
G01X81964Y22756D01*
G01X82017Y22861D01*
G01X82464Y23691D02*
G01X83036Y23691D01*
G01X82723Y23277D01*
G01X82878Y23277D01*
G01X82982Y23224D01*
G01X83036Y23173D01*
G01X83086Y23018D01*
G01X83086Y22914D01*
G01X83036Y22756D01*
G01X82931Y22652D01*
G01X82774Y22602D01*
G01X82619Y22602D01*
G01X82464Y22652D01*
G01X82411Y22706D01*
G01X82360Y22810D01*
G01X28880Y27628D02*
G01X28827Y27732D01*
G01X28723Y27836D01*
G01X28621Y27887D01*
G01X28413Y27887D01*
G01X28309Y27836D01*
G01X28205Y27732D01*
G01X28151Y27628D01*
G01X28100Y27473D01*
G01X28100Y27214D01*
G01X28151Y27057D01*
G01X28205Y26953D01*
G01X28309Y26848D01*
G01X28413Y26798D01*
G01X28621Y26798D01*
G01X28723Y26848D01*
G01X28827Y26953D01*
G01X28880Y27057D01*
G01X29741Y27887D02*
G01X29223Y27161D01*
G01X30003Y27161D01*
G01X29741Y27887D02*
G01X29741Y26798D01*
G01X31890Y87074D02*
G01X31837Y87179D01*
G01X31733Y87283D01*
G01X31631Y87333D01*
G01X31423Y87333D01*
G01X31319Y87283D01*
G01X31215Y87179D01*
G01X31161Y87074D01*
G01X31110Y86919D01*
G01X31110Y86660D01*
G01X31161Y86503D01*
G01X31215Y86399D01*
G01X31319Y86295D01*
G01X31423Y86244D01*
G01X31631Y86244D01*
G01X31733Y86295D01*
G01X31837Y86399D01*
G01X31890Y86503D01*
G01X32855Y87333D02*
G01X32337Y87333D01*
G01X32284Y86866D01*
G01X32337Y86919D01*
G01X32492Y86970D01*
G01X32647Y86970D01*
G01X32805Y86919D01*
G01X32909Y86815D01*
G01X32960Y86660D01*
G01X32960Y86556D01*
G01X32909Y86399D01*
G01X32805Y86295D01*
G01X32647Y86244D01*
G01X32492Y86244D01*
G01X32337Y86295D01*
G01X32284Y86348D01*
G01X32233Y86452D01*
G01X22530Y41725D02*
G01X22477Y41829D01*
G01X22373Y41933D01*
G01X22271Y41984D01*
G01X22063Y41984D01*
G01X21959Y41933D01*
G01X21855Y41829D01*
G01X21801Y41725D01*
G01X21750Y41570D01*
G01X21750Y41311D01*
G01X21801Y41154D01*
G01X21855Y41050D01*
G01X21959Y40945D01*
G01X22063Y40895D01*
G01X22271Y40895D01*
G01X22373Y40945D01*
G01X22477Y41050D01*
G01X22530Y41154D01*
G01X23600Y41984D02*
G01X23081Y40895D01*
G01X22873Y41984D02*
G01X23600Y41984D01*
G01X17501Y40958D02*
G01X17448Y41062D01*
G01X17344Y41166D01*
G01X17242Y41217D01*
G01X17034Y41217D01*
G01X16930Y41166D01*
G01X16825Y41062D01*
G01X16772Y40958D01*
G01X16721Y40803D01*
G01X16721Y40544D01*
G01X16772Y40387D01*
G01X16825Y40282D01*
G01X16930Y40178D01*
G01X17034Y40128D01*
G01X17242Y40128D01*
G01X17344Y40178D01*
G01X17448Y40282D01*
G01X17501Y40387D01*
G01X17844Y41011D02*
G01X17948Y41062D01*
G01X18103Y41217D01*
G01X18103Y40128D01*
G01X18758Y41217D02*
G01X18601Y41166D01*
G01X18499Y41011D01*
G01X18446Y40750D01*
G01X18446Y40595D01*
G01X18499Y40336D01*
G01X18601Y40178D01*
G01X18758Y40128D01*
G01X18862Y40128D01*
G01X19017Y40178D01*
G01X19122Y40336D01*
G01X19172Y40595D01*
G01X19172Y40750D01*
G01X19122Y41011D01*
G01X19017Y41166D01*
G01X18862Y41217D01*
G01X18758Y41217D01*
G01X34392Y44006D02*
G01X34339Y44110D01*
G01X34235Y44214D01*
G01X34133Y44265D01*
G01X33925Y44265D01*
G01X33821Y44214D01*
G01X33716Y44110D01*
G01X33663Y44006D01*
G01X33612Y43851D01*
G01X33612Y43592D01*
G01X33663Y43435D01*
G01X33716Y43330D01*
G01X33821Y43226D01*
G01X33925Y43176D01*
G01X34133Y43176D01*
G01X34235Y43226D01*
G01X34339Y43330D01*
G01X34392Y43435D01*
G01X34735Y44059D02*
G01X34839Y44110D01*
G01X34994Y44265D01*
G01X34994Y43176D01*
G01X35390Y44006D02*
G01X35390Y44059D01*
G01X35441Y44164D01*
G01X35492Y44214D01*
G01X35596Y44265D01*
G01X35804Y44265D01*
G01X35908Y44214D01*
G01X35962Y44164D01*
G01X36013Y44059D01*
G01X36013Y43955D01*
G01X35962Y43851D01*
G01X35858Y43694D01*
G01X35337Y43176D01*
G01X36063Y43176D01*
G01X58034Y79310D02*
G01X58034Y78530D01*
G01X58085Y78372D01*
G01X58189Y78271D01*
G01X58347Y78217D01*
G01X58451Y78217D01*
G01X58606Y78271D01*
G01X58710Y78372D01*
G01X58761Y78530D01*
G01X58761Y79310D01*
G01X59157Y79048D02*
G01X59157Y79101D01*
G01X59208Y79205D01*
G01X59261Y79256D01*
G01X59365Y79310D01*
G01X59571Y79310D01*
G01X59675Y79256D01*
G01X59729Y79205D01*
G01X59779Y79101D01*
G01X59779Y78997D01*
G01X59729Y78893D01*
G01X59624Y78738D01*
G01X59104Y78217D01*
G01X59833Y78217D01*
G01X46198Y81573D02*
G01X46925Y80483D01*
G01X46925Y81573D02*
G01X46198Y80483D01*
G01X47321Y81314D02*
G01X47321Y81364D01*
G01X47372Y81469D01*
G01X47425Y81522D01*
G01X47529Y81573D01*
G01X47735Y81573D01*
G01X47839Y81522D01*
G01X47893Y81469D01*
G01X47943Y81364D01*
G01X47943Y81263D01*
G01X47893Y81159D01*
G01X47789Y81001D01*
G01X47268Y80483D01*
G01X47997Y80483D01*
G01X37313Y80074D02*
G01X37260Y80178D01*
G01X37156Y80282D01*
G01X37054Y80333D01*
G01X36846Y80333D01*
G01X36742Y80282D01*
G01X36637Y80178D01*
G01X36584Y80074D01*
G01X36533Y79919D01*
G01X36533Y79660D01*
G01X36584Y79503D01*
G01X36637Y79398D01*
G01X36742Y79294D01*
G01X36846Y79244D01*
G01X37054Y79244D01*
G01X37156Y79294D01*
G01X37260Y79398D01*
G01X37313Y79503D01*
G01X37656Y80127D02*
G01X37760Y80178D01*
G01X37915Y80333D01*
G01X37915Y79244D01*
G01X38258Y80127D02*
G01X38362Y80178D01*
G01X38517Y80333D01*
G01X38517Y79244D01*
G01X30328Y64707D02*
G01X30275Y64811D01*
G01X30171Y64915D01*
G01X30069Y64966D01*
G01X29861Y64966D01*
G01X29757Y64915D01*
G01X29652Y64811D01*
G01X29599Y64707D01*
G01X29548Y64552D01*
G01X29548Y64293D01*
G01X29599Y64136D01*
G01X29652Y64031D01*
G01X29757Y63927D01*
G01X29861Y63877D01*
G01X30069Y63877D01*
G01X30171Y63927D01*
G01X30275Y64031D01*
G01X30328Y64136D01*
G01X30671Y64760D02*
G01X30775Y64811D01*
G01X30930Y64966D01*
G01X30930Y63877D01*
G01X31377Y64966D02*
G01X31949Y64966D01*
G01X31636Y64552D01*
G01X31794Y64552D01*
G01X31898Y64499D01*
G01X31949Y64448D01*
G01X31999Y64293D01*
G01X31999Y64189D01*
G01X31949Y64031D01*
G01X31844Y63927D01*
G01X31689Y63877D01*
G01X31532Y63877D01*
G01X31377Y63927D01*
G01X31326Y63981D01*
G01X31273Y64085D01*
G01X32904Y15634D02*
G01X32799Y15581D01*
G01X32695Y15477D01*
G01X32645Y15375D01*
G01X32645Y15167D01*
G01X32695Y15063D01*
G01X32799Y14959D01*
G01X32904Y14905D01*
G01X33059Y14855D01*
G01X33318Y14855D01*
G01X33475Y14905D01*
G01X33579Y14959D01*
G01X33683Y15063D01*
G01X33734Y15167D01*
G01X33734Y15375D01*
G01X33683Y15477D01*
G01X33579Y15581D01*
G01X33475Y15634D01*
G01X32850Y15977D02*
G01X32799Y16081D01*
G01X32645Y16236D01*
G01X33734Y16236D01*
G01X32645Y17100D02*
G01X33371Y16579D01*
G01X33371Y17359D01*
G01X32645Y17100D02*
G01X33734Y17100D01*
G01X72746Y95949D02*
G01X72693Y96053D01*
G01X72589Y96157D01*
G01X72487Y96208D01*
G01X72279Y96208D01*
G01X72175Y96157D01*
G01X72070Y96053D01*
G01X72017Y95949D01*
G01X71966Y95794D01*
G01X71966Y95535D01*
G01X72017Y95378D01*
G01X72070Y95273D01*
G01X72175Y95169D01*
G01X72279Y95119D01*
G01X72487Y95119D01*
G01X72589Y95169D01*
G01X72693Y95273D01*
G01X72746Y95378D01*
G01X73089Y96002D02*
G01X73193Y96053D01*
G01X73348Y96208D01*
G01X73348Y95119D01*
G01X74316Y96208D02*
G01X73795Y96208D01*
G01X73744Y95741D01*
G01X73795Y95794D01*
G01X73950Y95845D01*
G01X74107Y95845D01*
G01X74262Y95794D01*
G01X74367Y95690D01*
G01X74417Y95535D01*
G01X74417Y95431D01*
G01X74367Y95273D01*
G01X74262Y95169D01*
G01X74107Y95119D01*
G01X73950Y95119D01*
G01X73795Y95169D01*
G01X73744Y95223D01*
G01X73691Y95327D01*
G01X8357Y77661D02*
G01X8304Y77765D01*
G01X8200Y77869D01*
G01X8098Y77920D01*
G01X7890Y77920D01*
G01X7786Y77869D01*
G01X7681Y77765D01*
G01X7628Y77661D01*
G01X7577Y77506D01*
G01X7577Y77247D01*
G01X7628Y77090D01*
G01X7681Y76985D01*
G01X7786Y76881D01*
G01X7890Y76831D01*
G01X8098Y76831D01*
G01X8200Y76881D01*
G01X8304Y76985D01*
G01X8357Y77090D01*
G01X8700Y77714D02*
G01X8804Y77765D01*
G01X8959Y77920D01*
G01X8959Y76831D01*
G01X9927Y77765D02*
G01X9873Y77869D01*
G01X9718Y77920D01*
G01X9614Y77920D01*
G01X9457Y77869D01*
G01X9355Y77714D01*
G01X9302Y77453D01*
G01X9302Y77194D01*
G01X9355Y76985D01*
G01X9457Y76881D01*
G01X9614Y76831D01*
G01X9665Y76831D01*
G01X9823Y76881D01*
G01X9927Y76985D01*
G01X9978Y77143D01*
G01X9978Y77194D01*
G01X9927Y77349D01*
G01X9823Y77453D01*
G01X9665Y77506D01*
G01X9614Y77506D01*
G01X9457Y77453D01*
G01X9355Y77349D01*
G01X9302Y77194D01*
G01X38438Y90366D02*
G01X38438Y89277D01*
G01X38438Y90366D02*
G01X38906Y90366D01*
G01X39061Y90315D01*
G01X39114Y90265D01*
G01X39165Y90160D01*
G01X39165Y90056D01*
G01X39114Y89952D01*
G01X39061Y89899D01*
G01X38906Y89848D01*
G01X38438Y89848D01*
G01X38801Y89848D02*
G01X39165Y89277D01*
G01X40028Y90366D02*
G01X39508Y89640D01*
G01X40287Y89640D01*
G01X40028Y90366D02*
G01X40028Y89277D01*
G01X45842Y22182D02*
G01X45842Y21090D01*
G01X45842Y21090D02*
G01X46465Y21090D01*
G01X46808Y22182D02*
G01X46808Y21090D01*
G01X46808Y22182D02*
G01X47173Y22182D01*
G01X47328Y22129D01*
G01X47432Y22025D01*
G01X47483Y21921D01*
G01X47537Y21766D01*
G01X47537Y21507D01*
G01X47483Y21349D01*
G01X47432Y21245D01*
G01X47328Y21141D01*
G01X47173Y21090D01*
G01X46808Y21090D01*
G01X48192Y22182D02*
G01X48088Y22129D01*
G01X47984Y22025D01*
G01X47930Y21921D01*
G01X47879Y21766D01*
G01X47879Y21507D01*
G01X47930Y21349D01*
G01X47984Y21245D01*
G01X48088Y21141D01*
G01X48192Y21090D01*
G01X48398Y21090D01*
G01X48502Y21141D01*
G01X48606Y21245D01*
G01X48659Y21349D01*
G01X48710Y21507D01*
G01X48710Y21766D01*
G01X48659Y21921D01*
G01X48606Y22025D01*
G01X48502Y22129D01*
G01X48398Y22182D01*
G01X48192Y22182D01*
G01X49053Y21974D02*
G01X49157Y22025D01*
G01X49312Y22182D01*
G01X49312Y21090D01*
G01X77318Y31560D02*
G01X77265Y31664D01*
G01X77161Y31768D01*
G01X77059Y31819D01*
G01X76851Y31819D01*
G01X76747Y31768D01*
G01X76642Y31664D01*
G01X76589Y31560D01*
G01X76538Y31405D01*
G01X76538Y31146D01*
G01X76589Y30989D01*
G01X76642Y30884D01*
G01X76747Y30780D01*
G01X76851Y30730D01*
G01X77059Y30730D01*
G01X77161Y30780D01*
G01X77265Y30884D01*
G01X77318Y30989D01*
G01X77661Y31613D02*
G01X77765Y31664D01*
G01X77920Y31819D01*
G01X77920Y30730D01*
G01X78989Y31819D02*
G01X78471Y30730D01*
G01X78263Y31819D02*
G01X78989Y31819D01*
G01X24105Y21908D02*
G01X24052Y22012D01*
G01X23948Y22116D01*
G01X23846Y22167D01*
G01X23638Y22167D01*
G01X23534Y22116D01*
G01X23429Y22012D01*
G01X23376Y21908D01*
G01X23325Y21753D01*
G01X23325Y21494D01*
G01X23376Y21337D01*
G01X23429Y21232D01*
G01X23534Y21128D01*
G01X23638Y21078D01*
G01X23846Y21078D01*
G01X23948Y21128D01*
G01X24052Y21232D01*
G01X24105Y21337D01*
G01X24448Y21961D02*
G01X24552Y22012D01*
G01X24707Y22167D01*
G01X24707Y21078D01*
G01X25309Y22167D02*
G01X25154Y22116D01*
G01X25103Y22012D01*
G01X25103Y21908D01*
G01X25154Y21804D01*
G01X25258Y21753D01*
G01X25466Y21700D01*
G01X25621Y21649D01*
G01X25726Y21545D01*
G01X25776Y21441D01*
G01X25776Y21286D01*
G01X25726Y21182D01*
G01X25675Y21128D01*
G01X25517Y21078D01*
G01X25309Y21078D01*
G01X25154Y21128D01*
G01X25103Y21182D01*
G01X25050Y21286D01*
G01X25050Y21441D01*
G01X25103Y21545D01*
G01X25205Y21649D01*
G01X25362Y21700D01*
G01X25571Y21753D01*
G01X25675Y21804D01*
G01X25726Y21908D01*
G01X25726Y22012D01*
G01X25675Y22116D01*
G01X25517Y22167D01*
G01X25309Y22167D01*
G01X71839Y80968D02*
G01X71839Y79879D01*
G01X71839Y80968D02*
G01X72307Y80968D01*
G01X72462Y80917D01*
G01X72515Y80867D01*
G01X72566Y80762D01*
G01X72566Y80658D01*
G01X72515Y80554D01*
G01X72462Y80501D01*
G01X72307Y80450D01*
G01X71839Y80450D01*
G01X72202Y80450D02*
G01X72566Y79879D01*
G01X73533Y80968D02*
G01X73013Y80968D01*
G01X72962Y80501D01*
G01X73013Y80554D01*
G01X73170Y80605D01*
G01X73325Y80605D01*
G01X73480Y80554D01*
G01X73584Y80450D01*
G01X73638Y80295D01*
G01X73638Y80191D01*
G01X73584Y80033D01*
G01X73480Y79929D01*
G01X73325Y79879D01*
G01X73170Y79879D01*
G01X73013Y79929D01*
G01X72962Y79983D01*
G01X72909Y80087D01*
G01X64473Y87191D02*
G01X64473Y86102D01*
G01X64473Y87191D02*
G01X64941Y87191D01*
G01X65096Y87140D01*
G01X65149Y87090D01*
G01X65200Y86985D01*
G01X65200Y86881D01*
G01X65149Y86777D01*
G01X65096Y86724D01*
G01X64941Y86673D01*
G01X64473Y86673D01*
G01X64836Y86673D02*
G01X65200Y86102D01*
G01X66272Y87191D02*
G01X65751Y86102D01*
G01X65543Y87191D02*
G01X66272Y87191D01*
G01X63330Y90874D02*
G01X63330Y89785D01*
G01X63330Y90874D02*
G01X63798Y90874D01*
G01X63953Y90823D01*
G01X64006Y90773D01*
G01X64057Y90668D01*
G01X64057Y90564D01*
G01X64006Y90460D01*
G01X63953Y90407D01*
G01X63798Y90356D01*
G01X63330Y90356D01*
G01X63693Y90356D02*
G01X64057Y89785D01*
G01X64400Y90668D02*
G01X64504Y90719D01*
G01X64661Y90874D01*
G01X64661Y89785D01*
G01X65314Y90874D02*
G01X65159Y90823D01*
G01X65055Y90668D01*
G01X65004Y90407D01*
G01X65004Y90252D01*
G01X65055Y89993D01*
G01X65159Y89835D01*
G01X65314Y89785D01*
G01X65418Y89785D01*
G01X65576Y89835D01*
G01X65680Y89993D01*
G01X65731Y90252D01*
G01X65731Y90407D01*
G01X65680Y90668D01*
G01X65576Y90823D01*
G01X65418Y90874D01*
G01X65314Y90874D01*
G01X57117Y9368D02*
G01X57948Y9368D01*
G01X58103Y9315D01*
G01X58156Y9264D01*
G01X58207Y9160D01*
G01X58207Y9056D01*
G01X58156Y8952D01*
G01X58103Y8898D01*
G01X57948Y8847D01*
G01X57844Y8847D01*
G01X57323Y9711D02*
G01X57272Y9813D01*
G01X57117Y9970D01*
G01X58207Y9970D01*
G01X58288Y21801D02*
G01X58288Y20709D01*
G01X58288Y21801D02*
G01X58652Y21801D01*
G01X58809Y21748D01*
G01X58911Y21644D01*
G01X58964Y21540D01*
G01X59015Y21385D01*
G01X59015Y21126D01*
G01X58964Y20968D01*
G01X58911Y20864D01*
G01X58809Y20760D01*
G01X58652Y20709D01*
G01X58288Y20709D01*
G01X59358Y21593D02*
G01X59462Y21644D01*
G01X59619Y21801D01*
G01X59619Y20709D01*
G01X52573Y25103D02*
G01X52573Y24011D01*
G01X52573Y25103D02*
G01X52937Y25103D01*
G01X53094Y25050D01*
G01X53196Y24946D01*
G01X53249Y24842D01*
G01X53300Y24687D01*
G01X53300Y24428D01*
G01X53249Y24270D01*
G01X53196Y24166D01*
G01X53094Y24062D01*
G01X52937Y24011D01*
G01X52573Y24011D01*
G01X53696Y24842D02*
G01X53696Y24895D01*
G01X53747Y24999D01*
G01X53800Y25050D01*
G01X53904Y25103D01*
G01X54110Y25103D01*
G01X54214Y25050D01*
G01X54268Y24999D01*
G01X54318Y24895D01*
G01X54318Y24791D01*
G01X54268Y24687D01*
G01X54163Y24532D01*
G01X53643Y24011D01*
G01X54372Y24011D01*
G01X60028Y83254D02*
G01X60028Y82165D01*
G01X60028Y83254D02*
G01X60496Y83254D01*
G01X60651Y83203D01*
G01X60704Y83153D01*
G01X60755Y83048D01*
G01X60755Y82944D01*
G01X60704Y82840D01*
G01X60651Y82787D01*
G01X60496Y82736D01*
G01X60028Y82736D01*
G01X60391Y82736D02*
G01X60755Y82165D01*
G01X61098Y83048D02*
G01X61202Y83099D01*
G01X61359Y83254D01*
G01X61359Y82165D01*
G01X61702Y83048D02*
G01X61806Y83099D01*
G01X61961Y83254D01*
G01X61961Y82165D01*
G01X53297Y83635D02*
G01X53297Y82546D01*
G01X53297Y83635D02*
G01X53765Y83635D01*
G01X53920Y83584D01*
G01X53973Y83534D01*
G01X54024Y83429D01*
G01X54024Y83325D01*
G01X53973Y83221D01*
G01X53920Y83168D01*
G01X53765Y83117D01*
G01X53297Y83117D01*
G01X53660Y83117D02*
G01X54024Y82546D01*
G01X54367Y83429D02*
G01X54471Y83480D01*
G01X54628Y83635D01*
G01X54628Y82546D01*
G01X55022Y83376D02*
G01X55022Y83429D01*
G01X55075Y83534D01*
G01X55126Y83584D01*
G01X55230Y83635D01*
G01X55438Y83635D01*
G01X55543Y83584D01*
G01X55593Y83534D01*
G01X55647Y83429D01*
G01X55647Y83325D01*
G01X55593Y83221D01*
G01X55489Y83064D01*
G01X54971Y82546D01*
G01X55698Y82546D01*
G01X91778Y73856D02*
G01X91778Y72767D01*
G01X91778Y73856D02*
G01X92246Y73856D01*
G01X92401Y73805D01*
G01X92454Y73755D01*
G01X92505Y73650D01*
G01X92505Y73546D01*
G01X92454Y73442D01*
G01X92401Y73389D01*
G01X92246Y73338D01*
G01X91778Y73338D01*
G01X92141Y73338D02*
G01X92505Y72767D01*
G01X92848Y73650D02*
G01X92952Y73701D01*
G01X93109Y73856D01*
G01X93109Y72767D01*
G01X93556Y73856D02*
G01X94128Y73856D01*
G01X93815Y73442D01*
G01X93970Y73442D01*
G01X94074Y73389D01*
G01X94128Y73338D01*
G01X94179Y73183D01*
G01X94179Y73079D01*
G01X94128Y72921D01*
G01X94024Y72817D01*
G01X93866Y72767D01*
G01X93711Y72767D01*
G01X93556Y72817D01*
G01X93503Y72871D01*
G01X93452Y72975D01*
G01X96223Y66490D02*
G01X96223Y65401D01*
G01X96223Y66490D02*
G01X96691Y66490D01*
G01X96846Y66439D01*
G01X96899Y66389D01*
G01X96950Y66284D01*
G01X96950Y66180D01*
G01X96899Y66076D01*
G01X96846Y66023D01*
G01X96691Y65972D01*
G01X96223Y65972D01*
G01X96586Y65972D02*
G01X96950Y65401D01*
G01X97293Y66284D02*
G01X97397Y66335D01*
G01X97554Y66490D01*
G01X97554Y65401D01*
G01X98415Y66490D02*
G01X97897Y65764D01*
G01X98674Y65764D01*
G01X98415Y66490D02*
G01X98415Y65401D01*
G01X97061Y74682D02*
G01X97061Y73592D01*
G01X97061Y73592D02*
G01X97684Y73592D01*
G01X98027Y74682D02*
G01X98027Y73592D01*
G01X98027Y74682D02*
G01X98702Y74682D01*
G01X98027Y74164D02*
G01X98443Y74164D01*
G01X98027Y73592D02*
G01X98702Y73592D01*
G01X99045Y74682D02*
G01X99045Y73592D01*
G01X99045Y74682D02*
G01X99411Y74682D01*
G01X99566Y74631D01*
G01X99670Y74527D01*
G01X99721Y74423D01*
G01X99774Y74268D01*
G01X99774Y74009D01*
G01X99721Y73851D01*
G01X99670Y73747D01*
G01X99566Y73643D01*
G01X99411Y73592D01*
G01X99045Y73592D01*
G01X100117Y74476D02*
G01X100221Y74527D01*
G01X100376Y74682D01*
G01X100376Y73592D01*
G01X96807Y70491D02*
G01X96807Y69401D01*
G01X96807Y69401D02*
G01X97430Y69401D01*
G01X97773Y70491D02*
G01X97773Y69401D01*
G01X97773Y70491D02*
G01X98448Y70491D01*
G01X97773Y69973D02*
G01X98189Y69973D01*
G01X97773Y69401D02*
G01X98448Y69401D01*
G01X98791Y70491D02*
G01X98791Y69401D01*
G01X98791Y70491D02*
G01X99157Y70491D01*
G01X99312Y70440D01*
G01X99416Y70336D01*
G01X99467Y70232D01*
G01X99520Y70077D01*
G01X99520Y69818D01*
G01X99467Y69660D01*
G01X99416Y69556D01*
G01X99312Y69452D01*
G01X99157Y69401D01*
G01X98791Y69401D01*
G01X99914Y70232D02*
G01X99914Y70285D01*
G01X99967Y70389D01*
G01X100018Y70440D01*
G01X100122Y70491D01*
G01X100330Y70491D01*
G01X100435Y70440D01*
G01X100485Y70389D01*
G01X100539Y70285D01*
G01X100539Y70181D01*
G01X100485Y70077D01*
G01X100381Y69919D01*
G01X99863Y69401D01*
G01X100590Y69401D01*
G01X97366Y45662D02*
G01X97366Y44573D01*
G01X97366Y45662D02*
G01X97834Y45662D01*
G01X97989Y45611D01*
G01X98042Y45561D01*
G01X98093Y45456D01*
G01X98093Y45352D01*
G01X98042Y45248D01*
G01X97989Y45195D01*
G01X97834Y45144D01*
G01X97366Y45144D01*
G01X97729Y45144D02*
G01X98093Y44573D01*
G01X98436Y45456D02*
G01X98540Y45507D01*
G01X98697Y45662D01*
G01X98697Y44573D01*
G01X99662Y45662D02*
G01X99144Y45662D01*
G01X99091Y45195D01*
G01X99144Y45248D01*
G01X99299Y45299D01*
G01X99454Y45299D01*
G01X99612Y45248D01*
G01X99716Y45144D01*
G01X99767Y44989D01*
G01X99767Y44885D01*
G01X99716Y44727D01*
G01X99612Y44623D01*
G01X99454Y44573D01*
G01X99299Y44573D01*
G01X99144Y44623D01*
G01X99091Y44677D01*
G01X99040Y44781D01*
G01X97442Y49409D02*
G01X97442Y48319D01*
G01X97442Y48319D02*
G01X98065Y48319D01*
G01X98408Y49409D02*
G01X98408Y48319D01*
G01X98408Y49409D02*
G01X99083Y49409D01*
G01X98408Y48891D02*
G01X98824Y48891D01*
G01X98408Y48319D02*
G01X99083Y48319D01*
G01X99426Y49409D02*
G01X99426Y48319D01*
G01X99426Y49409D02*
G01X99792Y49409D01*
G01X99947Y49358D01*
G01X100051Y49254D01*
G01X100102Y49150D01*
G01X100155Y48995D01*
G01X100155Y48736D01*
G01X100102Y48578D01*
G01X100051Y48474D01*
G01X99947Y48370D01*
G01X99792Y48319D01*
G01X99426Y48319D01*
G01X100602Y49409D02*
G01X101174Y49409D01*
G01X100861Y48995D01*
G01X101016Y48995D01*
G01X101120Y48941D01*
G01X101174Y48891D01*
G01X101225Y48736D01*
G01X101225Y48631D01*
G01X101174Y48474D01*
G01X101070Y48370D01*
G01X100912Y48319D01*
G01X100757Y48319D01*
G01X100602Y48370D01*
G01X100549Y48423D01*
G01X100498Y48527D01*
G01X73401Y61334D02*
G01X73401Y60554D01*
G01X73452Y60397D01*
G01X73556Y60295D01*
G01X73714Y60242D01*
G01X73818Y60242D01*
G01X73973Y60295D01*
G01X74077Y60397D01*
G01X74128Y60554D01*
G01X74128Y61334D01*
G01X74471Y61126D02*
G01X74575Y61177D01*
G01X74732Y61334D01*
G01X74732Y60242D01*
G01X77730Y70986D02*
G01X77834Y71090D01*
G01X77884Y71245D01*
G01X77884Y71453D01*
G01X77834Y71608D01*
G01X77730Y71712D01*
G01X77625Y71712D01*
G01X77521Y71662D01*
G01X77470Y71608D01*
G01X77417Y71504D01*
G01X77313Y71192D01*
G01X77262Y71090D01*
G01X77209Y71037D01*
G01X77105Y70986D01*
G01X76950Y70986D01*
G01X76846Y71090D01*
G01X76795Y71245D01*
G01X76795Y71453D01*
G01X76846Y71608D01*
G01X76950Y71712D01*
G01X77884Y70643D02*
G01X76795Y70381D01*
G01X77884Y70122D02*
G01X76795Y70381D01*
G01X77884Y70122D02*
G01X76795Y69863D01*
G01X77884Y69604D02*
G01X76795Y69863D01*
G01X77676Y69261D02*
G01X77730Y69157D01*
G01X77884Y69000D01*
G01X76795Y69000D01*
G54D43*
G75*
G01X53885Y76696D02*
G03X53885Y76694I-150J-1D01*
G01*
G54D44*
G75*
G01X56036Y75195D02*
G03X56036Y75193I-200J-1D01*
G01*
G54D45*
G75*
G01X70504Y56978D02*
G03X70504Y56973I-300J-2D01*
G01*
G54D43*
G75*
G01X67778Y58078D02*
G03X67778Y58076I-150J-1D01*
G01*
G54D10*
G75*
G01X55876Y11515D02*
G03X55876Y11515I-127J0D01*
G01*
G75*
G01X73039Y32820D02*
G03X73039Y32820I-5999J0D01*
G01*
G75*
G01X75942Y71713D02*
G03X75942Y71713I-1651J0D01*
G01*
M00*
M02*
