;Layer: Drill PTH
;EasyEDA v6.4.5, 2020-09-10T17:23:05--4:00
;1c95f6ef93c34f1eadd188c2f50e5772,ebf70693e8d24e819ce4a1bff5f43d4f,10
;Gerber Generator version 0.2
M48
METRIC,LZ,000.000
;Holesize 1 = 0.305 METRIC
T01C0.305
;Holesize 2 = 0.310 METRIC
T02C0.310
;Holesize 3 = 0.701 METRIC
T03C0.701
;Holesize 4 = 0.889 METRIC
T04C0.889
;Holesize 5 = 0.900 METRIC
T05C0.900
;Holesize 6 = 0.901 METRIC
T06C0.901
;Holesize 7 = 1.000 METRIC
T07C1.000
;Holesize 8 = 1.101 METRIC
T08C1.101
;Holesize 9 = 1.200 METRIC
T09C1.200
%
G05
G90
T01
X+037587Y+052027
T02
X+010315Y+076579
X+018977Y+038278
X+043531Y+016020
X+018977Y+019515
X+089513Y+077575
X+045225Y+015832
X+080186Y+048573
X+080186Y+043016
X+051222Y+048139
X+051222Y+054921
X+071451Y+045456
X+075946Y+028626
X+070958Y+057123
X+070958Y+066937
X+069543Y+062126
X+063574Y+038060
X+049439Y+048380
X+034567Y+080293
X+048255Y+052408
X+050188Y+048007
X+046028Y+054263
X+049403Y+044910
X+075390Y+013529
X+069165Y+048144
X+075926Y+049571
X+087943Y+096780
X+038083Y+086655
X+050676Y+049942
X+055184Y+073935
X+048967Y+094288
X+048967Y+088631
X+020737Y+075789
X+092136Y+042800
X+089881Y+042800
X+052060Y+071865
X+052060Y+024044
X+063300Y+069178
X+070379Y+053427
X+055634Y+067275
X+070168Y+077781
X+090145Y+093310
X+076190Y+093310
X+072408Y+087260
X+020150Y+094959
X+013970Y+013917
X+063528Y+087443
X+076863Y+095108
X+013386Y+012122
X+011761Y+059193
X+057115Y+014832
X+058464Y+015324
X+080013Y+042055
X+073541Y+046742
X+084847Y+065510
X+088712Y+064346
X+010409Y+057234
X+010409Y+061044
X+017140Y+072982
X+027554Y+102319
T03
X+100022Y+058949G85X+099222Y+058949
X+100022Y+051710G85X+099222Y+051710
T04
X+101232Y+017121
X+099436Y+015324
X+097640Y+013528
X+089512Y+101449
X+091308Y+099652
X+093104Y+097856
X+017412Y+005146
X+015616Y+006942
X+013820Y+008739
X+005565Y+089474
X+007361Y+091270
X+009157Y+093067
T05
X+063252Y+032850
X+070851Y+032850
T06
X+096922Y+052919
X+096922Y+057760
T07
X+050668Y+007069
X+050668Y+009609
X+053208Y+007069
X+053208Y+009609
X+055748Y+007069
X+055748Y+009609
T08
X+018283Y+057361
X+020823Y+057361
X+018283Y+054821
X+020823Y+054821
X+018283Y+052281
X+020823Y+052281
X+018283Y+049741
X+020823Y+049741
X+007615Y+059012
X+007615Y+056472
X+007615Y+053932
X+007615Y+051392
X+007615Y+048852
T09
X+100987Y+089719
X+099191Y+091515
X+097395Y+093311
X+095599Y+095108
X+017294Y+101077
X+015498Y+099280
X+013702Y+097484
X+011906Y+095688
X+005429Y+017511
X+007225Y+015714
X+009021Y+013918
X+010817Y+012122
X+089630Y+005645
X+091426Y+007441
X+093222Y+009237
X+095018Y+011034
M30
