G04 Layer: TopSilkLayer*
G04 EasyEDA v6.4.5, 2020-09-10T17:23:05--4:00*
G04 2e966794ef5b4dc9b60ed7227ec9bd29,ebf70693e8d24e819ce4a1bff5f43d4f,10*
G04 Gerber Generator version 0.2*
G04 Scale: 100 percent, Rotated: No, Reflected: No *
G04 Dimensions in millimeters *
G04 leading zeros omitted , absolute positions ,3 integer and 3 decimal *
%FSLAX33Y33*%
%MOMM*%
G90*
G71D02*

%ADD10C,0.254000*%
%ADD30C,0.200000*%
%ADD31C,0.100000*%
%ADD32C,0.101600*%
%ADD33C,0.203200*%
%ADD34C,0.299999*%
%ADD35C,0.399999*%
%ADD36C,0.152400*%

%LPD*%
G54D10*
G01X20730Y24298D02*
G01X14831Y24298D01*
G01X14831Y18398D01*
G01X20730Y18398D01*
G01X20730Y24298D01*
G01X2288Y17668D02*
G01X1538Y17668D01*
G01X1538Y29067D01*
G01X2288Y29067D01*
G01X5588Y17668D02*
G01X6338Y17668D01*
G01X6338Y29067D01*
G01X5588Y29067D01*
G54D30*
G01X8725Y26434D02*
G01X8725Y27534D01*
G01X10326Y27534D01*
G01X10326Y26434D01*
G01X8725Y25634D02*
G01X8725Y24534D01*
G01X9725Y24534D01*
G01X10326Y24534D01*
G01X10326Y25634D01*
G01X8725Y22243D02*
G01X8725Y23343D01*
G01X10326Y23343D01*
G01X10326Y22243D01*
G01X8725Y21443D02*
G01X8725Y20343D01*
G01X9725Y20343D01*
G01X10326Y20343D01*
G01X10326Y21443D01*
G01X2305Y14262D02*
G01X3405Y14262D01*
G01X3405Y12661D01*
G01X2305Y12661D01*
G01X1505Y14262D02*
G01X405Y14262D01*
G01X405Y13262D01*
G01X405Y12661D01*
G01X1505Y12661D01*
G01X2305Y10833D02*
G01X3405Y10833D01*
G01X3405Y9232D01*
G01X2305Y9232D01*
G01X1505Y10833D02*
G01X405Y10833D01*
G01X405Y9833D01*
G01X405Y9232D01*
G01X1505Y9232D01*
G01X2178Y6769D02*
G01X3278Y6769D01*
G01X3278Y5168D01*
G01X2178Y5168D01*
G01X1378Y6769D02*
G01X278Y6769D01*
G01X278Y5769D01*
G01X278Y5168D01*
G01X1378Y5168D01*
G01X11539Y30060D02*
G01X10439Y30060D01*
G01X10439Y31661D01*
G01X11539Y31661D01*
G01X12339Y30060D02*
G01X13439Y30060D01*
G01X13439Y31060D01*
G01X13439Y31661D01*
G01X12339Y31661D01*
G01X25790Y32979D02*
G01X25790Y33379D01*
G01X26190Y33379D01*
G01X29691Y33379D02*
G01X30091Y33379D01*
G01X30091Y32979D01*
G01X29691Y29079D02*
G01X30091Y29079D01*
G01X30091Y29479D01*
G01X26190Y29079D02*
G01X25790Y29079D01*
G01X25790Y29479D01*
G54D10*
G01X12827Y11557D02*
G01X23495Y11557D01*
G01X23495Y6477D01*
G01X12827Y6477D01*
G01X12827Y11557D01*
G54D30*
G01X15349Y3009D02*
G01X14249Y3009D01*
G01X14249Y4610D01*
G01X15349Y4610D01*
G01X16149Y3009D02*
G01X17249Y3009D01*
G01X17249Y4009D01*
G01X17249Y4610D01*
G01X16149Y4610D01*
G01X23661Y30207D02*
G01X23661Y29107D01*
G01X22060Y29107D01*
G01X22060Y30207D01*
G01X23661Y31007D02*
G01X23661Y32107D01*
G01X22661Y32107D01*
G01X22060Y32107D01*
G01X22060Y31007D01*
G01X29610Y27089D02*
G01X30710Y27089D01*
G01X30710Y25488D01*
G01X29610Y25488D01*
G01X28810Y27089D02*
G01X27710Y27089D01*
G01X27710Y26089D01*
G01X27710Y25488D01*
G01X28810Y25488D01*
G01X24981Y23767D02*
G01X24981Y24867D01*
G01X26582Y24867D01*
G01X26582Y23767D01*
G01X24981Y22967D02*
G01X24981Y21867D01*
G01X25981Y21867D01*
G01X26582Y21867D01*
G01X26582Y22967D01*
G01X29192Y8470D02*
G01X28092Y8470D01*
G01X28092Y10071D01*
G01X29192Y10071D01*
G01X29992Y8470D02*
G01X31092Y8470D01*
G01X31092Y9470D01*
G01X31092Y10071D01*
G01X29992Y10071D01*
G01X15329Y31768D02*
G01X15329Y32868D01*
G01X16930Y32868D01*
G01X16930Y31768D01*
G01X15329Y30968D02*
G01X15329Y29868D01*
G01X16329Y29868D01*
G01X16930Y29868D01*
G01X16930Y30968D01*
G54D31*
G01X28615Y3771D02*
G01X28615Y5372D01*
G01X30213Y5372D01*
G01X30213Y3771D01*
G01X28615Y3771D01*
G54D32*
G01X29413Y3772D02*
G01X29413Y3372D01*
G54D30*
G01X26308Y6769D02*
G01X27408Y6769D01*
G01X27408Y5168D01*
G01X26308Y5168D01*
G01X25508Y6769D02*
G01X24408Y6769D01*
G01X24408Y5769D01*
G01X24408Y5168D01*
G01X25508Y5168D01*
G01X21863Y4991D02*
G01X22963Y4991D01*
G01X22963Y3390D01*
G01X21863Y3390D01*
G01X21063Y4991D02*
G01X19963Y4991D01*
G01X19963Y3991D01*
G01X19963Y3390D01*
G01X21063Y3390D01*
G01X26181Y2578D02*
G01X27281Y2578D01*
G01X27281Y977D01*
G01X26181Y977D01*
G01X25381Y2578D02*
G01X24281Y2578D01*
G01X24281Y1578D01*
G01X24281Y977D01*
G01X25381Y977D01*
G54D33*
G01X26543Y12446D02*
G01X31623Y12446D01*
G01X31623Y20066D01*
G01X26543Y20066D01*
G01X26543Y12446D01*
G01X26543Y17314D01*
G54D30*
G01X19012Y33038D02*
G01X19012Y34138D01*
G01X20613Y34138D01*
G01X20613Y33038D01*
G01X19012Y32238D02*
G01X19012Y31138D01*
G01X20012Y31138D01*
G01X20613Y31138D01*
G01X20613Y32238D01*
G01X20175Y850D02*
G01X19075Y850D01*
G01X19075Y2451D01*
G01X20175Y2451D01*
G01X20975Y850D02*
G01X22075Y850D01*
G01X22075Y1850D01*
G01X22075Y2451D01*
G01X20975Y2451D01*
G54D10*
G01X6838Y7263D02*
G01X6838Y864D01*
G01X6838Y7263D02*
G01X10638Y7263D01*
G01X10638Y864D02*
G01X10638Y7263D01*
G01X10638Y864D02*
G01X6838Y864D01*
G54D30*
G01X30646Y22460D02*
G01X30646Y21360D01*
G01X29045Y21360D01*
G01X29045Y22460D01*
G01X30646Y23260D02*
G01X30646Y24360D01*
G01X29646Y24360D01*
G01X29045Y24360D01*
G01X29045Y23260D01*
G54D10*
G01X12573Y15240D02*
G01X12573Y17088D01*
G01X10033Y17088D01*
G01X10033Y15240D01*
G01X10033Y13716D02*
G01X10033Y11857D01*
G01X12573Y11857D01*
G01X12573Y13716D01*
G54D30*
G01X6459Y33108D02*
G01X5359Y33108D01*
G01X5359Y34709D01*
G01X6459Y34709D01*
G01X7259Y33108D02*
G01X8359Y33108D01*
G01X8359Y34108D01*
G01X8359Y34709D01*
G01X7259Y34709D01*
G54D10*
G01X6350Y11938D02*
G01X6350Y10089D01*
G01X8890Y10089D01*
G01X8890Y11938D01*
G01X8890Y13462D02*
G01X8890Y15320D01*
G01X6350Y15320D01*
G01X6350Y13462D01*
G54D36*
G01X17780Y27663D02*
G01X17780Y26883D01*
G01X17831Y26725D01*
G01X17935Y26624D01*
G01X18093Y26570D01*
G01X18197Y26570D01*
G01X18352Y26624D01*
G01X18456Y26725D01*
G01X18507Y26883D01*
G01X18507Y27663D01*
G01X18850Y27454D02*
G01X18954Y27505D01*
G01X19111Y27663D01*
G01X19111Y26570D01*
G01X3913Y32212D02*
G01X4639Y31122D01*
G01X4639Y32212D02*
G01X3913Y31122D01*
G01X4982Y32004D02*
G01X5086Y32057D01*
G01X5244Y32212D01*
G01X5244Y31122D01*
G01X9277Y28862D02*
G01X9172Y28808D01*
G01X9068Y28704D01*
G01X9017Y28602D01*
G01X9017Y28394D01*
G01X9068Y28290D01*
G01X9172Y28186D01*
G01X9277Y28133D01*
G01X9431Y28082D01*
G01X9691Y28082D01*
G01X9848Y28133D01*
G01X9952Y28186D01*
G01X10056Y28290D01*
G01X10107Y28394D01*
G01X10107Y28602D01*
G01X10056Y28704D01*
G01X9952Y28808D01*
G01X9848Y28862D01*
G01X9223Y29204D02*
G01X9172Y29309D01*
G01X9017Y29464D01*
G01X10107Y29464D01*
G01X9023Y18488D02*
G01X8918Y18435D01*
G01X8814Y18331D01*
G01X8763Y18229D01*
G01X8763Y18021D01*
G01X8814Y17917D01*
G01X8918Y17813D01*
G01X9023Y17759D01*
G01X9177Y17708D01*
G01X9437Y17708D01*
G01X9594Y17759D01*
G01X9698Y17813D01*
G01X9802Y17917D01*
G01X9853Y18021D01*
G01X9853Y18229D01*
G01X9802Y18331D01*
G01X9698Y18435D01*
G01X9594Y18488D01*
G01X9023Y18882D02*
G01X8969Y18882D01*
G01X8865Y18935D01*
G01X8814Y18986D01*
G01X8763Y19090D01*
G01X8763Y19298D01*
G01X8814Y19403D01*
G01X8865Y19453D01*
G01X8969Y19507D01*
G01X9073Y19507D01*
G01X9177Y19453D01*
G01X9335Y19349D01*
G01X9853Y18831D01*
G01X9853Y19558D01*
G01X2647Y15346D02*
G01X2594Y15450D01*
G01X2490Y15554D01*
G01X2388Y15605D01*
G01X2180Y15605D01*
G01X2076Y15554D01*
G01X1972Y15450D01*
G01X1918Y15346D01*
G01X1867Y15191D01*
G01X1867Y14932D01*
G01X1918Y14775D01*
G01X1972Y14671D01*
G01X2076Y14566D01*
G01X2180Y14516D01*
G01X2388Y14516D01*
G01X2490Y14566D01*
G01X2594Y14671D01*
G01X2647Y14775D01*
G01X3094Y15605D02*
G01X3666Y15605D01*
G01X3353Y15191D01*
G01X3508Y15191D01*
G01X3612Y15138D01*
G01X3666Y15087D01*
G01X3717Y14932D01*
G01X3717Y14828D01*
G01X3666Y14671D01*
G01X3562Y14566D01*
G01X3404Y14516D01*
G01X3249Y14516D01*
G01X3094Y14566D01*
G01X3041Y14620D01*
G01X2990Y14724D01*
G01X2647Y11917D02*
G01X2594Y12021D01*
G01X2490Y12125D01*
G01X2388Y12176D01*
G01X2180Y12176D01*
G01X2076Y12125D01*
G01X1972Y12021D01*
G01X1918Y11917D01*
G01X1867Y11762D01*
G01X1867Y11503D01*
G01X1918Y11346D01*
G01X1972Y11242D01*
G01X2076Y11137D01*
G01X2180Y11087D01*
G01X2388Y11087D01*
G01X2490Y11137D01*
G01X2594Y11242D01*
G01X2647Y11346D01*
G01X3508Y12176D02*
G01X2990Y11450D01*
G01X3770Y11450D01*
G01X3508Y12176D02*
G01X3508Y11087D01*
G01X2520Y7853D02*
G01X2467Y7957D01*
G01X2363Y8061D01*
G01X2261Y8112D01*
G01X2053Y8112D01*
G01X1949Y8061D01*
G01X1845Y7957D01*
G01X1791Y7853D01*
G01X1740Y7698D01*
G01X1740Y7439D01*
G01X1791Y7282D01*
G01X1845Y7178D01*
G01X1949Y7073D01*
G01X2053Y7023D01*
G01X2261Y7023D01*
G01X2363Y7073D01*
G01X2467Y7178D01*
G01X2520Y7282D01*
G01X3485Y8112D02*
G01X2967Y8112D01*
G01X2914Y7645D01*
G01X2967Y7698D01*
G01X3122Y7749D01*
G01X3277Y7749D01*
G01X3435Y7698D01*
G01X3539Y7594D01*
G01X3590Y7439D01*
G01X3590Y7335D01*
G01X3539Y7178D01*
G01X3435Y7073D01*
G01X3277Y7023D01*
G01X3122Y7023D01*
G01X2967Y7073D01*
G01X2914Y7127D01*
G01X2863Y7231D01*
G01X11303Y33007D02*
G01X11303Y31917D01*
G01X11303Y33007D02*
G01X11771Y33007D01*
G01X11926Y32956D01*
G01X11979Y32905D01*
G01X12030Y32801D01*
G01X12030Y32697D01*
G01X11979Y32593D01*
G01X11926Y32539D01*
G01X11771Y32489D01*
G01X11303Y32489D01*
G01X11667Y32489D02*
G01X12030Y31917D01*
G01X12373Y32801D02*
G01X12477Y32852D01*
G01X12634Y33007D01*
G01X12634Y31917D01*
G01X25527Y34924D02*
G01X25527Y34145D01*
G01X25578Y33987D01*
G01X25682Y33883D01*
G01X25840Y33832D01*
G01X25944Y33832D01*
G01X26099Y33883D01*
G01X26203Y33987D01*
G01X26254Y34145D01*
G01X26254Y34924D01*
G01X26701Y34924D02*
G01X27272Y34924D01*
G01X26963Y34508D01*
G01X27118Y34508D01*
G01X27222Y34455D01*
G01X27272Y34404D01*
G01X27326Y34249D01*
G01X27326Y34145D01*
G01X27272Y33987D01*
G01X27168Y33883D01*
G01X27013Y33832D01*
G01X26858Y33832D01*
G01X26701Y33883D01*
G01X26650Y33936D01*
G01X26597Y34041D01*
G01X16566Y2651D02*
G01X16513Y2755D01*
G01X16409Y2860D01*
G01X16307Y2910D01*
G01X16099Y2910D01*
G01X15995Y2860D01*
G01X15891Y2755D01*
G01X15837Y2651D01*
G01X15787Y2496D01*
G01X15787Y2237D01*
G01X15837Y2080D01*
G01X15891Y1976D01*
G01X15995Y1871D01*
G01X16099Y1821D01*
G01X16307Y1821D01*
G01X16409Y1871D01*
G01X16513Y1976D01*
G01X16566Y2080D01*
G01X17168Y2910D02*
G01X17013Y2860D01*
G01X16960Y2755D01*
G01X16960Y2651D01*
G01X17013Y2547D01*
G01X17118Y2496D01*
G01X17323Y2443D01*
G01X17481Y2392D01*
G01X17585Y2288D01*
G01X17636Y2184D01*
G01X17636Y2029D01*
G01X17585Y1925D01*
G01X17532Y1871D01*
G01X17377Y1821D01*
G01X17168Y1821D01*
G01X17013Y1871D01*
G01X16960Y1925D01*
G01X16909Y2029D01*
G01X16909Y2184D01*
G01X16960Y2288D01*
G01X17064Y2392D01*
G01X17222Y2443D01*
G01X17427Y2496D01*
G01X17532Y2547D01*
G01X17585Y2651D01*
G01X17585Y2755D01*
G01X17532Y2860D01*
G01X17377Y2910D01*
G01X17168Y2910D01*
G01X23760Y30645D02*
G01X24849Y30645D01*
G01X23760Y30645D02*
G01X23760Y31112D01*
G01X23810Y31267D01*
G01X23861Y31320D01*
G01X23965Y31371D01*
G01X24070Y31371D01*
G01X24174Y31320D01*
G01X24227Y31267D01*
G01X24278Y31112D01*
G01X24278Y30645D01*
G01X24278Y31008D02*
G01X24849Y31371D01*
G01X24019Y31767D02*
G01X23965Y31767D01*
G01X23861Y31818D01*
G01X23810Y31871D01*
G01X23760Y31976D01*
G01X23760Y32181D01*
G01X23810Y32285D01*
G01X23861Y32339D01*
G01X23965Y32390D01*
G01X24070Y32390D01*
G01X24174Y32339D01*
G01X24331Y32235D01*
G01X24849Y31714D01*
G01X24849Y32443D01*
G01X29952Y28173D02*
G01X29899Y28277D01*
G01X29795Y28381D01*
G01X29693Y28432D01*
G01X29485Y28432D01*
G01X29381Y28381D01*
G01X29277Y28277D01*
G01X29223Y28173D01*
G01X29172Y28018D01*
G01X29172Y27759D01*
G01X29223Y27602D01*
G01X29277Y27498D01*
G01X29381Y27393D01*
G01X29485Y27343D01*
G01X29693Y27343D01*
G01X29795Y27393D01*
G01X29899Y27498D01*
G01X29952Y27602D01*
G01X30971Y28069D02*
G01X30917Y27914D01*
G01X30813Y27810D01*
G01X30658Y27759D01*
G01X30607Y27759D01*
G01X30450Y27810D01*
G01X30346Y27914D01*
G01X30295Y28069D01*
G01X30295Y28122D01*
G01X30346Y28277D01*
G01X30450Y28381D01*
G01X30607Y28432D01*
G01X30658Y28432D01*
G01X30813Y28381D01*
G01X30917Y28277D01*
G01X30971Y28069D01*
G01X30971Y27810D01*
G01X30917Y27551D01*
G01X30813Y27393D01*
G01X30658Y27343D01*
G01X30554Y27343D01*
G01X30399Y27393D01*
G01X30346Y27498D01*
G01X23638Y23329D02*
G01X24727Y23329D01*
G01X23638Y23329D02*
G01X23638Y23797D01*
G01X23689Y23952D01*
G01X23739Y24005D01*
G01X23843Y24056D01*
G01X23948Y24056D01*
G01X24052Y24005D01*
G01X24105Y23952D01*
G01X24156Y23797D01*
G01X24156Y23329D01*
G01X24156Y23693D02*
G01X24727Y24056D01*
G01X23638Y24503D02*
G01X23638Y25074D01*
G01X24052Y24765D01*
G01X24052Y24919D01*
G01X24105Y25024D01*
G01X24156Y25074D01*
G01X24311Y25128D01*
G01X24415Y25128D01*
G01X24572Y25074D01*
G01X24677Y24970D01*
G01X24727Y24815D01*
G01X24727Y24660D01*
G01X24677Y24503D01*
G01X24623Y24452D01*
G01X24519Y24399D01*
G01X29630Y8371D02*
G01X29630Y7282D01*
G01X29630Y8371D02*
G01X30097Y8371D01*
G01X30252Y8321D01*
G01X30305Y8270D01*
G01X30356Y8166D01*
G01X30356Y8061D01*
G01X30305Y7957D01*
G01X30252Y7904D01*
G01X30097Y7853D01*
G01X29630Y7853D01*
G01X29993Y7853D02*
G01X30356Y7282D01*
G01X31220Y8371D02*
G01X30699Y7645D01*
G01X31479Y7645D01*
G01X31220Y8371D02*
G01X31220Y7282D01*
G01X14245Y32110D02*
G01X14141Y32057D01*
G01X14037Y31953D01*
G01X13986Y31851D01*
G01X13986Y31643D01*
G01X14037Y31539D01*
G01X14141Y31435D01*
G01X14245Y31381D01*
G01X14400Y31330D01*
G01X14659Y31330D01*
G01X14816Y31381D01*
G01X14920Y31435D01*
G01X15025Y31539D01*
G01X15075Y31643D01*
G01X15075Y31851D01*
G01X15025Y31953D01*
G01X14920Y32057D01*
G01X14816Y32110D01*
G01X14191Y32453D02*
G01X14141Y32557D01*
G01X13986Y32712D01*
G01X15075Y32712D01*
G01X13986Y33367D02*
G01X14037Y33210D01*
G01X14191Y33108D01*
G01X14453Y33055D01*
G01X14608Y33055D01*
G01X14867Y33108D01*
G01X15025Y33210D01*
G01X15075Y33367D01*
G01X15075Y33472D01*
G01X15025Y33627D01*
G01X14867Y33731D01*
G01X14608Y33782D01*
G01X14453Y33782D01*
G01X14191Y33731D01*
G01X14037Y33627D01*
G01X13986Y33472D01*
G01X13986Y33367D01*
G01X25870Y8112D02*
G01X25870Y7023D01*
G01X25870Y8112D02*
G01X26338Y8112D01*
G01X26493Y8061D01*
G01X26546Y8011D01*
G01X26597Y7907D01*
G01X26597Y7802D01*
G01X26546Y7698D01*
G01X26493Y7645D01*
G01X26338Y7594D01*
G01X25870Y7594D01*
G01X26234Y7594D02*
G01X26597Y7023D01*
G01X27565Y8112D02*
G01X27044Y8112D01*
G01X26993Y7645D01*
G01X27044Y7698D01*
G01X27201Y7749D01*
G01X27356Y7749D01*
G01X27511Y7698D01*
G01X27615Y7594D01*
G01X27669Y7439D01*
G01X27669Y7335D01*
G01X27615Y7178D01*
G01X27511Y7073D01*
G01X27356Y7023D01*
G01X27201Y7023D01*
G01X27044Y7073D01*
G01X26993Y7127D01*
G01X26940Y7231D01*
G01X21425Y6334D02*
G01X21425Y5245D01*
G01X21425Y6334D02*
G01X21893Y6334D01*
G01X22048Y6283D01*
G01X22101Y6233D01*
G01X22152Y6129D01*
G01X22152Y6024D01*
G01X22101Y5920D01*
G01X22048Y5867D01*
G01X21893Y5816D01*
G01X21425Y5816D01*
G01X21789Y5816D02*
G01X22152Y5245D01*
G01X23120Y6179D02*
G01X23066Y6283D01*
G01X22911Y6334D01*
G01X22807Y6334D01*
G01X22652Y6283D01*
G01X22548Y6129D01*
G01X22495Y5867D01*
G01X22495Y5608D01*
G01X22548Y5400D01*
G01X22652Y5295D01*
G01X22807Y5245D01*
G01X22860Y5245D01*
G01X23015Y5295D01*
G01X23120Y5400D01*
G01X23170Y5557D01*
G01X23170Y5608D01*
G01X23120Y5763D01*
G01X23015Y5867D01*
G01X22860Y5920D01*
G01X22807Y5920D01*
G01X22652Y5867D01*
G01X22548Y5763D01*
G01X22495Y5608D01*
G01X25743Y3921D02*
G01X25743Y2832D01*
G01X25743Y3921D02*
G01X26211Y3921D01*
G01X26366Y3870D01*
G01X26419Y3820D01*
G01X26470Y3716D01*
G01X26470Y3611D01*
G01X26419Y3507D01*
G01X26366Y3454D01*
G01X26211Y3403D01*
G01X25743Y3403D01*
G01X26107Y3403D02*
G01X26470Y2832D01*
G01X27542Y3921D02*
G01X27021Y2832D01*
G01X26813Y3921D02*
G01X27542Y3921D01*
G01X17669Y32600D02*
G01X18758Y32600D01*
G01X17669Y32600D02*
G01X17669Y33068D01*
G01X17720Y33223D01*
G01X17770Y33276D01*
G01X17874Y33327D01*
G01X17979Y33327D01*
G01X18083Y33276D01*
G01X18136Y33223D01*
G01X18187Y33068D01*
G01X18187Y32600D01*
G01X18187Y32964D02*
G01X18758Y33327D01*
G01X18032Y34345D02*
G01X18187Y34295D01*
G01X18291Y34190D01*
G01X18342Y34036D01*
G01X18342Y33982D01*
G01X18291Y33827D01*
G01X18187Y33723D01*
G01X18032Y33670D01*
G01X17979Y33670D01*
G01X17824Y33723D01*
G01X17720Y33827D01*
G01X17669Y33982D01*
G01X17669Y34036D01*
G01X17720Y34190D01*
G01X17824Y34295D01*
G01X18032Y34345D01*
G01X18291Y34345D01*
G01X18550Y34295D01*
G01X18708Y34190D01*
G01X18758Y34036D01*
G01X18758Y33931D01*
G01X18708Y33774D01*
G01X18603Y33723D01*
G01X17544Y1264D02*
G01X17491Y1369D01*
G01X17387Y1473D01*
G01X17285Y1524D01*
G01X17077Y1524D01*
G01X16973Y1473D01*
G01X16869Y1369D01*
G01X16815Y1264D01*
G01X16765Y1109D01*
G01X16765Y850D01*
G01X16815Y693D01*
G01X16869Y589D01*
G01X16973Y485D01*
G01X17077Y434D01*
G01X17285Y434D01*
G01X17387Y485D01*
G01X17491Y589D01*
G01X17544Y693D01*
G01X17887Y1318D02*
G01X17991Y1369D01*
G01X18146Y1524D01*
G01X18146Y434D01*
G01X18489Y1318D02*
G01X18593Y1369D01*
G01X18748Y1524D01*
G01X18748Y434D01*
G01X8586Y8608D02*
G01X8586Y7828D01*
G01X8637Y7673D01*
G01X8741Y7569D01*
G01X8899Y7518D01*
G01X9003Y7518D01*
G01X9158Y7569D01*
G01X9262Y7673D01*
G01X9313Y7828D01*
G01X9313Y8608D01*
G01X10176Y8608D02*
G01X9656Y7881D01*
G01X10436Y7881D01*
G01X10176Y8608D02*
G01X10176Y7518D01*
G01X27819Y23314D02*
G01X27714Y23261D01*
G01X27610Y23157D01*
G01X27559Y23055D01*
G01X27559Y22847D01*
G01X27610Y22743D01*
G01X27714Y22639D01*
G01X27819Y22585D01*
G01X27974Y22534D01*
G01X28233Y22534D01*
G01X28390Y22585D01*
G01X28494Y22639D01*
G01X28598Y22743D01*
G01X28649Y22847D01*
G01X28649Y23055D01*
G01X28598Y23157D01*
G01X28494Y23261D01*
G01X28390Y23314D01*
G01X27559Y24384D02*
G01X28649Y23865D01*
G01X27559Y23657D02*
G01X27559Y24384D01*
G01X12932Y15257D02*
G01X12827Y15204D01*
G01X12723Y15100D01*
G01X12673Y14998D01*
G01X12673Y14790D01*
G01X12723Y14686D01*
G01X12827Y14582D01*
G01X12932Y14528D01*
G01X13087Y14478D01*
G01X13346Y14478D01*
G01X13503Y14528D01*
G01X13607Y14582D01*
G01X13711Y14686D01*
G01X13762Y14790D01*
G01X13762Y14998D01*
G01X13711Y15100D01*
G01X13607Y15204D01*
G01X13503Y15257D01*
G01X12878Y15600D02*
G01X12827Y15704D01*
G01X12673Y15859D01*
G01X13762Y15859D01*
G01X12932Y16256D02*
G01X12878Y16256D01*
G01X12774Y16306D01*
G01X12723Y16357D01*
G01X12673Y16461D01*
G01X12673Y16670D01*
G01X12723Y16774D01*
G01X12774Y16827D01*
G01X12878Y16878D01*
G01X12982Y16878D01*
G01X13087Y16827D01*
G01X13244Y16723D01*
G01X13762Y16202D01*
G01X13762Y16929D01*
G01X7676Y32750D02*
G01X7623Y32854D01*
G01X7519Y32959D01*
G01X7417Y33009D01*
G01X7209Y33009D01*
G01X7105Y32959D01*
G01X7001Y32854D01*
G01X6947Y32750D01*
G01X6897Y32595D01*
G01X6897Y32336D01*
G01X6947Y32179D01*
G01X7001Y32075D01*
G01X7105Y31970D01*
G01X7209Y31920D01*
G01X7417Y31920D01*
G01X7519Y31970D01*
G01X7623Y32075D01*
G01X7676Y32179D01*
G01X8642Y32854D02*
G01X8591Y32959D01*
G01X8433Y33009D01*
G01X8332Y33009D01*
G01X8174Y32959D01*
G01X8070Y32804D01*
G01X8019Y32542D01*
G01X8019Y32283D01*
G01X8070Y32075D01*
G01X8174Y31970D01*
G01X8332Y31920D01*
G01X8382Y31920D01*
G01X8537Y31970D01*
G01X8642Y32075D01*
G01X8695Y32232D01*
G01X8695Y32283D01*
G01X8642Y32438D01*
G01X8537Y32542D01*
G01X8382Y32595D01*
G01X8332Y32595D01*
G01X8174Y32542D01*
G01X8070Y32438D01*
G01X8019Y32283D01*
G01X4959Y11229D02*
G01X4854Y11175D01*
G01X4750Y11071D01*
G01X4699Y10970D01*
G01X4699Y10761D01*
G01X4750Y10657D01*
G01X4854Y10553D01*
G01X4959Y10500D01*
G01X5114Y10449D01*
G01X5373Y10449D01*
G01X5530Y10500D01*
G01X5634Y10553D01*
G01X5738Y10657D01*
G01X5789Y10761D01*
G01X5789Y10970D01*
G01X5738Y11071D01*
G01X5634Y11175D01*
G01X5530Y11229D01*
G01X4905Y11572D02*
G01X4854Y11676D01*
G01X4699Y11831D01*
G01X5789Y11831D01*
G01X4699Y12694D02*
G01X5426Y12174D01*
G01X5426Y12953D01*
G01X4699Y12694D02*
G01X5789Y12694D01*
G54D34*
G75*
G01X13631Y25049D02*
G03X13631Y25047I-150J-1D01*
G01*
G54D35*
G75*
G01X15782Y23548D02*
G03X15782Y23546I-200J-1D01*
G01*
G54D10*
G75*
G01X26036Y18796D02*
G03X26036Y18796I-127J0D01*
G01*

%LPD*%
G36*
G01X25334Y33593D02*
G01X25312Y33593D01*
G01X25291Y33591D01*
G01X25271Y33587D01*
G01X25251Y33581D01*
G01X25231Y33573D01*
G01X25212Y33564D01*
G01X25195Y33552D01*
G01X25178Y33539D01*
G01X25163Y33524D01*
G01X25150Y33508D01*
G01X25138Y33491D01*
G01X25127Y33472D01*
G01X25119Y33453D01*
G01X25112Y33433D01*
G01X25108Y33412D01*
G01X25105Y33392D01*
G01X25104Y33370D01*
G01X25106Y33349D01*
G01X25109Y33329D01*
G01X25115Y33308D01*
G01X25122Y33289D01*
G01X25132Y33270D01*
G01X25143Y33252D01*
G01X25155Y33235D01*
G01X25170Y33219D01*
G01X25185Y33205D01*
G01X25202Y33193D01*
G01X25220Y33182D01*
G01X25240Y33173D01*
G01X25259Y33166D01*
G01X25280Y33161D01*
G01X25301Y33158D01*
G01X25322Y33157D01*
G01X25324Y33157D01*
G01X25345Y33158D01*
G01X25366Y33161D01*
G01X25387Y33166D01*
G01X25406Y33173D01*
G01X25426Y33182D01*
G01X25444Y33193D01*
G01X25461Y33205D01*
G01X25476Y33219D01*
G01X25491Y33235D01*
G01X25503Y33252D01*
G01X25514Y33270D01*
G01X25524Y33289D01*
G01X25531Y33308D01*
G01X25537Y33329D01*
G01X25540Y33349D01*
G01X25542Y33370D01*
G01X25541Y33392D01*
G01X25538Y33412D01*
G01X25534Y33433D01*
G01X25527Y33453D01*
G01X25519Y33472D01*
G01X25508Y33491D01*
G01X25496Y33508D01*
G01X25483Y33524D01*
G01X25468Y33539D01*
G01X25451Y33552D01*
G01X25434Y33564D01*
G01X25415Y33573D01*
G01X25395Y33581D01*
G01X25375Y33587D01*
G01X25355Y33591D01*
G01X25334Y33593D01*
G37*
M00*
M02*
