G04 Layer: BottomLayer*
G04 EasyEDA v6.4.5, 2020-09-10T17:23:05--4:00*
G04 2e966794ef5b4dc9b60ed7227ec9bd29,ebf70693e8d24e819ce4a1bff5f43d4f,10*
G04 Gerber Generator version 0.2*
G04 Scale: 100 percent, Rotated: No, Reflected: No *
G04 Dimensions in millimeters *
G04 leading zeros omitted , absolute positions ,3 integer and 3 decimal *
%FSLAX33Y33*%
%MOMM*%
G90*
G71D02*

%ADD10C,0.254000*%
%ADD11C,0.159995*%
%ADD14C,0.610006*%
%ADD15C,0.609600*%
%ADD25C,1.699997*%
%ADD26C,1.599997*%
%ADD29R,1.999996X1.524000*%

%LPD*%
G54D10*
G01X30607Y20828D02*
G01X30607Y19050D01*
G01X30353Y18796D01*
G01X28245Y23517D02*
G01X28903Y22860D01*
G01X30607Y22860D01*
G01X10033Y33528D02*
G01X10033Y31242D01*
G01X13716Y27559D01*
G01X18288Y27559D01*
G01X18923Y28194D01*
G01X7112Y33528D02*
G01X7112Y30861D01*
G01X8255Y29718D01*
G01X9906Y28067D01*
G01X10668Y28067D01*
G01X27813Y3771D02*
G01X28791Y3771D01*
G01X31496Y6477D01*
G01X31496Y11811D01*
G01X31496Y17780D01*
G01X31369Y17907D01*
G01X30353Y18796D01*
G01X25400Y17399D02*
G01X25908Y17399D01*
G01X26035Y17526D01*
G01X29083Y17526D01*
G01X30353Y18796D01*
G01X21336Y14859D02*
G01X20955Y14859D01*
G01X19812Y13716D01*
G01X27813Y18796D02*
G01X25273Y18796D01*
G01X21336Y14859D01*
G54D11*
G01X29718Y28067D02*
G01X29718Y29464D01*
G01X31115Y30861D01*
G54D10*
G01X16764Y34798D02*
G01X16764Y30099D01*
G01X17907Y28956D01*
G54D11*
G01X27697Y28158D02*
G01X22860Y28158D01*
G01X12622Y25562D02*
G01X13559Y25562D01*
G01X21370Y17752D01*
G01X21370Y17498D01*
G01X24113Y1778D02*
G01X18184Y1778D01*
G01X13125Y6837D01*
G01X13125Y10716D01*
G01X14418Y12009D01*
G01X15776Y12009D01*
G01X30353Y16256D02*
G01X29083Y14986D01*
G01X24130Y14986D01*
G01X19431Y10287D01*
G01X27813Y18796D02*
G01X28855Y18796D01*
G01X19431Y7747D02*
G01X18322Y8856D01*
G01X18322Y10736D01*
G01X23838Y16256D01*
G01X27813Y16256D01*
G01X15444Y7747D02*
G01X15444Y7472D01*
G01X16356Y6560D01*
G01X23198Y6560D01*
G01X30353Y13716D01*
G01X14351Y7747D02*
G01X15444Y7747D01*
G01X8235Y5196D02*
G01X13394Y5196D01*
G01X13648Y5450D01*
G01X27999Y23761D02*
G01X29500Y25262D01*
G01X28245Y23517D02*
G01X28243Y23517D01*
G01X27999Y23761D01*
G01X27999Y23761D02*
G01X25256Y26507D01*
G01X24755Y24264D02*
G01X18984Y24264D01*
G01X18184Y19911D02*
G01X21377Y16718D01*
G01X21832Y16718D01*
G01X21832Y16718D02*
G01X24618Y19502D01*
G01X24618Y22964D01*
G01X17387Y23525D02*
G01X25136Y23525D01*
G01X28583Y20078D01*
G36*
G01X6350Y35527D02*
G01X7874Y35527D01*
G01X7874Y31528D01*
G01X6350Y31528D01*
G01X6350Y35527D01*
G37*
G36*
G01X9271Y35527D02*
G01X10795Y35527D01*
G01X10795Y31528D01*
G01X9271Y31528D01*
G01X9271Y35527D01*
G37*
G54D29*
G01X30607Y20828D03*
G01X30607Y22860D03*
G36*
G01X13502Y8596D02*
G01X15201Y8596D01*
G01X15201Y6897D01*
G01X13502Y6897D01*
G01X13502Y8596D01*
G37*
G54D25*
G01X14351Y10287D03*
G01X16891Y7747D03*
G01X16891Y10287D03*
G01X19431Y7747D03*
G01X19431Y10287D03*
G01X21971Y7747D03*
G01X21971Y10287D03*
G54D26*
G01X30353Y13716D03*
G01X27813Y13716D03*
G01X30353Y16256D03*
G01X27813Y16256D03*
G01X30353Y18796D03*
G36*
G01X27013Y19595D02*
G01X28613Y19595D01*
G01X28613Y17996D01*
G01X27013Y17996D01*
G01X27013Y19595D01*
G37*
G54D14*
G01X17387Y23525D03*
G01X28583Y20078D03*
G01X24618Y22964D03*
G01X18184Y19911D03*
G01X21832Y16718D03*
G01X18984Y24264D03*
G01X24755Y24264D03*
G01X29500Y25262D03*
G01X25256Y26507D03*
G01X28245Y23517D03*
G01X8235Y5196D03*
G01X13648Y5450D03*
G01X15776Y12009D03*
G01X24113Y1778D03*
G01X21370Y17498D03*
G01X12622Y25562D03*
G01X27697Y28158D03*
G01X22860Y28158D03*
G54D15*
G01X16764Y34798D03*
G01X17907Y28956D03*
G01X29718Y28067D03*
G01X31115Y30861D03*
G01X19812Y13716D03*
G01X25400Y17399D03*
G01X27813Y3773D03*
G01X10668Y28067D03*
G01X18923Y28194D03*
M00*
M02*
