G04 Layer: BottomSolderMaskLayer*
G04 EasyEDA v6.4.5, 2020-09-10T17:23:05--4:00*
G04 2e966794ef5b4dc9b60ed7227ec9bd29,ebf70693e8d24e819ce4a1bff5f43d4f,10*
G04 Gerber Generator version 0.2*
G04 Scale: 100 percent, Rotated: No, Reflected: No *
G04 Dimensions in millimeters *
G04 leading zeros omitted , absolute positions ,3 integer and 3 decimal *
%FSLAX33Y33*%
%MOMM*%
G90*
G71D02*

%ADD44C,1.903197*%
%ADD46C,1.803197*%

%LPD*%
G36*
G01X6249Y31427D02*
G01X6249Y35628D01*
G01X7976Y35628D01*
G01X7976Y31427D01*
G01X6249Y31427D01*
G37*
G36*
G01X9170Y31427D02*
G01X9170Y35628D01*
G01X10897Y35628D01*
G01X10897Y31427D01*
G01X9170Y31427D01*
G37*
G36*
G01X29505Y19964D02*
G01X29505Y21691D01*
G01X31710Y21691D01*
G01X31710Y19964D01*
G01X29505Y19964D01*
G37*
G36*
G01X29505Y21996D02*
G01X29505Y23723D01*
G01X31710Y23723D01*
G01X31710Y21996D01*
G01X29505Y21996D01*
G37*
G36*
G01X13399Y6794D02*
G01X13399Y8699D01*
G01X15304Y8699D01*
G01X15304Y6794D01*
G01X13399Y6794D01*
G37*
G54D44*
G01X14351Y10287D03*
G01X16891Y7747D03*
G01X16891Y10287D03*
G01X19431Y7747D03*
G01X19431Y10287D03*
G01X21971Y7747D03*
G01X21971Y10287D03*
G54D46*
G01X30353Y13716D03*
G01X27813Y13716D03*
G01X30353Y16256D03*
G01X27813Y16256D03*
G01X30353Y18796D03*
G36*
G01X26912Y17894D02*
G01X26912Y19697D01*
G01X28715Y19697D01*
G01X28715Y17894D01*
G01X26912Y17894D01*
G37*
M00*
M02*
