G04 Layer: TopLayer*
G04 EasyEDA v6.4.5, 2020-09-10T17:23:05--4:00*
G04 2e966794ef5b4dc9b60ed7227ec9bd29,ebf70693e8d24e819ce4a1bff5f43d4f,10*
G04 Gerber Generator version 0.2*
G04 Scale: 100 percent, Rotated: No, Reflected: No *
G04 Dimensions in millimeters *
G04 leading zeros omitted , absolute positions ,3 integer and 3 decimal *
%FSLAX33Y33*%
%MOMM*%
G90*
G71D02*

%ADD10C,0.254000*%
%ADD11C,0.159995*%
%ADD12C,0.450012*%
%ADD13C,0.280010*%
%ADD14C,0.610006*%
%ADD15C,0.609600*%
%ADD16R,1.999996X5.499989*%
%ADD17R,1.099998X0.999998*%
%ADD18R,0.999998X1.099998*%
%ADD23R,1.999996X1.600200*%
%ADD25C,1.699997*%
%ADD26C,1.599997*%

%LPD*%
G54D10*
G01X18923Y28194D02*
G01X19785Y29032D01*
G01X10668Y28067D02*
G01X11240Y28067D01*
G01X29014Y3773D02*
G01X27813Y3773D01*
G01X22149Y19344D02*
G01X23455Y19344D01*
G01X25400Y17399D01*
G01X19812Y13716D02*
G01X19812Y14489D01*
G01X20574Y15251D01*
G01X19774Y16954D02*
G01X19774Y16217D01*
G01X18796Y15240D01*
G01X18796Y10922D01*
G01X19431Y10287D01*
G01X29915Y3773D02*
G01X29915Y3244D01*
G01X29083Y2413D01*
G01X28448Y1778D01*
G01X26482Y1778D01*
G01X29940Y32484D02*
G01X30480Y32484D01*
G01X30734Y32230D01*
G01X30734Y31242D01*
G01X31115Y30861D01*
G54D11*
G01X28695Y27505D02*
G01X29157Y27505D01*
G01X29718Y28067D01*
G54D10*
G01X17907Y28956D02*
G01X16195Y30668D01*
G01X16129Y30668D01*
G01X28710Y33241D02*
G01X28710Y33647D01*
G01X27940Y34417D01*
G01X21971Y34417D01*
G01X21590Y34798D01*
G01X16764Y34798D01*
G54D11*
G01X26610Y5969D02*
G01X28154Y5969D01*
G01X28751Y5369D01*
G01X29014Y5370D02*
G01X28752Y5370D01*
G01X28751Y5369D01*
G01X22906Y4191D02*
G01X23351Y4635D01*
G01X29784Y4635D01*
G01X29915Y4765D01*
G01X29915Y5370D01*
G01X22165Y4191D02*
G01X22906Y4191D01*
G01X28509Y26289D02*
G01X28509Y27081D01*
G01X28194Y29243D02*
G01X28243Y29194D01*
G01X28243Y27348D01*
G01X28509Y27081D01*
G01X27697Y28158D02*
G01X27697Y28160D01*
G01X27697Y29243D01*
G01X22860Y29905D02*
G01X22860Y29164D01*
G01X22860Y29164D02*
G01X22860Y28158D01*
G01X6831Y4064D02*
G01X8974Y1922D01*
G01X11938Y1922D01*
G01X5588Y4064D02*
G01X6831Y4064D01*
G01X11938Y2992D02*
G01X11938Y1922D01*
G01X11938Y2992D02*
G01X11938Y4064D01*
G01X21276Y1651D02*
G01X20341Y716D01*
G01X13145Y716D01*
G01X11938Y1922D01*
G01X11303Y12877D02*
G01X11303Y11836D01*
G01X29845Y23929D02*
G01X30775Y24858D01*
G01X30775Y29149D01*
G01X29939Y29984D01*
G01X28893Y9271D02*
G01X31400Y11780D01*
G01X31400Y22374D01*
G01X29845Y23929D01*
G01X14351Y10287D02*
G01X11938Y7874D01*
G01X11938Y4064D01*
G01X16450Y3810D02*
G01X19117Y3810D01*
G01X21276Y1651D01*
G01X11303Y11836D02*
G01X12802Y11836D01*
G01X12802Y11836D02*
G01X14351Y10287D01*
G01X28893Y9271D02*
G01X28893Y10063D01*
G01X12802Y11836D02*
G01X12802Y16192D01*
G01X14659Y18046D01*
G01X21596Y18046D01*
G01X28893Y10751D01*
G01X28893Y10063D01*
G01X29845Y23561D02*
G01X29845Y23743D01*
G01X29845Y23743D02*
G01X29845Y23929D01*
G01X29845Y23743D02*
G01X29508Y24081D01*
G01X27196Y24081D01*
G01X25781Y22666D02*
G01X27196Y24081D01*
G01X27196Y24081D02*
G01X27148Y24130D01*
G01X27148Y29194D01*
G01X27196Y29243D01*
G01X1077Y5969D02*
G01X1077Y9113D01*
G01X1204Y9240D01*
G01X1204Y9636D02*
G01X1204Y9240D01*
G01X1204Y9636D02*
G01X1204Y10033D01*
G01X1204Y10033D02*
G01X1204Y13462D01*
G01X13412Y24152D02*
G01X12622Y24942D01*
G01X12622Y25562D01*
G01X21370Y17498D02*
G01X21235Y17363D01*
G01X21235Y13939D01*
G01X25207Y9966D01*
G01X25207Y5969D01*
G01X13412Y19354D02*
G01X12787Y19354D01*
G01X10633Y21508D01*
G01X10633Y23484D01*
G01X9525Y24592D01*
G01X9525Y25333D02*
G01X9525Y24963D01*
G01X9525Y24963D02*
G01X9525Y24592D01*
G01X9525Y24963D02*
G01X9363Y25125D01*
G01X3937Y25125D01*
G01X3937Y28117D02*
G01X3937Y25125D01*
G01X8733Y21142D02*
G01X8266Y21610D01*
G01X3937Y21610D01*
G01X3937Y18618D02*
G01X3937Y21610D01*
G01X9525Y21142D02*
G01X9129Y21142D01*
G01X9129Y21142D02*
G01X8733Y21142D01*
G01X9129Y21142D02*
G01X11718Y18554D01*
G01X13412Y18554D01*
G01X20762Y4191D02*
G01X18870Y4191D01*
G01X15444Y7614D01*
G01X15444Y11358D01*
G01X14979Y11823D01*
G01X14979Y16954D01*
G01X25080Y1778D02*
G01X24113Y1778D01*
G01X15776Y12009D02*
G01X15776Y16954D01*
G01X16577Y16954D02*
G01X16577Y11711D01*
G01X15766Y10901D01*
G01X15766Y8872D01*
G01X16891Y7747D01*
G01X16891Y10287D02*
G01X17377Y10772D01*
G01X17377Y16954D01*
G01X22149Y18544D02*
G01X24438Y16256D01*
G01X27813Y16256D01*
G01X2607Y13462D02*
G01X3348Y13462D01*
G01X8301Y33909D02*
G01X8301Y33055D01*
G01X10496Y30861D01*
G01X7560Y33909D02*
G01X8301Y33909D01*
G01X11240Y30861D02*
G01X10496Y30861D01*
G01X5588Y1762D02*
G01X2480Y4874D01*
G01X2480Y5969D01*
G01X2480Y5969D02*
G01X2480Y9113D01*
G01X2607Y9240D01*
G01X2607Y9636D02*
G01X2607Y9240D01*
G01X2607Y9636D02*
G01X2607Y10033D01*
G01X2607Y10033D02*
G01X2607Y13462D01*
G01X7620Y14300D02*
G01X4186Y14300D01*
G01X3348Y13462D01*
G01X7620Y14300D02*
G01X7620Y15341D01*
G01X14608Y20154D02*
G01X13412Y20154D01*
G01X13412Y21752D02*
G01X14608Y21752D01*
G01X14608Y20154D02*
G01X14608Y21752D01*
G01X14608Y21752D02*
G01X14608Y24531D01*
G01X11240Y27899D01*
G01X11240Y30861D01*
G01X14608Y19344D02*
G01X22149Y19344D01*
G01X7620Y15341D02*
G01X10102Y17823D01*
G01X13978Y17823D01*
G01X14608Y18453D01*
G01X14608Y19344D01*
G01X14608Y19344D02*
G01X14608Y20154D01*
G01X19876Y1651D02*
G01X17209Y1651D01*
G01X15050Y3810D01*
G01X15050Y3810D02*
G01X15050Y5956D01*
G01X14351Y6654D01*
G01X11303Y16078D02*
G01X11303Y15034D01*
G01X9525Y26733D02*
G01X9525Y27106D01*
G01X9525Y27106D02*
G01X9525Y27477D01*
G01X29845Y22158D02*
G01X29845Y21417D01*
G01X14351Y7200D02*
G01X14351Y7747D01*
G01X7620Y12141D02*
G01X10514Y15034D01*
G01X11303Y15034D01*
G01X16129Y32811D02*
G01X14240Y34701D01*
G01X6952Y34701D01*
G01X6160Y33909D01*
G01X13412Y20955D02*
G01X12929Y20955D01*
G01X12274Y21610D01*
G01X12274Y22552D01*
G01X12274Y22552D02*
G01X12274Y24356D01*
G01X9525Y27106D01*
G01X23219Y21742D02*
G01X22149Y21742D01*
G01X12274Y22552D02*
G01X13412Y22552D01*
G01X30353Y13716D02*
G01X29188Y14881D01*
G01X29188Y20759D01*
G01X29188Y20759D02*
G01X29845Y21417D01*
G01X29188Y20759D02*
G01X28207Y21742D01*
G01X29500Y26289D02*
G01X29912Y26289D01*
G01X28695Y29243D02*
G01X28695Y27505D01*
G01X29500Y26697D01*
G01X29500Y26289D01*
G01X28207Y21742D02*
G01X28045Y21579D01*
G01X23379Y21579D01*
G01X23219Y21742D01*
G01X22860Y31308D02*
G01X22068Y31308D01*
G01X21956Y31193D02*
G01X22068Y31308D01*
G01X21956Y31193D02*
G01X19812Y33337D01*
G01X9525Y27477D02*
G01X6160Y30843D01*
G01X6160Y31226D01*
G01X6160Y31226D02*
G01X6160Y33909D01*
G01X6160Y31226D02*
G01X2866Y31226D01*
G01X2695Y31054D01*
G01X2695Y25156D01*
G01X5309Y22542D01*
G01X9525Y22542D01*
G01X16129Y32067D02*
G01X16129Y32440D01*
G01X16129Y32440D02*
G01X16129Y32811D01*
G01X16129Y32440D02*
G01X17029Y33337D01*
G01X19812Y33337D01*
G01X7620Y11386D02*
G01X7620Y12141D01*
G01X7620Y11386D02*
G01X7620Y11099D01*
G01X7620Y11099D02*
G01X7620Y7152D01*
G01X6831Y6362D01*
G01X5588Y6362D02*
G01X6831Y6362D01*
G01X14351Y7200D02*
G01X14351Y6926D01*
G01X14351Y6926D02*
G01X14351Y6654D01*
G01X8235Y5196D02*
G01X7996Y5196D01*
G01X6831Y6362D01*
G01X14351Y6926D02*
G01X13648Y6225D01*
G01X13648Y5450D01*
G01X28245Y23517D02*
G01X28245Y21780D01*
G01X28207Y21742D01*
G01X25942Y32473D02*
G01X25426Y32473D01*
G01X25256Y32303D01*
G01X25256Y26507D01*
G01X29500Y26289D02*
G01X29500Y25262D01*
G01X23219Y21742D02*
G01X23219Y26446D01*
G01X21956Y27708D01*
G01X21956Y31193D01*
G01X19812Y31196D02*
G01X19785Y31168D01*
G01X19785Y25717D01*
G01X19812Y31937D02*
G01X19812Y31196D01*
G01X25781Y24066D02*
G01X25781Y24810D01*
G01X18984Y25717D02*
G01X18984Y24264D01*
G01X24755Y24810D02*
G01X25781Y24810D01*
G01X26711Y33240D02*
G01X25500Y33240D01*
G01X24684Y32425D01*
G01X24684Y24881D01*
G01X24755Y24810D01*
G01X24755Y24810D02*
G01X24755Y24264D01*
G01X21832Y16718D02*
G01X21832Y14846D01*
G01X28288Y8389D01*
G01X29411Y8389D01*
G01X30293Y9271D01*
G01X18184Y25717D02*
G01X18184Y19911D01*
G01X27212Y33240D02*
G01X27212Y33751D01*
G01X26960Y34002D01*
G01X25662Y34002D01*
G01X24199Y32542D01*
G01X24199Y23383D01*
G01X24618Y22964D01*
G01X12640Y30861D02*
G01X13381Y30861D01*
G01X13381Y30861D02*
G01X17387Y26855D01*
G01X17387Y25717D01*
G01X17387Y23525D02*
G01X17387Y25717D01*
G01X27813Y13716D02*
G01X28865Y14767D01*
G01X28865Y19796D01*
G01X28583Y20078D01*
G01X21971Y7747D02*
G01X20574Y9144D01*
G01X20574Y16954D01*
G54D12*
G01X14986Y26317D02*
G01X14986Y25117D01*
G01X15787Y26317D02*
G01X15787Y25117D01*
G01X16587Y26317D02*
G01X16587Y25117D01*
G01X17387Y26317D02*
G01X17387Y25117D01*
G01X18184Y26317D02*
G01X18184Y25117D01*
G01X18984Y26317D02*
G01X18984Y25117D01*
G01X19785Y26317D02*
G01X19785Y25117D01*
G01X20585Y26317D02*
G01X20585Y25117D01*
G01X21549Y24142D02*
G01X22749Y24142D01*
G01X21549Y23342D02*
G01X22749Y23342D01*
G01X21549Y22542D02*
G01X22749Y22542D01*
G01X21549Y21742D02*
G01X22749Y21742D01*
G01X21549Y20944D02*
G01X22749Y20944D01*
G01X21549Y20144D02*
G01X22749Y20144D01*
G01X21549Y19344D02*
G01X22749Y19344D01*
G01X21549Y18544D02*
G01X22749Y18544D01*
G01X20574Y17554D02*
G01X20574Y16354D01*
G01X19774Y17554D02*
G01X19774Y16354D01*
G01X18974Y17554D02*
G01X18974Y16354D01*
G01X18174Y17554D02*
G01X18174Y16354D01*
G01X17377Y17554D02*
G01X17377Y16354D01*
G01X16577Y17554D02*
G01X16577Y16354D01*
G01X15776Y17554D02*
G01X15776Y16354D01*
G01X14976Y17554D02*
G01X14976Y16354D01*
G01X12812Y18554D02*
G01X14012Y18554D01*
G01X12812Y19354D02*
G01X14012Y19354D01*
G01X12812Y20154D02*
G01X14012Y20154D01*
G01X12812Y20955D02*
G01X14012Y20955D01*
G01X12812Y21752D02*
G01X14012Y21752D01*
G01X12812Y22552D02*
G01X14012Y22552D01*
G01X12812Y23352D02*
G01X14012Y23352D01*
G01X12812Y24152D02*
G01X14012Y24152D01*
G54D13*
G01X25681Y32473D02*
G01X26200Y32473D01*
G01X25681Y31973D02*
G01X26200Y31973D01*
G01X25681Y31473D02*
G01X26200Y31473D01*
G01X25681Y30975D02*
G01X26200Y30975D01*
G01X25681Y30474D02*
G01X26200Y30474D01*
G01X25681Y29974D02*
G01X26200Y29974D01*
G01X26696Y29501D02*
G01X26696Y28982D01*
G01X27196Y29501D02*
G01X27196Y28982D01*
G01X27697Y29501D02*
G01X27697Y28982D01*
G01X28194Y29501D02*
G01X28194Y28982D01*
G01X28695Y29501D02*
G01X28695Y28982D01*
G01X29195Y29501D02*
G01X29195Y28982D01*
G01X29680Y29984D02*
G01X30200Y29984D01*
G01X29680Y30485D02*
G01X30200Y30485D01*
G01X29680Y30985D02*
G01X30200Y30985D01*
G01X29680Y31483D02*
G01X30200Y31483D01*
G01X29680Y31983D02*
G01X30200Y31983D01*
G01X29680Y32484D02*
G01X30200Y32484D01*
G01X29210Y33501D02*
G01X29210Y32982D01*
G01X28710Y33501D02*
G01X28710Y32982D01*
G01X28210Y33501D02*
G01X28210Y32982D01*
G01X27712Y33501D02*
G01X27712Y32982D01*
G01X27212Y33501D02*
G01X27212Y32982D01*
G01X26711Y33501D02*
G01X26711Y32982D01*
G54D16*
G01X3937Y18617D03*
G01X3937Y28118D03*
G54D17*
G01X9525Y25334D03*
G01X9525Y26734D03*
G01X9525Y21143D03*
G01X9525Y22543D03*
G36*
G01X705Y14011D02*
G01X1705Y14011D01*
G01X1705Y12911D01*
G01X705Y12911D01*
G01X705Y14011D01*
G37*
G36*
G01X2105Y14011D02*
G01X3105Y14011D01*
G01X3105Y12911D01*
G01X2105Y12911D01*
G01X2105Y14011D01*
G37*
G36*
G01X705Y10582D02*
G01X1705Y10582D01*
G01X1705Y9482D01*
G01X705Y9482D01*
G01X705Y10582D01*
G37*
G36*
G01X2105Y10582D02*
G01X3105Y10582D01*
G01X3105Y9482D01*
G01X2105Y9482D01*
G01X2105Y10582D01*
G37*
G36*
G01X578Y6518D02*
G01X1578Y6518D01*
G01X1578Y5418D01*
G01X578Y5418D01*
G01X578Y6518D01*
G37*
G36*
G01X1978Y6518D02*
G01X2978Y6518D01*
G01X2978Y5418D01*
G01X1978Y5418D01*
G01X1978Y6518D01*
G37*
G54D18*
G01X12639Y30861D03*
G01X11239Y30861D03*
G36*
G01X26600Y32569D02*
G01X29281Y32569D01*
G01X29281Y29889D01*
G01X26600Y29889D01*
G01X26600Y32569D01*
G37*
G01X16449Y3810D03*
G01X15049Y3810D03*
G54D17*
G01X22860Y31307D03*
G01X22860Y29906D03*
G36*
G01X28010Y26838D02*
G01X29010Y26838D01*
G01X29010Y25738D01*
G01X28010Y25738D01*
G01X28010Y26838D01*
G37*
G36*
G01X29410Y26838D02*
G01X30410Y26838D01*
G01X30410Y25738D01*
G01X29410Y25738D01*
G01X29410Y26838D01*
G37*
G01X25781Y22667D03*
G01X25781Y24067D03*
G54D18*
G01X30292Y9271D03*
G01X28892Y9271D03*
G54D17*
G01X16129Y30668D03*
G01X16129Y32068D03*
G36*
G01X29639Y5770D02*
G01X30190Y5770D01*
G01X30190Y4970D01*
G01X29639Y4970D01*
G01X29639Y5770D01*
G37*
G36*
G01X28740Y5770D02*
G01X29289Y5770D01*
G01X29289Y4970D01*
G01X28740Y4970D01*
G01X28740Y5770D01*
G37*
G36*
G01X28740Y4173D02*
G01X29289Y4173D01*
G01X29289Y3373D01*
G01X28740Y3373D01*
G01X28740Y4173D01*
G37*
G36*
G01X29639Y4173D02*
G01X30190Y4173D01*
G01X30190Y3373D01*
G01X29639Y3373D01*
G01X29639Y4173D01*
G37*
G36*
G01X24708Y6518D02*
G01X25708Y6518D01*
G01X25708Y5418D01*
G01X24708Y5418D01*
G01X24708Y6518D01*
G37*
G36*
G01X26108Y6518D02*
G01X27108Y6518D01*
G01X27108Y5418D01*
G01X26108Y5418D01*
G01X26108Y6518D01*
G37*
G36*
G01X20263Y4740D02*
G01X21263Y4740D01*
G01X21263Y3640D01*
G01X20263Y3640D01*
G01X20263Y4740D01*
G37*
G36*
G01X21663Y4740D02*
G01X22663Y4740D01*
G01X22663Y3640D01*
G01X21663Y3640D01*
G01X21663Y4740D01*
G37*
G36*
G01X24581Y2327D02*
G01X25581Y2327D01*
G01X25581Y1227D01*
G01X24581Y1227D01*
G01X24581Y2327D01*
G37*
G36*
G01X25981Y2327D02*
G01X26981Y2327D01*
G01X26981Y1227D01*
G01X25981Y1227D01*
G01X25981Y2327D01*
G37*
G01X19812Y31938D03*
G01X19812Y33338D03*
G54D18*
G01X21275Y1651D03*
G01X19875Y1651D03*
G36*
G01X10788Y5963D02*
G01X13088Y5963D01*
G01X13088Y2164D01*
G01X10788Y2164D01*
G01X10788Y5963D01*
G37*
G36*
G01X4588Y4663D02*
G01X6588Y4663D01*
G01X6588Y3464D01*
G01X4588Y3464D01*
G01X4588Y4663D01*
G37*
G36*
G01X4588Y2364D02*
G01X6588Y2364D01*
G01X6588Y1164D01*
G01X4588Y1164D01*
G01X4588Y2364D01*
G37*
G36*
G01X4588Y6963D02*
G01X6588Y6963D01*
G01X6588Y5763D01*
G01X4588Y5763D01*
G01X4588Y6963D01*
G37*
G54D17*
G01X29845Y23560D03*
G01X29845Y22159D03*
G54D23*
G01X11303Y16077D03*
G01X11303Y12878D03*
G54D18*
G01X7559Y33909D03*
G01X6159Y33909D03*
G54D23*
G01X7620Y11100D03*
G01X7620Y14299D03*
G36*
G01X13502Y8596D02*
G01X15201Y8596D01*
G01X15201Y6897D01*
G01X13502Y6897D01*
G01X13502Y8596D01*
G37*
G54D25*
G01X14351Y10287D03*
G01X16891Y7747D03*
G01X16891Y10287D03*
G01X19431Y7747D03*
G01X19431Y10287D03*
G01X21971Y7747D03*
G01X21971Y10287D03*
G54D26*
G01X30353Y13716D03*
G01X27813Y13716D03*
G01X30353Y16256D03*
G01X27813Y16256D03*
G01X30353Y18796D03*
G36*
G01X27013Y19595D02*
G01X28613Y19595D01*
G01X28613Y17996D01*
G01X27013Y17996D01*
G01X27013Y19595D01*
G37*
G54D14*
G01X17387Y23525D03*
G01X28583Y20078D03*
G01X24618Y22964D03*
G01X18184Y19911D03*
G01X21832Y16718D03*
G01X18984Y24264D03*
G01X24755Y24264D03*
G01X29500Y25262D03*
G01X25256Y26507D03*
G01X28245Y23517D03*
G01X8235Y5196D03*
G01X13648Y5450D03*
G01X15776Y12009D03*
G01X24113Y1778D03*
G01X21370Y17498D03*
G01X12622Y25562D03*
G01X27697Y28158D03*
G01X22860Y28158D03*
G54D15*
G01X16764Y34798D03*
G01X17907Y28956D03*
G01X29718Y28067D03*
G01X31115Y30861D03*
G01X19812Y13716D03*
G01X25400Y17399D03*
G01X27813Y3773D03*
G01X10668Y28067D03*
G01X18923Y28194D03*
M00*
M02*
