;Layer: Drill PTH
;EasyEDA v6.4.5, 2020-09-10T17:23:05--4:00
;2e966794ef5b4dc9b60ed7227ec9bd29,ebf70693e8d24e819ce4a1bff5f43d4f,10
;Gerber Generator version 0.2
M48
METRIC,LZ,000.000
;Holesize 1 = 0.305 METRIC
T01C0.305
;Holesize 2 = 0.310 METRIC
T02C0.310
;Holesize 3 = 1.000 METRIC
T03C1.000
;Holesize 4 = 1.101 METRIC
T04C1.101
%
G05
G90
T01
X+016764Y+034798
X+017907Y+028956
X+029718Y+028067
X+031115Y+030861
X+019812Y+013716
X+025400Y+017399
X+027813Y+003773
X+010668Y+028067
X+018923Y+028194
T02
X+017387Y+023525
X+028583Y+020078
X+024618Y+022964
X+018184Y+019911
X+021832Y+016718
X+018984Y+024264
X+024755Y+024264
X+029500Y+025262
X+025256Y+026507
X+028245Y+023517
X+008235Y+005196
X+013648Y+005450
X+015776Y+012009
X+024113Y+001778
X+021370Y+017498
X+012622Y+025562
X+027697Y+028158
X+022860Y+028158
T03
X+030353Y+013716
X+027813Y+013716
X+030353Y+016256
X+027813Y+016256
X+030353Y+018796
X+027813Y+018796
T04
X+014351Y+007747
X+014351Y+010287
X+016891Y+007747
X+016891Y+010287
X+019431Y+007747
X+019431Y+010287
X+021971Y+007747
X+021971Y+010287
M30
